<svg xmlns="http://www.w3.org/2000/svg" xmlns:xlink="http://www.w3.org/1999/xlink" version="1.1" class="marks" width="253" height="247" viewBox="0 0 253 247"><rect width="253" height="247" fill="white"/><g fill="none" stroke-miterlimit="10" transform="translate(47,10)"><g class="mark-group role-frame root" role="graphics-object" aria-roledescription="group mark container"><g transform="translate(0,0)"><path class="background" aria-hidden="true" d="M0.5,0.5h200v200h-200Z" stroke="#ddd"/><g><g class="mark-group role-axis" role="graphics-symbol" aria-roledescription="axis" aria-label="X-axis titled 'Spearman correlation' for a linear scale with values from −1.0 to 1.0"><g transform="translate(0.5,200.5)"><path class="background" aria-hidden="true" d="M0,0h0v0h0Z" pointer-events="none"/><g><g class="mark-rule role-axis-tick" pointer-events="none"><line transform="translate(0,0)" x2="0" y2="5" stroke="#888" stroke-width="1" opacity="1"/><line transform="translate(50,0)" x2="0" y2="5" stroke="#888" stroke-width="1" opacity="1"/><line transform="translate(100,0)" x2="0" y2="5" stroke="#888" stroke-width="1" opacity="1"/><line transform="translate(150,0)" x2="0" y2="5" stroke="#888" stroke-width="1" opacity="1"/><line transform="translate(200,0)" x2="0" y2="5" stroke="#888" stroke-width="1" opacity="1"/></g><g class="mark-text role-axis-label" pointer-events="none"><text text-anchor="start" transform="translate(0,15)" font-family="sans-serif" font-size="10px" fill="#000" opacity="1">−1.0</text><text text-anchor="middle" transform="translate(50,15)" font-family="sans-serif" font-size="10px" fill="#000" opacity="1">−0.5</text><text text-anchor="middle" transform="translate(100,15)" font-family="sans-serif" font-size="10px" fill="#000" opacity="1">0.0</text><text text-anchor="middle" transform="translate(150,15)" font-family="sans-serif" font-size="10px" fill="#000" opacity="1">0.5</text><text text-anchor="end" transform="translate(200,15)" font-family="sans-serif" font-size="10px" fill="#000" opacity="1">1.0</text></g><g class="mark-rule role-axis-domain" pointer-events="none"><line transform="translate(0,0)" x2="200" y2="0" stroke="#888" stroke-width="1" opacity="1"/></g><g class="mark-text role-axis-title" pointer-events="none"><text text-anchor="middle" transform="translate(100,30)" font-family="sans-serif" font-size="11px" font-weight="bold" fill="#000" opacity="1">Spearman correlation</text></g></g><path class="foreground" aria-hidden="true" d="" pointer-events="none" display="none"/></g></g><g class="mark-group role-axis" role="graphics-symbol" aria-roledescription="axis" aria-label="Y-axis titled 'Pearson correlation' for a linear scale with values from −1.0 to 1.0"><g transform="translate(0.5,0.5)"><path class="background" aria-hidden="true" d="M0,0h0v0h0Z" pointer-events="none"/><g><g class="mark-rule role-axis-tick" pointer-events="none"><line transform="translate(0,200)" x2="-5" y2="0" stroke="#888" stroke-width="1" opacity="1"/><line transform="translate(0,150)" x2="-5" y2="0" stroke="#888" stroke-width="1" opacity="1"/><line transform="translate(0,100)" x2="-5" y2="0" stroke="#888" stroke-width="1" opacity="1"/><line transform="translate(0,50)" x2="-5" y2="0" stroke="#888" stroke-width="1" opacity="1"/><line transform="translate(0,0)" x2="-5" y2="0" stroke="#888" stroke-width="1" opacity="1"/></g><g class="mark-text role-axis-label" pointer-events="none"><text text-anchor="end" transform="translate(-7,203)" font-family="sans-serif" font-size="10px" fill="#000" opacity="1">−1.0</text><text text-anchor="end" transform="translate(-7,153)" font-family="sans-serif" font-size="10px" fill="#000" opacity="1">−0.5</text><text text-anchor="end" transform="translate(-7,103)" font-family="sans-serif" font-size="10px" fill="#000" opacity="1">0.0</text><text text-anchor="end" transform="translate(-7,53)" font-family="sans-serif" font-size="10px" fill="#000" opacity="1">0.5</text><text text-anchor="end" transform="translate(-7,3)" font-family="sans-serif" font-size="10px" fill="#000" opacity="1">1.0</text></g><g class="mark-rule role-axis-domain" pointer-events="none"><line transform="translate(0,200)" x2="0" y2="-200" stroke="#888" stroke-width="1" opacity="1"/></g><g class="mark-text role-axis-title" pointer-events="none"><text text-anchor="middle" transform="translate(-30.7412109375,100) rotate(-90) translate(0,-2)" font-family="sans-serif" font-size="11px" font-weight="bold" fill="#000" opacity="1">Pearson correlation</text></g></g><path class="foreground" aria-hidden="true" d="" pointer-events="none" display="none"/></g></g><g class="mark-symbol role-mark marks" role="graphics-object" aria-roledescription="symbol mark container"><path aria-label="Spearman correlation: 0.331932618256; Pearson correlation: 0.283193735627; species (common name): Amur hedgehog; has_sars2: no" role="graphics-symbol" aria-roledescription="circle" transform="translate(133.19326182563344,71.68062643726638)" d="M3.536,0A3.536,3.536,0,1,1,-3.536,0A3.536,3.536,0,1,1,3.536,0" fill="black" stroke="red" stroke-width="0" opacity="0.5"/><path aria-label="Spearman correlation: 0.0516376598892; Pearson correlation: 0.140734604781; species (common name): Chinese cobra; has_sars2: no" role="graphics-symbol" aria-roledescription="circle" transform="translate(105.16376598892366,85.92653952188434)" d="M3.536,0A3.536,3.536,0,1,1,-3.536,0A3.536,3.536,0,1,1,3.536,0" fill="black" stroke="red" stroke-width="0" opacity="0.5"/><path aria-label="Spearman correlation: 0.233707149341; Pearson correlation: 0.201613887468; species (common name): Chinese salamander; has_sars2: no" role="graphics-symbol" aria-roledescription="circle" transform="translate(123.37071493407296,79.83861125315774)" d="M3.536,0A3.536,3.536,0,1,1,-3.536,0A3.536,3.536,0,1,1,3.536,0" fill="black" stroke="red" stroke-width="0" opacity="0.5"/><path aria-label="Spearman correlation: 0.321617751989; Pearson correlation: 0.305984391573; species (common name): European hedgehog; has_sars2: no" role="graphics-symbol" aria-roledescription="circle" transform="translate(132.1617751988932,69.4015608427127)" d="M3.536,0A3.536,3.536,0,1,1,-3.536,0A3.536,3.536,0,1,1,3.536,0" fill="black" stroke="red" stroke-width="0" opacity="0.5"/><path aria-label="Spearman correlation: 0.0995673561441; Pearson correlation: 0.0932682760327; species (common name): Himalayan marmot; has_sars2: no" role="graphics-symbol" aria-roledescription="circle" transform="translate(109.95673561441035,90.6731723967295)" d="M3.536,0A3.536,3.536,0,1,1,-3.536,0A3.536,3.536,0,1,1,3.536,0" fill="black" stroke="red" stroke-width="0" opacity="0.5"/><path aria-label="Spearman correlation: 0.0683952066082; Pearson correlation: 0.00883842149171; species (common name): Largemouth bass; has_sars2: no" role="graphics-symbol" aria-roledescription="circle" transform="translate(106.83952066081659,99.11615785082878)" d="M3.536,0A3.536,3.536,0,1,1,-3.536,0A3.536,3.536,0,1,1,3.536,0" fill="black" stroke="red" stroke-width="0" opacity="0.5"/><path aria-label="Spearman correlation: 0.355999283216; Pearson correlation: 0.313089500925; species (common name): Malayan porcupine; has_sars2: no" role="graphics-symbol" aria-roledescription="circle" transform="translate(135.59992832160293,68.69104990751967)" d="M3.536,0A3.536,3.536,0,1,1,-3.536,0A3.536,3.536,0,1,1,3.536,0" fill="black" stroke="red" stroke-width="0" opacity="0.5"/><path aria-label="Spearman correlation: 0.0498333539498; Pearson correlation: 0.0142586730895; species (common name): Mayalan field rat; has_sars2: no" role="graphics-symbol" aria-roledescription="circle" transform="translate(104.98333539498176,98.57413269104576)" d="M3.536,0A3.536,3.536,0,1,1,-3.536,0A3.536,3.536,0,1,1,3.536,0" fill="black" stroke="red" stroke-width="0" opacity="0.5"/><path aria-label="Spearman correlation: 0.222241804095; Pearson correlation: 0.200459805688; species (common name): Oriental rat snake; has_sars2: no" role="graphics-symbol" aria-roledescription="circle" transform="translate(122.22418040953318,79.95401943124305)" d="M3.536,0A3.536,3.536,0,1,1,-3.536,0A3.536,3.536,0,1,1,3.536,0" fill="black" stroke="red" stroke-width="0" opacity="0.5"/><path aria-label="Spearman correlation: 0.0376892872873; Pearson correlation: 0.0736156380663; species (common name): Siberian weasel; has_sars2: no" role="graphics-symbol" aria-roledescription="circle" transform="translate(103.76892872872665,92.63843619336731)" d="M3.536,0A3.536,3.536,0,1,1,-3.536,0A3.536,3.536,0,1,1,3.536,0" fill="black" stroke="red" stroke-width="0" opacity="0.5"/><path aria-label="Spearman correlation: −0.00337458887427; Pearson correlation: −0.0867317758384; species (common name): bat-eared fox; has_sars2: no" role="graphics-symbol" aria-roledescription="circle" transform="translate(99.66254111257288,108.67317758384118)" d="M3.536,0A3.536,3.536,0,1,1,-3.536,0A3.536,3.536,0,1,1,3.536,0" fill="black" stroke="red" stroke-width="0" opacity="0.5"/><path aria-label="Spearman correlation: −0.152922425174; Pearson correlation: −0.0761693124123; species (common name): brown bush hen; has_sars2: no" role="graphics-symbol" aria-roledescription="circle" transform="translate(84.70775748257913,107.61693124122533)" d="M3.536,0A3.536,3.536,0,1,1,-3.536,0A3.536,3.536,0,1,1,3.536,0" fill="black" stroke="red" stroke-width="0" opacity="0.5"/><path aria-label="Spearman correlation: 0.0856963565004; Pearson correlation: 0.0305401552382; species (common name): brown rat; has_sars2: no" role="graphics-symbol" aria-roledescription="circle" transform="translate(108.56963565003643,96.94598447618381)" d="M3.536,0A3.536,3.536,0,1,1,-3.536,0A3.536,3.536,0,1,1,3.536,0" fill="black" stroke="red" stroke-width="0" opacity="0.5"/><path aria-label="Spearman correlation: −0.0698831795634; Pearson correlation: −0.0785890345492; species (common name): carp; has_sars2: no" role="graphics-symbol" aria-roledescription="circle" transform="translate(93.01168204365875,107.85890345491768)" d="M3.536,0A3.536,3.536,0,1,1,-3.536,0A3.536,3.536,0,1,1,3.536,0" fill="black" stroke="red" stroke-width="0" opacity="0.5"/><path aria-label="Spearman correlation: −0.0788668286044; Pearson correlation: −0.0709258309796; species (common name): catfish; has_sars2: no" role="graphics-symbol" aria-roledescription="circle" transform="translate(92.11331713956302,107.0925830979608)" d="M3.536,0A3.536,3.536,0,1,1,-3.536,0A3.536,3.536,0,1,1,3.536,0" fill="black" stroke="red" stroke-width="0" opacity="0.5"/><path aria-label="Spearman correlation: 0.184418999172; Pearson correlation: 0.106591730374; species (common name): chicken; has_sars2: no" role="graphics-symbol" aria-roledescription="circle" transform="translate(118.441899917229,89.3408269626303)" d="M3.536,0A3.536,3.536,0,1,1,-3.536,0A3.536,3.536,0,1,1,3.536,0" fill="black" stroke="red" stroke-width="0" opacity="0.5"/><path aria-label="Spearman correlation: −0.00743253578063; Pearson correlation: −0.0120902889392; species (common name): cow; has_sars2: no" role="graphics-symbol" aria-roledescription="circle" transform="translate(99.25674642193714,101.20902889392357)" d="M3.536,0A3.536,3.536,0,1,1,-3.536,0A3.536,3.536,0,1,1,3.536,0" fill="black" stroke="red" stroke-width="0" opacity="0.5"/><path aria-label="Spearman correlation: 0.268278558039; Pearson correlation: 0.212053946648; species (common name): dog; has_sars2: no" role="graphics-symbol" aria-roledescription="circle" transform="translate(126.82785580389955,78.79460533516558)" d="M3.536,0A3.536,3.536,0,1,1,-3.536,0A3.536,3.536,0,1,1,3.536,0" fill="black" stroke="red" stroke-width="0" opacity="0.5"/><path aria-label="Spearman correlation: −0.0219119929997; Pearson correlation: −0.0714324909086; species (common name): fennec fox; has_sars2: no" role="graphics-symbol" aria-roledescription="circle" transform="translate(97.80880070003045,107.14324909086028)" d="M3.536,0A3.536,3.536,0,1,1,-3.536,0A3.536,3.536,0,1,1,3.536,0" fill="black" stroke="red" stroke-width="0" opacity="0.5"/><path aria-label="Spearman correlation: 0.252324714691; Pearson correlation: 0.326462903695; species (common name): goat; has_sars2: no" role="graphics-symbol" aria-roledescription="circle" transform="translate(125.23247146909131,67.35370963054856)" d="M3.536,0A3.536,3.536,0,1,1,-3.536,0A3.536,3.536,0,1,1,3.536,0" fill="black" stroke="red" stroke-width="0" opacity="0.5"/><path aria-label="Spearman correlation: 0.0368323695025; Pearson correlation: −0.0724713114858; species (common name): gray fox; has_sars2: no" role="graphics-symbol" aria-roledescription="circle" transform="translate(103.68323695024671,107.2471311485811)" d="M3.536,0A3.536,3.536,0,1,1,-3.536,0A3.536,3.536,0,1,1,3.536,0" fill="black" stroke="red" stroke-width="0" opacity="0.5"/><path aria-label="Spearman correlation: 0.101254128354; Pearson correlation: 0.0149763216135; species (common name): hoary bamboo rat; has_sars2: no" role="graphics-symbol" aria-roledescription="circle" transform="translate(110.12541283540678,98.50236783865434)" d="M3.536,0A3.536,3.536,0,1,1,-3.536,0A3.536,3.536,0,1,1,3.536,0" fill="black" stroke="red" stroke-width="0" opacity="0.5"/><path aria-label="Spearman correlation: −0.064106382204; Pearson correlation: −0.129667816062; species (common name): hog badger; has_sars2: no" role="graphics-symbol" aria-roledescription="circle" transform="translate(93.58936177959811,112.96678160620029)" d="M3.536,0A3.536,3.536,0,1,1,-3.536,0A3.536,3.536,0,1,1,3.536,0" fill="black" stroke="red" stroke-width="0" opacity="0.5"/><path aria-label="Spearman correlation: 0.167822094922; Pearson correlation: 0.214116157811; species (common name): human; has_sars2: no" role="graphics-symbol" aria-roledescription="circle" transform="translate(116.78220949217474,78.5883842188956)" d="M3.536,0A3.536,3.536,0,1,1,-3.536,0A3.536,3.536,0,1,1,3.536,0" fill="black" stroke="red" stroke-width="0" opacity="0.5"/><path aria-label="Spearman correlation: 0.175247773007; Pearson correlation: 0.12630471198; species (common name): leaf deer; has_sars2: no" role="graphics-symbol" aria-roledescription="circle" transform="translate(117.5247773007007,87.36952880203575)" d="M3.536,0A3.536,3.536,0,1,1,-3.536,0A3.536,3.536,0,1,1,3.536,0" fill="black" stroke="red" stroke-width="0" opacity="0.5"/><path aria-label="Spearman correlation: −0.0325361929001; Pearson correlation: −0.00450174430968; species (common name): long-eared hedgehog; has_sars2: no" role="graphics-symbol" aria-roledescription="circle" transform="translate(96.74638070998654,100.45017443096805)" d="M3.536,0A3.536,3.536,0,1,1,-3.536,0A3.536,3.536,0,1,1,3.536,0" fill="black" stroke="red" stroke-width="0" opacity="0.5"/><path aria-label="Spearman correlation: −0.0361109644635; Pearson correlation: −0.132776329446; species (common name): masked palm civet; has_sars2: no" role="graphics-symbol" aria-roledescription="circle" transform="translate(96.38890355365018,113.27763294459837)" d="M3.536,0A3.536,3.536,0,1,1,-3.536,0A3.536,3.536,0,1,1,3.536,0" fill="black" stroke="red" stroke-width="0" opacity="0.5"/><path aria-label="Spearman correlation: −0.0148368586593; Pearson correlation: 0.0176110945669; species (common name): pig; has_sars2: no" role="graphics-symbol" aria-roledescription="circle" transform="translate(98.51631413406781,98.23889054330736)" d="M3.536,0A3.536,3.536,0,1,1,-3.536,0A3.536,3.536,0,1,1,3.536,0" fill="black" stroke="red" stroke-width="0" opacity="0.5"/><path aria-label="Spearman correlation: −0.126168699303; Pearson correlation: −0.0687377552974; species (common name): pigeon; has_sars2: no" role="graphics-symbol" aria-roledescription="circle" transform="translate(87.38313006973324,106.8737755297426)" d="M3.536,0A3.536,3.536,0,1,1,-3.536,0A3.536,3.536,0,1,1,3.536,0" fill="black" stroke="red" stroke-width="0" opacity="0.5"/><path aria-label="Spearman correlation: 0.041945346115; Pearson correlation: 0.0454432933975; species (common name): quail; has_sars2: no" role="graphics-symbol" aria-roledescription="circle" transform="translate(104.19453461150007,95.45567066025144)" d="M3.536,0A3.536,3.536,0,1,1,-3.536,0A3.536,3.536,0,1,1,3.536,0" fill="black" stroke="red" stroke-width="0" opacity="0.5"/><path aria-label="Spearman correlation: 0.122667178849; Pearson correlation: 0.0453134834841; species (common name): rabbit; has_sars2: no" role="graphics-symbol" aria-roledescription="circle" transform="translate(112.26671788487516,95.46865165158587)" d="M3.536,0A3.536,3.536,0,1,1,-3.536,0A3.536,3.536,0,1,1,3.536,0" fill="black" stroke="red" stroke-width="0" opacity="0.5"/><path aria-label="Spearman correlation: −0.0103184060784; Pearson correlation: 0.00300056334847; species (common name): raccoon dog; has_sars2: no" role="graphics-symbol" aria-roledescription="circle" transform="translate(98.9681593921577,99.69994366515316)" d="M3.536,0A3.536,3.536,0,1,1,-3.536,0A3.536,3.536,0,1,1,3.536,0" fill="black" stroke="red" stroke-width="0" opacity="0.5"/><path aria-label="Spearman correlation: −0.0410935611869; Pearson correlation: −0.0766144525854; species (common name): sand cat; has_sars2: no" role="graphics-symbol" aria-roledescription="circle" transform="translate(95.8906438813072,107.66144525854138)" d="M3.536,0A3.536,3.536,0,1,1,-3.536,0A3.536,3.536,0,1,1,3.536,0" fill="black" stroke="red" stroke-width="0" opacity="0.5"/><path aria-label="Spearman correlation: 0.035139103513; Pearson correlation: 0.00599146818203; species (common name): sheep; has_sars2: no" role="graphics-symbol" aria-roledescription="circle" transform="translate(103.51391035130268,99.40085318179676)" d="M3.536,0A3.536,3.536,0,1,1,-3.536,0A3.536,3.536,0,1,1,3.536,0" fill="black" stroke="red" stroke-width="0" opacity="0.5"/><path aria-label="Spearman correlation: 0.203689315337; Pearson correlation: 0.356511195485; species (common name): snakehead fish; has_sars2: no" role="graphics-symbol" aria-roledescription="circle" transform="translate(120.36893153366623,64.34888045145146)" d="M3.536,0A3.536,3.536,0,1,1,-3.536,0A3.536,3.536,0,1,1,3.536,0" fill="black" stroke="red" stroke-width="0" opacity="0.5"/><path aria-label="Spearman correlation: 0.0112794494907; Pearson correlation: 0.0289144273682; species (common name): spot-billed duck; has_sars2: no" role="graphics-symbol" aria-roledescription="circle" transform="translate(101.12794494906598,97.10855726318471)" d="M3.536,0A3.536,3.536,0,1,1,-3.536,0A3.536,3.536,0,1,1,3.536,0" fill="black" stroke="red" stroke-width="0" opacity="0.5"/><path aria-label="Spearman correlation: 0.0696936657025; Pearson correlation: 0.132000518252; species (common name): spotted dove; has_sars2: no" role="graphics-symbol" aria-roledescription="circle" transform="translate(106.96936657025313,86.79994817483787)" d="M3.536,0A3.536,3.536,0,1,1,-3.536,0A3.536,3.536,0,1,1,3.536,0" fill="black" stroke="red" stroke-width="0" opacity="0.5"/><path aria-label="Spearman correlation: 0.235198438517; Pearson correlation: 0.143057329775; species (common name): swamp eel; has_sars2: no" role="graphics-symbol" aria-roledescription="circle" transform="translate(123.51984385165909,85.6942670225326)" d="M3.536,0A3.536,3.536,0,1,1,-3.536,0A3.536,3.536,0,1,1,3.536,0" fill="black" stroke="red" stroke-width="0" opacity="0.5"/><path aria-label="Spearman correlation: 0.132211571253; Pearson correlation: 0.171959655902; species (common name): yellow croaker (fish); has_sars2: no" role="graphics-symbol" aria-roledescription="circle" transform="translate(113.22115712526958,82.80403440984907)" d="M3.536,0A3.536,3.536,0,1,1,-3.536,0A3.536,3.536,0,1,1,3.536,0" fill="black" stroke="red" stroke-width="0" opacity="0.5"/></g></g><path class="foreground" aria-hidden="true" d="" display="none"/></g></g></g></svg>