<svg xmlns="http://www.w3.org/2000/svg" xmlns:xlink="http://www.w3.org/1999/xlink" version="1.1" class="marks" width="253" height="247" viewBox="0 0 253 247"><rect width="253" height="247" fill="white"/><g fill="none" stroke-miterlimit="10" transform="translate(47,10)"><g class="mark-group role-frame root" role="graphics-object" aria-roledescription="group mark container"><g transform="translate(0,0)"><path class="background" aria-hidden="true" d="M0.5,0.5h200v200h-200Z" stroke="#ddd"/><g><g class="mark-group role-axis" role="graphics-symbol" aria-roledescription="axis" aria-label="X-axis titled 'Spearman correlation' for a linear scale with values from −1.0 to 1.0"><g transform="translate(0.5,200.5)"><path class="background" aria-hidden="true" d="M0,0h0v0h0Z" pointer-events="none"/><g><g class="mark-rule role-axis-tick" pointer-events="none"><line transform="translate(0,0)" x2="0" y2="5" stroke="#888" stroke-width="1" opacity="1"/><line transform="translate(50,0)" x2="0" y2="5" stroke="#888" stroke-width="1" opacity="1"/><line transform="translate(100,0)" x2="0" y2="5" stroke="#888" stroke-width="1" opacity="1"/><line transform="translate(150,0)" x2="0" y2="5" stroke="#888" stroke-width="1" opacity="1"/><line transform="translate(200,0)" x2="0" y2="5" stroke="#888" stroke-width="1" opacity="1"/></g><g class="mark-text role-axis-label" pointer-events="none"><text text-anchor="start" transform="translate(0,15)" font-family="sans-serif" font-size="10px" fill="#000" opacity="1">−1.0</text><text text-anchor="middle" transform="translate(50,15)" font-family="sans-serif" font-size="10px" fill="#000" opacity="1">−0.5</text><text text-anchor="middle" transform="translate(100,15)" font-family="sans-serif" font-size="10px" fill="#000" opacity="1">0.0</text><text text-anchor="middle" transform="translate(150,15)" font-family="sans-serif" font-size="10px" fill="#000" opacity="1">0.5</text><text text-anchor="end" transform="translate(200,15)" font-family="sans-serif" font-size="10px" fill="#000" opacity="1">1.0</text></g><g class="mark-rule role-axis-domain" pointer-events="none"><line transform="translate(0,0)" x2="200" y2="0" stroke="#888" stroke-width="1" opacity="1"/></g><g class="mark-text role-axis-title" pointer-events="none"><text text-anchor="middle" transform="translate(100,30)" font-family="sans-serif" font-size="11px" font-weight="bold" fill="#000" opacity="1">Spearman correlation</text></g></g><path class="foreground" aria-hidden="true" d="" pointer-events="none" display="none"/></g></g><g class="mark-group role-axis" role="graphics-symbol" aria-roledescription="axis" aria-label="Y-axis titled 'Pearson correlation' for a linear scale with values from −1.0 to 1.0"><g transform="translate(0.5,0.5)"><path class="background" aria-hidden="true" d="M0,0h0v0h0Z" pointer-events="none"/><g><g class="mark-rule role-axis-tick" pointer-events="none"><line transform="translate(0,200)" x2="-5" y2="0" stroke="#888" stroke-width="1" opacity="1"/><line transform="translate(0,150)" x2="-5" y2="0" stroke="#888" stroke-width="1" opacity="1"/><line transform="translate(0,100)" x2="-5" y2="0" stroke="#888" stroke-width="1" opacity="1"/><line transform="translate(0,50)" x2="-5" y2="0" stroke="#888" stroke-width="1" opacity="1"/><line transform="translate(0,0)" x2="-5" y2="0" stroke="#888" stroke-width="1" opacity="1"/></g><g class="mark-text role-axis-label" pointer-events="none"><text text-anchor="end" transform="translate(-7,203)" font-family="sans-serif" font-size="10px" fill="#000" opacity="1">−1.0</text><text text-anchor="end" transform="translate(-7,153)" font-family="sans-serif" font-size="10px" fill="#000" opacity="1">−0.5</text><text text-anchor="end" transform="translate(-7,103)" font-family="sans-serif" font-size="10px" fill="#000" opacity="1">0.0</text><text text-anchor="end" transform="translate(-7,53)" font-family="sans-serif" font-size="10px" fill="#000" opacity="1">0.5</text><text text-anchor="end" transform="translate(-7,3)" font-family="sans-serif" font-size="10px" fill="#000" opacity="1">1.0</text></g><g class="mark-rule role-axis-domain" pointer-events="none"><line transform="translate(0,200)" x2="0" y2="-200" stroke="#888" stroke-width="1" opacity="1"/></g><g class="mark-text role-axis-title" pointer-events="none"><text text-anchor="middle" transform="translate(-30.7412109375,100) rotate(-90) translate(0,-2)" font-family="sans-serif" font-size="11px" font-weight="bold" fill="#000" opacity="1">Pearson correlation</text></g></g><path class="foreground" aria-hidden="true" d="" pointer-events="none" display="none"/></g></g><g class="mark-symbol role-mark marks" role="graphics-object" aria-roledescription="symbol mark container"><path aria-label="Spearman correlation: 0.0857142857143; Pearson correlation: 0.142881361604; species (common name): Amur hedgehog; has_sars2: yes" role="graphics-symbol" aria-roledescription="circle" transform="translate(108.57142857142857,85.71186383958764)" d="M3.536,0A3.536,3.536,0,1,1,-3.536,0A3.536,3.536,0,1,1,3.536,0" fill="black" stroke="red" stroke-width="0" opacity="0.5"/><path aria-label="Spearman correlation: 0.492805380305; Pearson correlation: 0.633605956525; species (common name): Chinese cobra; has_sars2: yes" role="graphics-symbol" aria-roledescription="circle" transform="translate(149.2805380304581,36.639404347509696)" d="M3.536,0A3.536,3.536,0,1,1,-3.536,0A3.536,3.536,0,1,1,3.536,0" fill="black" stroke="red" stroke-width="0" opacity="0.5"/><path aria-label="Spearman correlation: −0.0289885517826; Pearson correlation: −0.0559996922703; species (common name): Chinese salamander; has_sars2: yes" role="graphics-symbol" aria-roledescription="circle" transform="translate(97.10114482173776,105.599969227029)" d="M3.536,0A3.536,3.536,0,1,1,-3.536,0A3.536,3.536,0,1,1,3.536,0" fill="black" stroke="red" stroke-width="0" opacity="0.5"/><path aria-label="Spearman correlation: 0.2; Pearson correlation: 0.278802492108; species (common name): European hedgehog; has_sars2: yes" role="graphics-symbol" aria-roledescription="circle" transform="translate(120,72.11975078921581)" d="M3.536,0A3.536,3.536,0,1,1,-3.536,0A3.536,3.536,0,1,1,3.536,0" fill="black" stroke="red" stroke-width="0" opacity="0.5"/><path aria-label="Spearman correlation: −0.507092552837; Pearson correlation: −0.447907203264; species (common name): Himalayan marmot; has_sars2: yes" role="graphics-symbol" aria-roledescription="circle" transform="translate(49.290744716289005,144.7907203263506)" d="M3.536,0A3.536,3.536,0,1,1,-3.536,0A3.536,3.536,0,1,1,3.536,0" fill="black" stroke="red" stroke-width="0" opacity="0.5"/><path aria-label="Spearman correlation: −0.507092552837; Pearson correlation: −0.581482517236; species (common name): Largemouth bass; has_sars2: yes" role="graphics-symbol" aria-roledescription="circle" transform="translate(49.290744716289005,158.14825172359886)" d="M3.536,0A3.536,3.536,0,1,1,-3.536,0A3.536,3.536,0,1,1,3.536,0" fill="black" stroke="red" stroke-width="0" opacity="0.5"/><path aria-label="Spearman correlation: −0.485714285714; Pearson correlation: −0.44435792035; species (common name): Malayan porcupine; has_sars2: yes" role="graphics-symbol" aria-roledescription="circle" transform="translate(51.42857142857142,144.43579203498524)" d="M3.536,0A3.536,3.536,0,1,1,-3.536,0A3.536,3.536,0,1,1,3.536,0" fill="black" stroke="red" stroke-width="0" opacity="0.5"/><path aria-label="Spearman correlation: −0.455382555539; Pearson correlation: −0.267662445889; species (common name): Mayalan field rat; has_sars2: yes" role="graphics-symbol" aria-roledescription="circle" transform="translate(54.46174444608128,126.76624458890096)" d="M3.536,0A3.536,3.536,0,1,1,-3.536,0A3.536,3.536,0,1,1,3.536,0" fill="black" stroke="red" stroke-width="0" opacity="0.5"/><path aria-label="Spearman correlation: −0.314285714286; Pearson correlation: −0.127788229192; species (common name): Oriental rat snake; has_sars2: yes" role="graphics-symbol" aria-roledescription="circle" transform="translate(68.57142857142857,112.77882291921722)" d="M3.536,0A3.536,3.536,0,1,1,-3.536,0A3.536,3.536,0,1,1,3.536,0" fill="black" stroke="red" stroke-width="0" opacity="0.5"/><path aria-label="Spearman correlation: 0.392792202425; Pearson correlation: 0.402811411085; species (common name): Siberian weasel; has_sars2: yes" role="graphics-symbol" aria-roledescription="circle" transform="translate(139.27922024247863,59.71885889147617)" d="M3.536,0A3.536,3.536,0,1,1,-3.536,0A3.536,3.536,0,1,1,3.536,0" fill="black" stroke="red" stroke-width="0" opacity="0.5"/><path aria-label="Spearman correlation: −0.654653670708; Pearson correlation: −0.783892977482; species (common name): bat-eared fox; has_sars2: yes" role="graphics-symbol" aria-roledescription="circle" transform="translate(34.53463292920228,178.3892977482061)" d="M3.536,0A3.536,3.536,0,1,1,-3.536,0A3.536,3.536,0,1,1,3.536,0" fill="black" stroke="red" stroke-width="0" opacity="0.5"/><path aria-label="Spearman correlation: 0.77754191435; Pearson correlation: 0.619408051421; species (common name): brown bush hen; has_sars2: yes" role="graphics-symbol" aria-roledescription="circle" transform="translate(177.75419143502353,38.05919485790103)" d="M3.536,0A3.536,3.536,0,1,1,-3.536,0A3.536,3.536,0,1,1,3.536,0" fill="black" stroke="red" stroke-width="0" opacity="0.5"/><path aria-label="Spearman correlation: 0.15179418518; Pearson correlation: 0.0282227834454; species (common name): brown rat; has_sars2: yes" role="graphics-symbol" aria-roledescription="circle" transform="translate(115.1794185179729,97.17772165546184)" d="M3.536,0A3.536,3.536,0,1,1,-3.536,0A3.536,3.536,0,1,1,3.536,0" fill="black" stroke="red" stroke-width="0" opacity="0.5"/><path aria-label="Spearman correlation: −0.304255531702; Pearson correlation: −0.338918764448; species (common name): carp; has_sars2: yes" role="graphics-symbol" aria-roledescription="circle" transform="translate(69.57444682977341,133.8918764447819)" d="M3.536,0A3.536,3.536,0,1,1,-3.536,0A3.536,3.536,0,1,1,3.536,0" fill="black" stroke="red" stroke-width="0" opacity="0.5"/><path aria-label="Spearman correlation: 0.0857142857143; Pearson correlation: −0.0774066951211; species (common name): chicken; has_sars2: yes" role="graphics-symbol" aria-roledescription="circle" transform="translate(108.57142857142857,107.74066951211165)" d="M3.536,0A3.536,3.536,0,1,1,-3.536,0A3.536,3.536,0,1,1,3.536,0" fill="black" stroke="red" stroke-width="0" opacity="0.5"/><path aria-label="Spearman correlation: −0.0676123403783; Pearson correlation: −0.0809861912486; species (common name): cow; has_sars2: yes" role="graphics-symbol" aria-roledescription="circle" transform="translate(93.23876596217187,108.09861912485736)" d="M3.536,0A3.536,3.536,0,1,1,-3.536,0A3.536,3.536,0,1,1,3.536,0" fill="black" stroke="red" stroke-width="0" opacity="0.5"/><path aria-label="Spearman correlation: −0.314285714286; Pearson correlation: −0.366953181653; species (common name): dog; has_sars2: yes" role="graphics-symbol" aria-roledescription="circle" transform="translate(68.57142857142857,136.69531816532253)" d="M3.536,0A3.536,3.536,0,1,1,-3.536,0A3.536,3.536,0,1,1,3.536,0" fill="black" stroke="red" stroke-width="0" opacity="0.5"/><path aria-label="Spearman correlation: −0.333947207395; Pearson correlation: −0.560753500904; species (common name): fennec fox; has_sars2: yes" role="graphics-symbol" aria-roledescription="circle" transform="translate(66.60527926045961,156.07535009043124)" d="M3.536,0A3.536,3.536,0,1,1,-3.536,0A3.536,3.536,0,1,1,3.536,0" fill="black" stroke="red" stroke-width="0" opacity="0.5"/><path aria-label="Spearman correlation: 0.927633657044; Pearson correlation: 0.879368072867; species (common name): goat; has_sars2: yes" role="graphics-symbol" aria-roledescription="circle" transform="translate(192.76336570439176,12.063192713349302)" d="M3.536,0A3.536,3.536,0,1,1,-3.536,0A3.536,3.536,0,1,1,3.536,0" fill="black" stroke="red" stroke-width="0" opacity="0.5"/><path aria-label="Spearman correlation: −0.845154254729; Pearson correlation: −0.863699496342; species (common name): gray fox; has_sars2: yes" role="graphics-symbol" aria-roledescription="circle" transform="translate(15.484574527148343,186.3699496341528)" d="M3.536,0A3.536,3.536,0,1,1,-3.536,0A3.536,3.536,0,1,1,3.536,0" fill="black" stroke="red" stroke-width="0" opacity="0.5"/><path aria-label="Spearman correlation: 0.0857142857143; Pearson correlation: −0.333214924164; species (common name): hoary bamboo rat; has_sars2: yes" role="graphics-symbol" aria-roledescription="circle" transform="translate(108.57142857142857,133.32149241639243)" d="M3.536,0A3.536,3.536,0,1,1,-3.536,0A3.536,3.536,0,1,1,3.536,0" fill="black" stroke="red" stroke-width="0" opacity="0.5"/><path aria-label="Spearman correlation: −0.811679449913; Pearson correlation: −0.858754666387; species (common name): hog badger; has_sars2: yes" role="graphics-symbol" aria-roledescription="circle" transform="translate(18.83205500865721,185.87546663873272)" d="M3.536,0A3.536,3.536,0,1,1,-3.536,0A3.536,3.536,0,1,1,3.536,0" fill="black" stroke="red" stroke-width="0" opacity="0.5"/><path aria-label="Spearman correlation: 0.885714285714; Pearson correlation: 0.864290728296; species (common name): human; has_sars2: yes" role="graphics-symbol" aria-roledescription="circle" transform="translate(188.57142857142856,13.570927170396274)" d="M3.536,0A3.536,3.536,0,1,1,-3.536,0A3.536,3.536,0,1,1,3.536,0" fill="black" stroke="red" stroke-width="0" opacity="0.5"/><path aria-label="Spearman correlation: −0.347862621391; Pearson correlation: −0.25716664265; species (common name): leaf deer; has_sars2: yes" role="graphics-symbol" aria-roledescription="circle" transform="translate(65.21373786085309,125.7166642650422)" d="M3.536,0A3.536,3.536,0,1,1,-3.536,0A3.536,3.536,0,1,1,3.536,0" fill="black" stroke="red" stroke-width="0" opacity="0.5"/><path aria-label="Spearman correlation: 0.392792202425; Pearson correlation: 0.402811411085; species (common name): long-eared hedgehog; has_sars2: yes" role="graphics-symbol" aria-roledescription="circle" transform="translate(139.27922024247863,59.71885889147619)" d="M3.536,0A3.536,3.536,0,1,1,-3.536,0A3.536,3.536,0,1,1,3.536,0" fill="black" stroke="red" stroke-width="0" opacity="0.5"/><path aria-label="Spearman correlation: −0.845154254729; Pearson correlation: −0.898316516027; species (common name): masked palm civet; has_sars2: yes" role="graphics-symbol" aria-roledescription="circle" transform="translate(15.484574527148343,189.83165160265324)" d="M3.536,0A3.536,3.536,0,1,1,-3.536,0A3.536,3.536,0,1,1,3.536,0" fill="black" stroke="red" stroke-width="0" opacity="0.5"/><path aria-label="Spearman correlation: 0.314285714286; Pearson correlation: 0.356991396895; species (common name): pig; has_sars2: yes" role="graphics-symbol" aria-roledescription="circle" transform="translate(131.42857142857142,64.30086031048454)" d="M3.536,0A3.536,3.536,0,1,1,-3.536,0A3.536,3.536,0,1,1,3.536,0" fill="black" stroke="red" stroke-width="0" opacity="0.5"/><path aria-label="Spearman correlation: 0.371428571429; Pearson correlation: 0.517234893963; species (common name): pigeon; has_sars2: yes" role="graphics-symbol" aria-roledescription="circle" transform="translate(137.14285714285714,48.27651060367684)" d="M3.536,0A3.536,3.536,0,1,1,-3.536,0A3.536,3.536,0,1,1,3.536,0" fill="black" stroke="red" stroke-width="0" opacity="0.5"/><path aria-label="Spearman correlation: 0.314285714286; Pearson correlation: 0.105785138196; species (common name): quail; has_sars2: yes" role="graphics-symbol" aria-roledescription="circle" transform="translate(131.42857142857142,89.42148618043346)" d="M3.536,0A3.536,3.536,0,1,1,-3.536,0A3.536,3.536,0,1,1,3.536,0" fill="black" stroke="red" stroke-width="0" opacity="0.5"/><path aria-label="Spearman correlation: 0.2; Pearson correlation: −0.282202756196; species (common name): rabbit; has_sars2: yes" role="graphics-symbol" aria-roledescription="circle" transform="translate(120,128.22027561958302)" d="M3.536,0A3.536,3.536,0,1,1,-3.536,0A3.536,3.536,0,1,1,3.536,0" fill="black" stroke="red" stroke-width="0" opacity="0.5"/><path aria-label="Spearman correlation: −0.314285714286; Pearson correlation: −0.687114775076; species (common name): raccoon dog; has_sars2: yes" role="graphics-symbol" aria-roledescription="circle" transform="translate(68.57142857142857,168.71147750762472)" d="M3.536,0A3.536,3.536,0,1,1,-3.536,0A3.536,3.536,0,1,1,3.536,0" fill="black" stroke="red" stroke-width="0" opacity="0.5"/><path aria-label="Spearman correlation: −0.0676123403783; Pearson correlation: −0.185248238937; species (common name): sand cat; has_sars2: yes" role="graphics-symbol" aria-roledescription="circle" transform="translate(93.23876596217187,118.52482389370735)" d="M3.536,0A3.536,3.536,0,1,1,-3.536,0A3.536,3.536,0,1,1,3.536,0" fill="black" stroke="red" stroke-width="0" opacity="0.5"/><path aria-label="Spearman correlation: −0.0303588370359; Pearson correlation: −0.0740190148626; species (common name): sheep; has_sars2: yes" role="graphics-symbol" aria-roledescription="circle" transform="translate(96.96411629640542,107.40190148626341)" d="M3.536,0A3.536,3.536,0,1,1,-3.536,0A3.536,3.536,0,1,1,3.536,0" fill="black" stroke="red" stroke-width="0" opacity="0.5"/><path aria-label="Spearman correlation: 0.392792202425; Pearson correlation: 0.402811411085; species (common name): snakehead fish; has_sars2: yes" role="graphics-symbol" aria-roledescription="circle" transform="translate(139.27922024247863,59.71885889147617)" d="M3.536,0A3.536,3.536,0,1,1,-3.536,0A3.536,3.536,0,1,1,3.536,0" fill="black" stroke="red" stroke-width="0" opacity="0.5"/><path aria-label="Spearman correlation: −0.0857142857143; Pearson correlation: −0.381874988432; species (common name): spot-billed duck; has_sars2: yes" role="graphics-symbol" aria-roledescription="circle" transform="translate(91.42857142857143,138.18749884315295)" d="M3.536,0A3.536,3.536,0,1,1,-3.536,0A3.536,3.536,0,1,1,3.536,0" fill="black" stroke="red" stroke-width="0" opacity="0.5"/><path aria-label="Spearman correlation: 0.885714285714; Pearson correlation: 0.783478318822; species (common name): spotted dove; has_sars2: yes" role="graphics-symbol" aria-roledescription="circle" transform="translate(188.57142857142856,21.652168117785344)" d="M3.536,0A3.536,3.536,0,1,1,-3.536,0A3.536,3.536,0,1,1,3.536,0" fill="black" stroke="red" stroke-width="0" opacity="0.5"/><path aria-label="Spearman correlation: −0.304255531702; Pearson correlation: −0.338918764448; species (common name): swamp eel; has_sars2: yes" role="graphics-symbol" aria-roledescription="circle" transform="translate(69.57444682977341,133.8918764447819)" d="M3.536,0A3.536,3.536,0,1,1,-3.536,0A3.536,3.536,0,1,1,3.536,0" fill="black" stroke="red" stroke-width="0" opacity="0.5"/><path aria-label="Spearman correlation: 0.169030850946; Pearson correlation: 0.106324770593; species (common name): yellow croaker (fish); has_sars2: yes" role="graphics-symbol" aria-roledescription="circle" transform="translate(116.90308509457033,89.36752294072295)" d="M3.536,0A3.536,3.536,0,1,1,-3.536,0A3.536,3.536,0,1,1,3.536,0" fill="black" stroke="red" stroke-width="0" opacity="0.5"/></g></g><path class="foreground" aria-hidden="true" d="" display="none"/></g></g></g></svg>