<svg xmlns="http://www.w3.org/2000/svg" xmlns:xlink="http://www.w3.org/1999/xlink" version="1.1" class="marks" width="253" height="247" viewBox="0 0 253 247"><rect width="253" height="247" fill="white"/><g fill="none" stroke-miterlimit="10" transform="translate(47,10)"><g class="mark-group role-frame root" role="graphics-object" aria-roledescription="group mark container"><g transform="translate(0,0)"><path class="background" aria-hidden="true" d="M0.5,0.5h200v200h-200Z" stroke="#ddd"/><g><g class="mark-group role-axis" role="graphics-symbol" aria-roledescription="axis" aria-label="X-axis titled 'Spearman correlation' for a linear scale with values from −1.0 to 1.0"><g transform="translate(0.5,200.5)"><path class="background" aria-hidden="true" d="M0,0h0v0h0Z" pointer-events="none"/><g><g class="mark-rule role-axis-tick" pointer-events="none"><line transform="translate(0,0)" x2="0" y2="5" stroke="#888" stroke-width="1" opacity="1"/><line transform="translate(50,0)" x2="0" y2="5" stroke="#888" stroke-width="1" opacity="1"/><line transform="translate(100,0)" x2="0" y2="5" stroke="#888" stroke-width="1" opacity="1"/><line transform="translate(150,0)" x2="0" y2="5" stroke="#888" stroke-width="1" opacity="1"/><line transform="translate(200,0)" x2="0" y2="5" stroke="#888" stroke-width="1" opacity="1"/></g><g class="mark-text role-axis-label" pointer-events="none"><text text-anchor="start" transform="translate(0,15)" font-family="sans-serif" font-size="10px" fill="#000" opacity="1">−1.0</text><text text-anchor="middle" transform="translate(50,15)" font-family="sans-serif" font-size="10px" fill="#000" opacity="1">−0.5</text><text text-anchor="middle" transform="translate(100,15)" font-family="sans-serif" font-size="10px" fill="#000" opacity="1">0.0</text><text text-anchor="middle" transform="translate(150,15)" font-family="sans-serif" font-size="10px" fill="#000" opacity="1">0.5</text><text text-anchor="end" transform="translate(200,15)" font-family="sans-serif" font-size="10px" fill="#000" opacity="1">1.0</text></g><g class="mark-rule role-axis-domain" pointer-events="none"><line transform="translate(0,0)" x2="200" y2="0" stroke="#888" stroke-width="1" opacity="1"/></g><g class="mark-text role-axis-title" pointer-events="none"><text text-anchor="middle" transform="translate(100,30)" font-family="sans-serif" font-size="11px" font-weight="bold" fill="#000" opacity="1">Spearman correlation</text></g></g><path class="foreground" aria-hidden="true" d="" pointer-events="none" display="none"/></g></g><g class="mark-group role-axis" role="graphics-symbol" aria-roledescription="axis" aria-label="Y-axis titled 'Pearson correlation' for a linear scale with values from −1.0 to 1.0"><g transform="translate(0.5,0.5)"><path class="background" aria-hidden="true" d="M0,0h0v0h0Z" pointer-events="none"/><g><g class="mark-rule role-axis-tick" pointer-events="none"><line transform="translate(0,200)" x2="-5" y2="0" stroke="#888" stroke-width="1" opacity="1"/><line transform="translate(0,150)" x2="-5" y2="0" stroke="#888" stroke-width="1" opacity="1"/><line transform="translate(0,100)" x2="-5" y2="0" stroke="#888" stroke-width="1" opacity="1"/><line transform="translate(0,50)" x2="-5" y2="0" stroke="#888" stroke-width="1" opacity="1"/><line transform="translate(0,0)" x2="-5" y2="0" stroke="#888" stroke-width="1" opacity="1"/></g><g class="mark-text role-axis-label" pointer-events="none"><text text-anchor="end" transform="translate(-7,203)" font-family="sans-serif" font-size="10px" fill="#000" opacity="1">−1.0</text><text text-anchor="end" transform="translate(-7,153)" font-family="sans-serif" font-size="10px" fill="#000" opacity="1">−0.5</text><text text-anchor="end" transform="translate(-7,103)" font-family="sans-serif" font-size="10px" fill="#000" opacity="1">0.0</text><text text-anchor="end" transform="translate(-7,53)" font-family="sans-serif" font-size="10px" fill="#000" opacity="1">0.5</text><text text-anchor="end" transform="translate(-7,3)" font-family="sans-serif" font-size="10px" fill="#000" opacity="1">1.0</text></g><g class="mark-rule role-axis-domain" pointer-events="none"><line transform="translate(0,200)" x2="0" y2="-200" stroke="#888" stroke-width="1" opacity="1"/></g><g class="mark-text role-axis-title" pointer-events="none"><text text-anchor="middle" transform="translate(-30.7412109375,100) rotate(-90) translate(0,-2)" font-family="sans-serif" font-size="11px" font-weight="bold" fill="#000" opacity="1">Pearson correlation</text></g></g><path class="foreground" aria-hidden="true" d="" pointer-events="none" display="none"/></g></g><g class="mark-symbol role-mark marks" role="graphics-object" aria-roledescription="symbol mark container"><path aria-label="Spearman correlation: −0.458672197377; Pearson correlation: −0.45733282507; species (common name): Amur hedgehog; has_sars2: yes" role="graphics-symbol" aria-roledescription="circle" transform="translate(54.132780262348625,145.73328250701198)" d="M3.536,0A3.536,3.536,0,1,1,-3.536,0A3.536,3.536,0,1,1,3.536,0" fill="black" stroke="red" stroke-width="0" opacity="0.5"/><path aria-label="Spearman correlation: −0.10393557399; Pearson correlation: −0.155884351532; species (common name): Chinese cobra; has_sars2: yes" role="graphics-symbol" aria-roledescription="circle" transform="translate(89.60644260097826,115.58843515316441)" d="M3.536,0A3.536,3.536,0,1,1,-3.536,0A3.536,3.536,0,1,1,3.536,0" fill="black" stroke="red" stroke-width="0" opacity="0.5"/><path aria-label="Spearman correlation: −0.271826810488; Pearson correlation: −0.287521559852; species (common name): Chinese salamander; has_sars2: yes" role="graphics-symbol" aria-roledescription="circle" transform="translate(72.8173189512479,128.7521559852183)" d="M3.536,0A3.536,3.536,0,1,1,-3.536,0A3.536,3.536,0,1,1,3.536,0" fill="black" stroke="red" stroke-width="0" opacity="0.5"/><path aria-label="Spearman correlation: −0.216816422791; Pearson correlation: −0.280018023379; species (common name): European hedgehog; has_sars2: yes" role="graphics-symbol" aria-roledescription="circle" transform="translate(78.31835772089316,128.00180233790698)" d="M3.536,0A3.536,3.536,0,1,1,-3.536,0A3.536,3.536,0,1,1,3.536,0" fill="black" stroke="red" stroke-width="0" opacity="0.5"/><path aria-label="Spearman correlation: −0.310252613997; Pearson correlation: −0.333520522991; species (common name): Himalayan marmot; has_sars2: yes" role="graphics-symbol" aria-roledescription="circle" transform="translate(68.97473860029886,133.3520522990979)" d="M3.536,0A3.536,3.536,0,1,1,-3.536,0A3.536,3.536,0,1,1,3.536,0" fill="black" stroke="red" stroke-width="0" opacity="0.5"/><path aria-label="Spearman correlation: 0.62458715716; Pearson correlation: 0.621518773243; species (common name): Largemouth bass; has_sars2: yes" role="graphics-symbol" aria-roledescription="circle" transform="translate(162.4587157160074,37.84812267565019)" d="M3.536,0A3.536,3.536,0,1,1,-3.536,0A3.536,3.536,0,1,1,3.536,0" fill="black" stroke="red" stroke-width="0" opacity="0.5"/><path aria-label="Spearman correlation: −0.230899464572; Pearson correlation: −0.313418990999; species (common name): Malayan porcupine; has_sars2: yes" role="graphics-symbol" aria-roledescription="circle" transform="translate(76.91005354278697,131.3418990999316)" d="M3.536,0A3.536,3.536,0,1,1,-3.536,0A3.536,3.536,0,1,1,3.536,0" fill="black" stroke="red" stroke-width="0" opacity="0.5"/><path aria-label="Spearman correlation: −0.145340410354; Pearson correlation: −0.0447103969335; species (common name): Mayalan field rat; has_sars2: yes" role="graphics-symbol" aria-roledescription="circle" transform="translate(85.46595896460826,104.4710396933512)" d="M3.536,0A3.536,3.536,0,1,1,-3.536,0A3.536,3.536,0,1,1,3.536,0" fill="black" stroke="red" stroke-width="0" opacity="0.5"/><path aria-label="Spearman correlation: −0.215132027242; Pearson correlation: −0.23843421374; species (common name): Oriental rat snake; has_sars2: yes" role="graphics-symbol" aria-roledescription="circle" transform="translate(78.48679727583293,123.8434213740276)" d="M3.536,0A3.536,3.536,0,1,1,-3.536,0A3.536,3.536,0,1,1,3.536,0" fill="black" stroke="red" stroke-width="0" opacity="0.5"/><path aria-label="Spearman correlation: 0.244441520217; Pearson correlation: 0.248401319211; species (common name): Siberian weasel; has_sars2: yes" role="graphics-symbol" aria-roledescription="circle" transform="translate(124.4441520217282,75.15986807894677)" d="M3.536,0A3.536,3.536,0,1,1,-3.536,0A3.536,3.536,0,1,1,3.536,0" fill="black" stroke="red" stroke-width="0" opacity="0.5"/><path aria-label="Spearman correlation: −0.297044262893; Pearson correlation: −0.324782217121; species (common name): bat-eared fox; has_sars2: yes" role="graphics-symbol" aria-roledescription="circle" transform="translate(70.29557371069977,132.4782217121071)" d="M3.536,0A3.536,3.536,0,1,1,-3.536,0A3.536,3.536,0,1,1,3.536,0" fill="black" stroke="red" stroke-width="0" opacity="0.5"/><path aria-label="Spearman correlation: −0.229039717114; Pearson correlation: −0.237986176887; species (common name): brown bush hen; has_sars2: yes" role="graphics-symbol" aria-roledescription="circle" transform="translate(77.09602828858394,123.79861768873015)" d="M3.536,0A3.536,3.536,0,1,1,-3.536,0A3.536,3.536,0,1,1,3.536,0" fill="black" stroke="red" stroke-width="0" opacity="0.5"/><path aria-label="Spearman correlation: −0.0234186289691; Pearson correlation: −0.0361654670233; species (common name): brown rat; has_sars2: yes" role="graphics-symbol" aria-roledescription="circle" transform="translate(97.65813710309405,103.616546702326)" d="M3.536,0A3.536,3.536,0,1,1,-3.536,0A3.536,3.536,0,1,1,3.536,0" fill="black" stroke="red" stroke-width="0" opacity="0.5"/><path aria-label="Spearman correlation: 0.365249925845; Pearson correlation: 0.365999246071; species (common name): carp; has_sars2: yes" role="graphics-symbol" aria-roledescription="circle" transform="translate(136.524992584508,63.40007539288377)" d="M3.536,0A3.536,3.536,0,1,1,-3.536,0A3.536,3.536,0,1,1,3.536,0" fill="black" stroke="red" stroke-width="0" opacity="0.5"/><path aria-label="Spearman correlation: 0.469008615869; Pearson correlation: 0.537213814439; species (common name): catfish; has_sars2: yes" role="graphics-symbol" aria-roledescription="circle" transform="translate(146.9008615869491,46.2786185561215)" d="M3.536,0A3.536,3.536,0,1,1,-3.536,0A3.536,3.536,0,1,1,3.536,0" fill="black" stroke="red" stroke-width="0" opacity="0.5"/><path aria-label="Spearman correlation: 0.200200534759; Pearson correlation: 0.129231974367; species (common name): chicken; has_sars2: yes" role="graphics-symbol" aria-roledescription="circle" transform="translate(120.02005347593582,87.076802563264)" d="M3.536,0A3.536,3.536,0,1,1,-3.536,0A3.536,3.536,0,1,1,3.536,0" fill="black" stroke="red" stroke-width="0" opacity="0.5"/><path aria-label="Spearman correlation: 0.647757325893; Pearson correlation: 0.585703724983; species (common name): cow; has_sars2: yes" role="graphics-symbol" aria-roledescription="circle" transform="translate(164.77573258934314,41.4296275017199)" d="M3.536,0A3.536,3.536,0,1,1,-3.536,0A3.536,3.536,0,1,1,3.536,0" fill="black" stroke="red" stroke-width="0" opacity="0.5"/><path aria-label="Spearman correlation: −0.0996454229879; Pearson correlation: −0.159353254847; species (common name): dog; has_sars2: yes" role="graphics-symbol" aria-roledescription="circle" transform="translate(90.03545770120601,115.9353254846768)" d="M3.536,0A3.536,3.536,0,1,1,-3.536,0A3.536,3.536,0,1,1,3.536,0" fill="black" stroke="red" stroke-width="0" opacity="0.5"/><path aria-label="Spearman correlation: −0.377220467711; Pearson correlation: −0.397318340869; species (common name): fennec fox; has_sars2: yes" role="graphics-symbol" aria-roledescription="circle" transform="translate(62.277953228856006,139.73183408686936)" d="M3.536,0A3.536,3.536,0,1,1,-3.536,0A3.536,3.536,0,1,1,3.536,0" fill="black" stroke="red" stroke-width="0" opacity="0.5"/><path aria-label="Spearman correlation: 0.341967845753; Pearson correlation: 0.277322095464; species (common name): goat; has_sars2: yes" role="graphics-symbol" aria-roledescription="circle" transform="translate(134.1967845752502,72.26779045355234)" d="M3.536,0A3.536,3.536,0,1,1,-3.536,0A3.536,3.536,0,1,1,3.536,0" fill="black" stroke="red" stroke-width="0" opacity="0.5"/><path aria-label="Spearman correlation: 0.0260034023592; Pearson correlation: 0.111221989459; species (common name): gray fox; has_sars2: yes" role="graphics-symbol" aria-roledescription="circle" transform="translate(102.6003402359161,88.87780105413489)" d="M3.536,0A3.536,3.536,0,1,1,-3.536,0A3.536,3.536,0,1,1,3.536,0" fill="black" stroke="red" stroke-width="0" opacity="0.5"/><path aria-label="Spearman correlation: −0.276451588195; Pearson correlation: −0.308551058754; species (common name): hoary bamboo rat; has_sars2: yes" role="graphics-symbol" aria-roledescription="circle" transform="translate(72.35484118047084,130.85510587542825)" d="M3.536,0A3.536,3.536,0,1,1,-3.536,0A3.536,3.536,0,1,1,3.536,0" fill="black" stroke="red" stroke-width="0" opacity="0.5"/><path aria-label="Spearman correlation: −0.478027106106; Pearson correlation: −0.475647784026; species (common name): hog badger; has_sars2: yes" role="graphics-symbol" aria-roledescription="circle" transform="translate(52.197289389441636,147.56477840259862)" d="M3.536,0A3.536,3.536,0,1,1,-3.536,0A3.536,3.536,0,1,1,3.536,0" fill="black" stroke="red" stroke-width="0" opacity="0.5"/><path aria-label="Spearman correlation: 0.51570855615; Pearson correlation: 0.389928109114; species (common name): human; has_sars2: yes" role="graphics-symbol" aria-roledescription="circle" transform="translate(151.57085561497325,61.00718908862848)" d="M3.536,0A3.536,3.536,0,1,1,-3.536,0A3.536,3.536,0,1,1,3.536,0" fill="black" stroke="red" stroke-width="0" opacity="0.5"/><path aria-label="Spearman correlation: −0.130655073012; Pearson correlation: −0.234801946728; species (common name): leaf deer; has_sars2: yes" role="graphics-symbol" aria-roledescription="circle" transform="translate(86.93449269882974,123.48019467275239)" d="M3.536,0A3.536,3.536,0,1,1,-3.536,0A3.536,3.536,0,1,1,3.536,0" fill="black" stroke="red" stroke-width="0" opacity="0.5"/><path aria-label="Spearman correlation: −0.0928263321541; Pearson correlation: −0.105562923135; species (common name): long-eared hedgehog; has_sars2: yes" role="graphics-symbol" aria-roledescription="circle" transform="translate(90.71736678459368,110.5562923135123)" d="M3.536,0A3.536,3.536,0,1,1,-3.536,0A3.536,3.536,0,1,1,3.536,0" fill="black" stroke="red" stroke-width="0" opacity="0.5"/><path aria-label="Spearman correlation: 0.0684066338172; Pearson correlation: 0.0342864818341; species (common name): masked palm civet; has_sars2: yes" role="graphics-symbol" aria-roledescription="circle" transform="translate(106.84066338171631,96.5713518165854)" d="M3.536,0A3.536,3.536,0,1,1,-3.536,0A3.536,3.536,0,1,1,3.536,0" fill="black" stroke="red" stroke-width="0" opacity="0.5"/><path aria-label="Spearman correlation: 0.531461521033; Pearson correlation: 0.45951686075; species (common name): pig; has_sars2: yes" role="graphics-symbol" aria-roledescription="circle" transform="translate(153.1461521033283,54.048313925041214)" d="M3.536,0A3.536,3.536,0,1,1,-3.536,0A3.536,3.536,0,1,1,3.536,0" fill="black" stroke="red" stroke-width="0" opacity="0.5"/><path aria-label="Spearman correlation: 0.16442436891; Pearson correlation: 0.0379446750449; species (common name): pigeon; has_sars2: yes" role="graphics-symbol" aria-roledescription="circle" transform="translate(116.44243689095921,96.20553249550822)" d="M3.536,0A3.536,3.536,0,1,1,-3.536,0A3.536,3.536,0,1,1,3.536,0" fill="black" stroke="red" stroke-width="0" opacity="0.5"/><path aria-label="Spearman correlation: 0.135536195003; Pearson correlation: 0.0162601360242; species (common name): quail; has_sars2: yes" role="graphics-symbol" aria-roledescription="circle" transform="translate(113.55361950026229,98.37398639757673)" d="M3.536,0A3.536,3.536,0,1,1,-3.536,0A3.536,3.536,0,1,1,3.536,0" fill="black" stroke="red" stroke-width="0" opacity="0.5"/><path aria-label="Spearman correlation: −0.111849317854; Pearson correlation: −0.133269481502; species (common name): rabbit; has_sars2: yes" role="graphics-symbol" aria-roledescription="circle" transform="translate(88.8150682145702,113.3269481502167)" d="M3.536,0A3.536,3.536,0,1,1,-3.536,0A3.536,3.536,0,1,1,3.536,0" fill="black" stroke="red" stroke-width="0" opacity="0.5"/><path aria-label="Spearman correlation: −0.421964653796; Pearson correlation: −0.460183563092; species (common name): raccoon dog; has_sars2: yes" role="graphics-symbol" aria-roledescription="circle" transform="translate(57.80353462038923,146.01835630923085)" d="M3.536,0A3.536,3.536,0,1,1,-3.536,0A3.536,3.536,0,1,1,3.536,0" fill="black" stroke="red" stroke-width="0" opacity="0.5"/><path aria-label="Spearman correlation: 0.231721170852; Pearson correlation: 0.193221544723; species (common name): sand cat; has_sars2: yes" role="graphics-symbol" aria-roledescription="circle" transform="translate(123.17211708517463,80.67784552773263)" d="M3.536,0A3.536,3.536,0,1,1,-3.536,0A3.536,3.536,0,1,1,3.536,0" fill="black" stroke="red" stroke-width="0" opacity="0.5"/><path aria-label="Spearman correlation: 0.59570839613; Pearson correlation: 0.537821257561; species (common name): sheep; has_sars2: yes" role="graphics-symbol" aria-roledescription="circle" transform="translate(159.57083961300918,46.21787424393551)" d="M3.536,0A3.536,3.536,0,1,1,-3.536,0A3.536,3.536,0,1,1,3.536,0" fill="black" stroke="red" stroke-width="0" opacity="0.5"/><path aria-label="Spearman correlation: 0.32181332733; Pearson correlation: 0.278928874869; species (common name): snakehead fish; has_sars2: yes" role="graphics-symbol" aria-roledescription="circle" transform="translate(132.18133273303482,72.10711251314463)" d="M3.536,0A3.536,3.536,0,1,1,-3.536,0A3.536,3.536,0,1,1,3.536,0" fill="black" stroke="red" stroke-width="0" opacity="0.5"/><path aria-label="Spearman correlation: 0.147071112739; Pearson correlation: 0.0000137093774056; species (common name): spot-billed duck; has_sars2: yes" role="graphics-symbol" aria-roledescription="circle" transform="translate(114.707111273877,99.99862906225945)" d="M3.536,0A3.536,3.536,0,1,1,-3.536,0A3.536,3.536,0,1,1,3.536,0" fill="black" stroke="red" stroke-width="0" opacity="0.5"/><path aria-label="Spearman correlation: −0.235570122519; Pearson correlation: −0.237718064425; species (common name): spotted dove; has_sars2: yes" role="graphics-symbol" aria-roledescription="circle" transform="translate(76.44298774811182,123.77180644252277)" d="M3.536,0A3.536,3.536,0,1,1,-3.536,0A3.536,3.536,0,1,1,3.536,0" fill="black" stroke="red" stroke-width="0" opacity="0.5"/><path aria-label="Spearman correlation: 0.118305317027; Pearson correlation: 0.0244219443959; species (common name): swamp eel; has_sars2: yes" role="graphics-symbol" aria-roledescription="circle" transform="translate(111.83053170269599,97.55780556041242)" d="M3.536,0A3.536,3.536,0,1,1,-3.536,0A3.536,3.536,0,1,1,3.536,0" fill="black" stroke="red" stroke-width="0" opacity="0.5"/><path aria-label="Spearman correlation: 0.399148799584; Pearson correlation: 0.35215980197; species (common name): yellow croaker (fish); has_sars2: yes" role="graphics-symbol" aria-roledescription="circle" transform="translate(139.91487995835413,64.78401980302829)" d="M3.536,0A3.536,3.536,0,1,1,-3.536,0A3.536,3.536,0,1,1,3.536,0" fill="black" stroke="red" stroke-width="0" opacity="0.5"/></g></g><path class="foreground" aria-hidden="true" d="" display="none"/></g></g></g></svg>