<svg xmlns="http://www.w3.org/2000/svg" xmlns:xlink="http://www.w3.org/1999/xlink" version="1.1" class="marks" width="253" height="247" viewBox="0 0 253 247"><rect width="253" height="247" fill="white"/><g fill="none" stroke-miterlimit="10" transform="translate(47,10)"><g class="mark-group role-frame root" role="graphics-object" aria-roledescription="group mark container"><g transform="translate(0,0)"><path class="background" aria-hidden="true" d="M0.5,0.5h200v200h-200Z" stroke="#ddd"/><g><g class="mark-group role-axis" role="graphics-symbol" aria-roledescription="axis" aria-label="X-axis titled 'Spearman correlation' for a linear scale with values from −1.0 to 1.0"><g transform="translate(0.5,200.5)"><path class="background" aria-hidden="true" d="M0,0h0v0h0Z" pointer-events="none"/><g><g class="mark-rule role-axis-tick" pointer-events="none"><line transform="translate(0,0)" x2="0" y2="5" stroke="#888" stroke-width="1" opacity="1"/><line transform="translate(50,0)" x2="0" y2="5" stroke="#888" stroke-width="1" opacity="1"/><line transform="translate(100,0)" x2="0" y2="5" stroke="#888" stroke-width="1" opacity="1"/><line transform="translate(150,0)" x2="0" y2="5" stroke="#888" stroke-width="1" opacity="1"/><line transform="translate(200,0)" x2="0" y2="5" stroke="#888" stroke-width="1" opacity="1"/></g><g class="mark-text role-axis-label" pointer-events="none"><text text-anchor="start" transform="translate(0,15)" font-family="sans-serif" font-size="10px" fill="#000" opacity="1">−1.0</text><text text-anchor="middle" transform="translate(50,15)" font-family="sans-serif" font-size="10px" fill="#000" opacity="1">−0.5</text><text text-anchor="middle" transform="translate(100,15)" font-family="sans-serif" font-size="10px" fill="#000" opacity="1">0.0</text><text text-anchor="middle" transform="translate(150,15)" font-family="sans-serif" font-size="10px" fill="#000" opacity="1">0.5</text><text text-anchor="end" transform="translate(200,15)" font-family="sans-serif" font-size="10px" fill="#000" opacity="1">1.0</text></g><g class="mark-rule role-axis-domain" pointer-events="none"><line transform="translate(0,0)" x2="200" y2="0" stroke="#888" stroke-width="1" opacity="1"/></g><g class="mark-text role-axis-title" pointer-events="none"><text text-anchor="middle" transform="translate(100,30)" font-family="sans-serif" font-size="11px" font-weight="bold" fill="#000" opacity="1">Spearman correlation</text></g></g><path class="foreground" aria-hidden="true" d="" pointer-events="none" display="none"/></g></g><g class="mark-group role-axis" role="graphics-symbol" aria-roledescription="axis" aria-label="Y-axis titled 'Pearson correlation' for a linear scale with values from −1.0 to 1.0"><g transform="translate(0.5,0.5)"><path class="background" aria-hidden="true" d="M0,0h0v0h0Z" pointer-events="none"/><g><g class="mark-rule role-axis-tick" pointer-events="none"><line transform="translate(0,200)" x2="-5" y2="0" stroke="#888" stroke-width="1" opacity="1"/><line transform="translate(0,150)" x2="-5" y2="0" stroke="#888" stroke-width="1" opacity="1"/><line transform="translate(0,100)" x2="-5" y2="0" stroke="#888" stroke-width="1" opacity="1"/><line transform="translate(0,50)" x2="-5" y2="0" stroke="#888" stroke-width="1" opacity="1"/><line transform="translate(0,0)" x2="-5" y2="0" stroke="#888" stroke-width="1" opacity="1"/></g><g class="mark-text role-axis-label" pointer-events="none"><text text-anchor="end" transform="translate(-7,203)" font-family="sans-serif" font-size="10px" fill="#000" opacity="1">−1.0</text><text text-anchor="end" transform="translate(-7,153)" font-family="sans-serif" font-size="10px" fill="#000" opacity="1">−0.5</text><text text-anchor="end" transform="translate(-7,103)" font-family="sans-serif" font-size="10px" fill="#000" opacity="1">0.0</text><text text-anchor="end" transform="translate(-7,53)" font-family="sans-serif" font-size="10px" fill="#000" opacity="1">0.5</text><text text-anchor="end" transform="translate(-7,3)" font-family="sans-serif" font-size="10px" fill="#000" opacity="1">1.0</text></g><g class="mark-rule role-axis-domain" pointer-events="none"><line transform="translate(0,200)" x2="0" y2="-200" stroke="#888" stroke-width="1" opacity="1"/></g><g class="mark-text role-axis-title" pointer-events="none"><text text-anchor="middle" transform="translate(-30.7412109375,100) rotate(-90) translate(0,-2)" font-family="sans-serif" font-size="11px" font-weight="bold" fill="#000" opacity="1">Pearson correlation</text></g></g><path class="foreground" aria-hidden="true" d="" pointer-events="none" display="none"/></g></g><g class="mark-symbol role-mark marks" role="graphics-object" aria-roledescription="symbol mark container"><path aria-label="Spearman correlation: −0.100580766799; Pearson correlation: −0.158486115623; species (common name): Amur hedgehog; has_sars2: no" role="graphics-symbol" aria-roledescription="circle" transform="translate(89.9419233201031,115.84861156231759)" d="M3.536,0A3.536,3.536,0,1,1,-3.536,0A3.536,3.536,0,1,1,3.536,0" fill="black" stroke="red" stroke-width="0" opacity="0.5"/><path aria-label="Spearman correlation: −0.172091952024; Pearson correlation: −0.165146308243; species (common name): Chinese cobra; has_sars2: no" role="graphics-symbol" aria-roledescription="circle" transform="translate(82.79080479758649,116.5146308242795)" d="M3.536,0A3.536,3.536,0,1,1,-3.536,0A3.536,3.536,0,1,1,3.536,0" fill="black" stroke="red" stroke-width="0" opacity="0.5"/><path aria-label="Spearman correlation: −0.0840299687335; Pearson correlation: −0.0992632122718; species (common name): Chinese salamander; has_sars2: no" role="graphics-symbol" aria-roledescription="circle" transform="translate(91.59700312664914,109.9263212271834)" d="M3.536,0A3.536,3.536,0,1,1,-3.536,0A3.536,3.536,0,1,1,3.536,0" fill="black" stroke="red" stroke-width="0" opacity="0.5"/><path aria-label="Spearman correlation: −0.0522147793052; Pearson correlation: −0.0904352038463; species (common name): European hedgehog; has_sars2: no" role="graphics-symbol" aria-roledescription="circle" transform="translate(94.77852206947966,109.04352038462662)" d="M3.536,0A3.536,3.536,0,1,1,-3.536,0A3.536,3.536,0,1,1,3.536,0" fill="black" stroke="red" stroke-width="0" opacity="0.5"/><path aria-label="Spearman correlation: −0.133801603046; Pearson correlation: −0.125279783307; species (common name): Himalayan marmot; has_sars2: no" role="graphics-symbol" aria-roledescription="circle" transform="translate(86.61983969536232,112.52797833066737)" d="M3.536,0A3.536,3.536,0,1,1,-3.536,0A3.536,3.536,0,1,1,3.536,0" fill="black" stroke="red" stroke-width="0" opacity="0.5"/><path aria-label="Spearman correlation: 0.642094799328; Pearson correlation: 0.748639733556; species (common name): Largemouth bass; has_sars2: no" role="graphics-symbol" aria-roledescription="circle" transform="translate(164.20947993279336,25.13602664437231)" d="M3.536,0A3.536,3.536,0,1,1,-3.536,0A3.536,3.536,0,1,1,3.536,0" fill="black" stroke="red" stroke-width="0" opacity="0.5"/><path aria-label="Spearman correlation: 0.0378364612082; Pearson correlation: −0.0126145783147; species (common name): Malayan porcupine; has_sars2: no" role="graphics-symbol" aria-roledescription="circle" transform="translate(103.78364612082211,101.26145783147345)" d="M3.536,0A3.536,3.536,0,1,1,-3.536,0A3.536,3.536,0,1,1,3.536,0" fill="black" stroke="red" stroke-width="0" opacity="0.5"/><path aria-label="Spearman correlation: 0.0374533379234; Pearson correlation: 0.0166668262942; species (common name): Mayalan field rat; has_sars2: no" role="graphics-symbol" aria-roledescription="circle" transform="translate(103.74533379233787,98.33331737057695)" d="M3.536,0A3.536,3.536,0,1,1,-3.536,0A3.536,3.536,0,1,1,3.536,0" fill="black" stroke="red" stroke-width="0" opacity="0.5"/><path aria-label="Spearman correlation: −0.0735899256579; Pearson correlation: −0.104667059284; species (common name): Oriental rat snake; has_sars2: no" role="graphics-symbol" aria-roledescription="circle" transform="translate(92.64100743421089,110.46670592837818)" d="M3.536,0A3.536,3.536,0,1,1,-3.536,0A3.536,3.536,0,1,1,3.536,0" fill="black" stroke="red" stroke-width="0" opacity="0.5"/><path aria-label="Spearman correlation: 0.0269341160114; Pearson correlation: 0.103444045791; species (common name): Siberian weasel; has_sars2: no" role="graphics-symbol" aria-roledescription="circle" transform="translate(102.69341160113625,89.65559542092711)" d="M3.536,0A3.536,3.536,0,1,1,-3.536,0A3.536,3.536,0,1,1,3.536,0" fill="black" stroke="red" stroke-width="0" opacity="0.5"/><path aria-label="Spearman correlation: −0.117676698387; Pearson correlation: −0.136651662402; species (common name): bat-eared fox; has_sars2: no" role="graphics-symbol" aria-roledescription="circle" transform="translate(88.23233016126008,113.66516624015131)" d="M3.536,0A3.536,3.536,0,1,1,-3.536,0A3.536,3.536,0,1,1,3.536,0" fill="black" stroke="red" stroke-width="0" opacity="0.5"/><path aria-label="Spearman correlation: −0.239427974106; Pearson correlation: −0.236328729984; species (common name): brown bush hen; has_sars2: no" role="graphics-symbol" aria-roledescription="circle" transform="translate(76.0572025894428,123.63287299843073)" d="M3.536,0A3.536,3.536,0,1,1,-3.536,0A3.536,3.536,0,1,1,3.536,0" fill="black" stroke="red" stroke-width="0" opacity="0.5"/><path aria-label="Spearman correlation: −0.0613512504072; Pearson correlation: −0.0631123325524; species (common name): brown rat; has_sars2: no" role="graphics-symbol" aria-roledescription="circle" transform="translate(93.86487495927521,106.31123325524494)" d="M3.536,0A3.536,3.536,0,1,1,-3.536,0A3.536,3.536,0,1,1,3.536,0" fill="black" stroke="red" stroke-width="0" opacity="0.5"/><path aria-label="Spearman correlation: 0.57351536842; Pearson correlation: 0.623269163739; species (common name): carp; has_sars2: no" role="graphics-symbol" aria-roledescription="circle" transform="translate(157.35153684202263,37.67308362607513)" d="M3.536,0A3.536,3.536,0,1,1,-3.536,0A3.536,3.536,0,1,1,3.536,0" fill="black" stroke="red" stroke-width="0" opacity="0.5"/><path aria-label="Spearman correlation: 0.527606788862; Pearson correlation: 0.658085944486; species (common name): catfish; has_sars2: no" role="graphics-symbol" aria-roledescription="circle" transform="translate(152.76067888618923,34.191405551379496)" d="M3.536,0A3.536,3.536,0,1,1,-3.536,0A3.536,3.536,0,1,1,3.536,0" fill="black" stroke="red" stroke-width="0" opacity="0.5"/><path aria-label="Spearman correlation: 0.19919474232; Pearson correlation: 0.181341709512; species (common name): chicken; has_sars2: no" role="graphics-symbol" aria-roledescription="circle" transform="translate(119.91947423202592,81.8658290488163)" d="M3.536,0A3.536,3.536,0,1,1,-3.536,0A3.536,3.536,0,1,1,3.536,0" fill="black" stroke="red" stroke-width="0" opacity="0.5"/><path aria-label="Spearman correlation: 0.54577620527; Pearson correlation: 0.631301410792; species (common name): cow; has_sars2: no" role="graphics-symbol" aria-roledescription="circle" transform="translate(154.57762052701008,36.86985892076433)" d="M3.536,0A3.536,3.536,0,1,1,-3.536,0A3.536,3.536,0,1,1,3.536,0" fill="black" stroke="red" stroke-width="0" opacity="0.5"/><path aria-label="Spearman correlation: −0.0774614033551; Pearson correlation: −0.0822413944711; species (common name): dog; has_sars2: no" role="graphics-symbol" aria-roledescription="circle" transform="translate(92.25385966448711,108.2241394471056)" d="M3.536,0A3.536,3.536,0,1,1,-3.536,0A3.536,3.536,0,1,1,3.536,0" fill="black" stroke="red" stroke-width="0" opacity="0.5"/><path aria-label="Spearman correlation: −0.200089686394; Pearson correlation: −0.216747529201; species (common name): fennec fox; has_sars2: no" role="graphics-symbol" aria-roledescription="circle" transform="translate(79.9910313606074,121.6747529200519)" d="M3.536,0A3.536,3.536,0,1,1,-3.536,0A3.536,3.536,0,1,1,3.536,0" fill="black" stroke="red" stroke-width="0" opacity="0.5"/><path aria-label="Spearman correlation: 0.301423191376; Pearson correlation: 0.358780969183; species (common name): goat; has_sars2: no" role="graphics-symbol" aria-roledescription="circle" transform="translate(130.14231913757615,64.1219030817429)" d="M3.536,0A3.536,3.536,0,1,1,-3.536,0A3.536,3.536,0,1,1,3.536,0" fill="black" stroke="red" stroke-width="0" opacity="0.5"/><path aria-label="Spearman correlation: 0.175896170901; Pearson correlation: 0.244765231989; species (common name): gray fox; has_sars2: no" role="graphics-symbol" aria-roledescription="circle" transform="translate(117.589617090081,75.52347680114373)" d="M3.536,0A3.536,3.536,0,1,1,-3.536,0A3.536,3.536,0,1,1,3.536,0" fill="black" stroke="red" stroke-width="0" opacity="0.5"/><path aria-label="Spearman correlation: −0.242435742295; Pearson correlation: −0.262740124712; species (common name): hoary bamboo rat; has_sars2: no" role="graphics-symbol" aria-roledescription="circle" transform="translate(75.75642577046888,126.27401247121655)" d="M3.536,0A3.536,3.536,0,1,1,-3.536,0A3.536,3.536,0,1,1,3.536,0" fill="black" stroke="red" stroke-width="0" opacity="0.5"/><path aria-label="Spearman correlation: −0.293601052378; Pearson correlation: −0.300658382978; species (common name): hog badger; has_sars2: no" role="graphics-symbol" aria-roledescription="circle" transform="translate(70.63989476220172,130.06583829780354)" d="M3.536,0A3.536,3.536,0,1,1,-3.536,0A3.536,3.536,0,1,1,3.536,0" fill="black" stroke="red" stroke-width="0" opacity="0.5"/><path aria-label="Spearman correlation: 0.288334610734; Pearson correlation: 0.286602241774; species (common name): human; has_sars2: no" role="graphics-symbol" aria-roledescription="circle" transform="translate(128.83346107342632,71.33977582257856)" d="M3.536,0A3.536,3.536,0,1,1,-3.536,0A3.536,3.536,0,1,1,3.536,0" fill="black" stroke="red" stroke-width="0" opacity="0.5"/><path aria-label="Spearman correlation: −0.0509045816067; Pearson correlation: −0.0942457938678; species (common name): leaf deer; has_sars2: no" role="graphics-symbol" aria-roledescription="circle" transform="translate(94.9095418393289,109.4245793867755)" d="M3.536,0A3.536,3.536,0,1,1,-3.536,0A3.536,3.536,0,1,1,3.536,0" fill="black" stroke="red" stroke-width="0" opacity="0.5"/><path aria-label="Spearman correlation: −0.191891763138; Pearson correlation: −0.169430203364; species (common name): long-eared hedgehog; has_sars2: no" role="graphics-symbol" aria-roledescription="circle" transform="translate(80.81082368621809,116.94302033643498)" d="M3.536,0A3.536,3.536,0,1,1,-3.536,0A3.536,3.536,0,1,1,3.536,0" fill="black" stroke="red" stroke-width="0" opacity="0.5"/><path aria-label="Spearman correlation: 0.0456137430198; Pearson correlation: 0.0666460988967; species (common name): masked palm civet; has_sars2: no" role="graphics-symbol" aria-roledescription="circle" transform="translate(104.56137430198062,93.3353901103329)" d="M3.536,0A3.536,3.536,0,1,1,-3.536,0A3.536,3.536,0,1,1,3.536,0" fill="black" stroke="red" stroke-width="0" opacity="0.5"/><path aria-label="Spearman correlation: 0.330921416423; Pearson correlation: 0.362972658009; species (common name): pig; has_sars2: no" role="graphics-symbol" aria-roledescription="circle" transform="translate(133.0921416423053,63.70273419912811)" d="M3.536,0A3.536,3.536,0,1,1,-3.536,0A3.536,3.536,0,1,1,3.536,0" fill="black" stroke="red" stroke-width="0" opacity="0.5"/><path aria-label="Spearman correlation: −0.0101482739699; Pearson correlation: −0.0134987230071; species (common name): pigeon; has_sars2: no" role="graphics-symbol" aria-roledescription="circle" transform="translate(98.9851726030135,101.34987230070536)" d="M3.536,0A3.536,3.536,0,1,1,-3.536,0A3.536,3.536,0,1,1,3.536,0" fill="black" stroke="red" stroke-width="0" opacity="0.5"/><path aria-label="Spearman correlation: 0.0735197957299; Pearson correlation: 0.0414535096836; species (common name): quail; has_sars2: no" role="graphics-symbol" aria-roledescription="circle" transform="translate(107.35197957299216,95.85464903163587)" d="M3.536,0A3.536,3.536,0,1,1,-3.536,0A3.536,3.536,0,1,1,3.536,0" fill="black" stroke="red" stroke-width="0" opacity="0.5"/><path aria-label="Spearman correlation: −0.135286215486; Pearson correlation: −0.147063618394; species (common name): rabbit; has_sars2: no" role="graphics-symbol" aria-roledescription="circle" transform="translate(86.47137845141881,114.70636183942564)" d="M3.536,0A3.536,3.536,0,1,1,-3.536,0A3.536,3.536,0,1,1,3.536,0" fill="black" stroke="red" stroke-width="0" opacity="0.5"/><path aria-label="Spearman correlation: −0.293127182298; Pearson correlation: −0.319161306112; species (common name): raccoon dog; has_sars2: no" role="graphics-symbol" aria-roledescription="circle" transform="translate(70.6872817701998,131.9161306111582)" d="M3.536,0A3.536,3.536,0,1,1,-3.536,0A3.536,3.536,0,1,1,3.536,0" fill="black" stroke="red" stroke-width="0" opacity="0.5"/><path aria-label="Spearman correlation: 0.0112118095854; Pearson correlation: 0.0471466969613; species (common name): sand cat; has_sars2: no" role="graphics-symbol" aria-roledescription="circle" transform="translate(101.12118095853704,95.28533030387317)" d="M3.536,0A3.536,3.536,0,1,1,-3.536,0A3.536,3.536,0,1,1,3.536,0" fill="black" stroke="red" stroke-width="0" opacity="0.5"/><path aria-label="Spearman correlation: 0.448923611266; Pearson correlation: 0.555936427767; species (common name): sheep; has_sars2: no" role="graphics-symbol" aria-roledescription="circle" transform="translate(144.89236112659887,44.40635722330475)" d="M3.536,0A3.536,3.536,0,1,1,-3.536,0A3.536,3.536,0,1,1,3.536,0" fill="black" stroke="red" stroke-width="0" opacity="0.5"/><path aria-label="Spearman correlation: 0.60289298234; Pearson correlation: 0.621325258298; species (common name): snakehead fish; has_sars2: no" role="graphics-symbol" aria-roledescription="circle" transform="translate(160.28929823401236,37.867474170172024)" d="M3.536,0A3.536,3.536,0,1,1,-3.536,0A3.536,3.536,0,1,1,3.536,0" fill="black" stroke="red" stroke-width="0" opacity="0.5"/><path aria-label="Spearman correlation: 0.0313533726249; Pearson correlation: 0.0681308527576; species (common name): spot-billed duck; has_sars2: no" role="graphics-symbol" aria-roledescription="circle" transform="translate(103.1353372624882,93.18691472423697)" d="M3.536,0A3.536,3.536,0,1,1,-3.536,0A3.536,3.536,0,1,1,3.536,0" fill="black" stroke="red" stroke-width="0" opacity="0.5"/><path aria-label="Spearman correlation: −0.15780082582; Pearson correlation: −0.173920024066; species (common name): spotted dove; has_sars2: no" role="graphics-symbol" aria-roledescription="circle" transform="translate(84.21991741797146,117.39200240656196)" d="M3.536,0A3.536,3.536,0,1,1,-3.536,0A3.536,3.536,0,1,1,3.536,0" fill="black" stroke="red" stroke-width="0" opacity="0.5"/><path aria-label="Spearman correlation: 0.489467793388; Pearson correlation: 0.436277782049; species (common name): swamp eel; has_sars2: no" role="graphics-symbol" aria-roledescription="circle" transform="translate(148.9467793388282,56.37222179511645)" d="M3.536,0A3.536,3.536,0,1,1,-3.536,0A3.536,3.536,0,1,1,3.536,0" fill="black" stroke="red" stroke-width="0" opacity="0.5"/><path aria-label="Spearman correlation: 0.425481582533; Pearson correlation: 0.511924700875; species (common name): yellow croaker (fish); has_sars2: no" role="graphics-symbol" aria-roledescription="circle" transform="translate(142.54815825326267,48.80752991247989)" d="M3.536,0A3.536,3.536,0,1,1,-3.536,0A3.536,3.536,0,1,1,3.536,0" fill="black" stroke="red" stroke-width="0" opacity="0.5"/></g></g><path class="foreground" aria-hidden="true" d="" display="none"/></g></g></g></svg>