<svg xmlns="http://www.w3.org/2000/svg" xmlns:xlink="http://www.w3.org/1999/xlink" version="1.1" class="marks" width="276" height="185" viewBox="0 0 276 185"><rect width="276" height="185" fill="white"/><g fill="none" stroke-miterlimit="10" transform="translate(5,5)"><g class="mark-group role-frame root" role="graphics-object" aria-roledescription="group mark container"><g transform="translate(0,0)"><path class="background" aria-hidden="true" d="M0,0h175v175h-175Z"/><g><g class="mark-arc role-mark marks" role="graphics-object" aria-roledescription="arc mark container"><path aria-label="aligned_contigs: 3; species: chicken; covered_bases: 1358; accession: CRR710762; sample: Q61" role="graphics-symbol" aria-roledescription="arc mark" transform="translate(87.5,87.5)" d="M0.433,-87.499A87.5,87.5,0,0,0,0,-87.5L0,0Z" fill="#5778a4"/><path aria-label="aligned_contigs: 24; species: dog; covered_bases: 12295; accession: CRR710762; sample: Q61" role="graphics-symbol" aria-roledescription="arc mark" transform="translate(87.5,87.5)" d="M3.892,-87.413A87.5,87.5,0,0,0,0.433,-87.499L0,0Z" fill="#e49444"/><path aria-label="aligned_contigs: 123; species: duck; covered_bases: 97810; accession: CRR710762; sample: Q61" role="graphics-symbol" aria-roledescription="arc mark" transform="translate(87.5,87.5)" d="M21.408,-84.841A87.5,87.5,0,0,0,3.892,-87.413L0,0Z" fill="#6a9f58"/><path aria-label="aligned_contigs: 3663; species: raccoon dog; covered_bases: 2683886; accession: CRR710762; sample: Q61" role="graphics-symbol" aria-roledescription="arc mark" transform="translate(87.5,87.5)" d="M0,-87.5A87.5,87.5,0,1,0,21.408,-84.841L0,0Z" fill="#85b6b2"/></g><g class="mark-group role-legend" role="graphics-symbol" aria-roledescription="legend" aria-label="Symbol legend titled 'species' for fill color with 4 values: chicken, dog, raccoon dog, duck"><g transform="translate(193,0)"><path class="background" aria-hidden="true" d="M0,0h73v74h-73Z" pointer-events="none"/><g><g class="mark-group role-legend-entry"><g transform="translate(0,16)"><path class="background" aria-hidden="true" d="M0,0h0v0h0Z" pointer-events="none"/><g><g class="mark-group role-scope" role="graphics-object" aria-roledescription="group mark container"><g transform="translate(0,0)"><path class="background" aria-hidden="true" d="M0,0h72.0390625v12.090169943749475h-72.0390625Z" pointer-events="none" opacity="1"/><g><g class="mark-symbol role-legend-symbol" pointer-events="none"><path transform="translate(6.5,6.5)" d="M-5.59,-5.59h11.18v11.18h-11.18Z" fill="#5778a4" stroke-width="1.5" opacity="1"/></g><g class="mark-text role-legend-label" pointer-events="none"><text text-anchor="start" transform="translate(17,9.5)" font-family="sans-serif" font-size="10px" fill="#000" opacity="1">chicken</text></g></g><path class="foreground" aria-hidden="true" d="" pointer-events="none" display="none"/></g><g transform="translate(0,15)"><path class="background" aria-hidden="true" d="M0,0h72.0390625v12.090169943749473h-72.0390625Z" pointer-events="none" opacity="1"/><g><g class="mark-symbol role-legend-symbol" pointer-events="none"><path transform="translate(6.5,6.5)" d="M-5.59,-5.59h11.18v11.18h-11.18Z" fill="#e49444" stroke-width="1.5" opacity="1"/></g><g class="mark-text role-legend-label" pointer-events="none"><text text-anchor="start" transform="translate(17,9.5)" font-family="sans-serif" font-size="10px" fill="#000" opacity="1">dog</text></g></g><path class="foreground" aria-hidden="true" d="" pointer-events="none" display="none"/></g><g transform="translate(0,30)"><path class="background" aria-hidden="true" d="M0,0h72.0390625v12.090169943749473h-72.0390625Z" pointer-events="none" opacity="1"/><g><g class="mark-symbol role-legend-symbol" pointer-events="none"><path transform="translate(6.5,6.5)" d="M-5.59,-5.59h11.18v11.18h-11.18Z" fill="#85b6b2" stroke-width="1.5" opacity="1"/></g><g class="mark-text role-legend-label" pointer-events="none"><text text-anchor="start" transform="translate(17,9.5)" font-family="sans-serif" font-size="10px" fill="#000" opacity="1">raccoon dog</text></g></g><path class="foreground" aria-hidden="true" d="" pointer-events="none" display="none"/></g><g transform="translate(0,45)"><path class="background" aria-hidden="true" d="M0,0h72.0390625v12.090169943749473h-72.0390625Z" pointer-events="none" opacity="1"/><g><g class="mark-symbol role-legend-symbol" pointer-events="none"><path transform="translate(6.5,6.5)" d="M-5.59,-5.59h11.18v11.18h-11.18Z" fill="#6a9f58" stroke-width="1.5" opacity="1"/></g><g class="mark-text role-legend-label" pointer-events="none"><text text-anchor="start" transform="translate(17,9.5)" font-family="sans-serif" font-size="10px" fill="#000" opacity="1">duck</text></g></g><path class="foreground" aria-hidden="true" d="" pointer-events="none" display="none"/></g></g></g><path class="foreground" aria-hidden="true" d="" pointer-events="none" display="none"/></g></g><g class="mark-text role-legend-title" pointer-events="none"><text text-anchor="start" transform="translate(0,9)" font-family="sans-serif" font-size="11px" font-weight="bold" fill="#000" opacity="1">species</text></g></g><path class="foreground" aria-hidden="true" d="" pointer-events="none" display="none"/></g></g></g><path class="foreground" aria-hidden="true" d="" display="none"/></g></g></g></svg>