<svg xmlns="http://www.w3.org/2000/svg" xmlns:xlink="http://www.w3.org/1999/xlink" version="1.1" class="marks" width="857" height="238" viewBox="0 0 857 238"><rect width="857" height="238" fill="white"/><g fill="none" stroke-miterlimit="10" transform="translate(152,26)"><g class="mark-group role-frame root" role="graphics-object" aria-roledescription="group mark container"><g transform="translate(0,0)"><path class="background" aria-hidden="true" d="M0,0h0v0h0Z"/><g><g class="mark-group role-column-header column_header" role="graphics-object" aria-roledescription="group mark container"><g transform="translate(0,0)"><path class="background" aria-hidden="true" d="M0,0h160v0h-160Z"/><g><g class="mark-group role-title"><g transform="translate(80,-21)"><path class="background" aria-hidden="true" d="M0,0h0v0h0Z" pointer-events="none"/><g><g class="mark-text role-title-text" role="graphics-symbol" aria-roledescription="title" aria-label="Title text 'chordates'" pointer-events="none"><text text-anchor="middle" transform="translate(0,9)" font-family="sans-serif" font-size="11px" font-weight="bold" fill="#000" opacity="1">chordates</text></g></g><path class="foreground" aria-hidden="true" d="" pointer-events="none" display="none"/></g></g></g><path class="foreground" aria-hidden="true" d="" display="none"/></g><g transform="translate(180,0)"><path class="background" aria-hidden="true" d="M0,0h160v0h-160Z"/><g><g class="mark-group role-title"><g transform="translate(80,-21)"><path class="background" aria-hidden="true" d="M0,0h0v0h0Z" pointer-events="none"/><g><g class="mark-text role-title-text" role="graphics-symbol" aria-roledescription="title" aria-label="Title text 'mammals'" pointer-events="none"><text text-anchor="middle" transform="translate(0,9)" font-family="sans-serif" font-size="11px" font-weight="bold" fill="#000" opacity="1">mammals</text></g></g><path class="foreground" aria-hidden="true" d="" pointer-events="none" display="none"/></g></g></g><path class="foreground" aria-hidden="true" d="" display="none"/></g><g transform="translate(360,0)"><path class="background" aria-hidden="true" d="M0,0h160v0h-160Z"/><g><g class="mark-group role-title"><g transform="translate(80,-21)"><path class="background" aria-hidden="true" d="M0,0h0v0h0Z" pointer-events="none"/><g><g class="mark-text role-title-text" role="graphics-symbol" aria-roledescription="title" aria-label="Title text 'Crits-Christoph Figure 1'" pointer-events="none"><text text-anchor="middle" transform="translate(0,9)" font-family="sans-serif" font-size="11px" font-weight="bold" fill="#000" opacity="1">Crits-Christoph Figure 1</text></g></g><path class="foreground" aria-hidden="true" d="" pointer-events="none" display="none"/></g></g></g><path class="foreground" aria-hidden="true" d="" display="none"/></g><g transform="translate(540,0)"><path class="background" aria-hidden="true" d="M0,0h160v0h-160Z"/><g><g class="mark-group role-title"><g transform="translate(80,-21)"><path class="background" aria-hidden="true" d="M0,0h0v0h0Z" pointer-events="none"/><g><g class="mark-text role-title-text" role="graphics-symbol" aria-roledescription="title" aria-label="Title text 'Crits-Christoph Table S3'" pointer-events="none"><text text-anchor="middle" transform="translate(0,9)" font-family="sans-serif" font-size="11px" font-weight="bold" fill="#000" opacity="1">Crits-Christoph Table S3</text></g></g><path class="foreground" aria-hidden="true" d="" pointer-events="none" display="none"/></g></g></g><path class="foreground" aria-hidden="true" d="" display="none"/></g></g><g class="mark-group role-scope cell" role="graphics-object" aria-roledescription="group mark container"><g transform="translate(0,0)"><path class="background" aria-hidden="true" d="M0,0h160v160h-160Z"/><g><g class="mark-arc role-mark child_marks" role="graphics-object" aria-roledescription="arc mark container"><path aria-label="percent mitochondria reads: 53.7469207831; species (common name): spot-billed duck; species sets to show (click to select/deselect): chordates; sample: Q61; species: Anas poecilorhyncha; common_name: spot-billed duck; species_set: chordates; mitochondria_aligned_reads: 16582; total pre-processed reads: 206952411; reads aligning to SARS2: 1" role="graphics-symbol" aria-roledescription="arc mark" transform="translate(80,80)" d="M0,-80A80,80,0,1,0,18.661,77.793L0,0Z" fill="#6a9f58" opacity="1"/><path aria-label="percent mitochondria reads: 2.62219629197; species (common name): dog; species sets to show (click to select/deselect): chordates; sample: Q61; species: Canis lupus; common_name: dog; species_set: chordates; mitochondria_aligned_reads: 809; total pre-processed reads: 206952411; reads aligning to SARS2: 1" role="graphics-symbol" aria-roledescription="arc mark" transform="translate(80,80)" d="M36.972,-70.944A80,80,0,0,0,24.836,-76.047L0,0Z" fill="#e49444" opacity="1"/><path aria-label="percent mitochondria reads: 5.02398547906; species (common name): chicken; species sets to show (click to select/deselect): chordates; sample: Q61; species: Gallus gallus; common_name: chicken; species_set: chordates; mitochondria_aligned_reads: 1550; total pre-processed reads: 206952411; reads aligning to SARS2: 1" role="graphics-symbol" aria-roledescription="arc mark" transform="translate(80,80)" d="M24.836,-76.047A80,80,0,0,0,0,-80L0,0Z" fill="#5778a4" opacity="1"/><path aria-label="percent mitochondria reads: 32.4419810709; species (common name): raccoon dog; species sets to show (click to select/deselect): chordates; sample: Q61; species: Nyctereutes procyonoides; common_name: raccoon dog; species_set: chordates; mitochondria_aligned_reads: 10009; total pre-processed reads: 206952411; reads aligning to SARS2: 1" role="graphics-symbol" aria-roledescription="arc mark" transform="translate(80,80)" d="M18.661,77.793A80,80,0,0,0,61.031,-51.722L0,0Z" fill="#85b6b2" opacity="1"/><path aria-label="percent mitochondria reads: 6.16491637495; species (common name): other; species sets to show (click to select/deselect): chordates; sample: Q61; species: other; common_name: other; species_set: chordates; mitochondria_aligned_reads: 1902; total pre-processed reads: 206952411; reads aligning to SARS2: 1" role="graphics-symbol" aria-roledescription="arc mark" transform="translate(80,80)" d="M61.031,-51.722A80,80,0,0,0,36.972,-70.944L0,0Z" fill="#d1615d" opacity="1"/></g></g><path class="foreground" aria-hidden="true" d="" display="none"/></g><g transform="translate(180,0)"><path class="background" aria-hidden="true" d="M0,0h160v160h-160Z"/><g><g class="mark-arc role-mark child_marks" role="graphics-object" aria-roledescription="arc mark container"><path aria-label="percent mitochondria reads: 6.56922452294; species (common name): dog; species sets to show (click to select/deselect): mammals; sample: Q61; species: Canis lupus; common_name: dog; species_set: mammals; mitochondria_aligned_reads: 809; total pre-processed reads: 206952411; reads aligning to SARS2: 1" role="graphics-symbol" aria-roledescription="arc mark" transform="translate(80,80)" d="M32.091,-73.281A80,80,0,0,0,0,-80L0,0Z" fill="#e49444" opacity="1"/><path aria-label="percent mitochondria reads: 81.2748680471; species (common name): raccoon dog; species sets to show (click to select/deselect): mammals; sample: Q61; species: Nyctereutes procyonoides; common_name: raccoon dog; species_set: mammals; mitochondria_aligned_reads: 10009; total pre-processed reads: 206952411; reads aligning to SARS2: 1" role="graphics-symbol" aria-roledescription="arc mark" transform="translate(80,80)" d="M0,-80A80,80,0,1,0,73.862,-30.73L0,0Z" fill="#85b6b2" opacity="1"/><path aria-label="percent mitochondria reads: 12.15590743; species (common name): other; species sets to show (click to select/deselect): mammals; sample: Q61; species: other; common_name: other; species_set: mammals; mitochondria_aligned_reads: 1497; total pre-processed reads: 206952411; reads aligning to SARS2: 1" role="graphics-symbol" aria-roledescription="arc mark" transform="translate(80,80)" d="M73.862,-30.73A80,80,0,0,0,32.091,-73.281L0,0Z" fill="#d1615d" opacity="1"/></g></g><path class="foreground" aria-hidden="true" d="" display="none"/></g><g transform="translate(360,0)"><path class="background" aria-hidden="true" d="M0,0h160v160h-160Z"/><g><g class="mark-arc role-mark child_marks" role="graphics-object" aria-roledescription="arc mark container"><path aria-label="percent mitochondria reads: 6.79540811363; species (common name): dog; species sets to show (click to select/deselect): Crits-Christoph Figure 1; sample: Q61; species: Canis lupus; common_name: dog; species_set: Crits-Christoph Figure 1; mitochondria_aligned_reads: 1397; total pre-processed reads: 206952411; reads aligning to SARS2: 1" role="graphics-symbol" aria-roledescription="arc mark" transform="translate(80,80)" d="M33.129,-72.818A80,80,0,0,0,0,-80L0,0Z" fill="#e49444" opacity="1"/><path aria-label="percent mitochondria reads: 81.6665045238; species (common name): raccoon dog; species sets to show (click to select/deselect): Crits-Christoph Figure 1; sample: Q61; species: Nyctereutes procyonoides; common_name: raccoon dog; species_set: Crits-Christoph Figure 1; mitochondria_aligned_reads: 16789; total pre-processed reads: 206952411; reads aligning to SARS2: 1" role="graphics-symbol" aria-roledescription="arc mark" transform="translate(80,80)" d="M0,-80A80,80,0,1,0,73.084,-32.538L0,0Z" fill="#85b6b2" opacity="1"/><path aria-label="percent mitochondria reads: 11.5380873626; species (common name): other; species sets to show (click to select/deselect): Crits-Christoph Figure 1; sample: Q61; species: other; common_name: other; species_set: Crits-Christoph Figure 1; mitochondria_aligned_reads: 2372; total pre-processed reads: 206952411; reads aligning to SARS2: 1" role="graphics-symbol" aria-roledescription="arc mark" transform="translate(80,80)" d="M73.084,-32.538A80,80,0,0,0,33.129,-72.818L0,0Z" fill="#d1615d" opacity="1"/></g></g><path class="foreground" aria-hidden="true" d="" display="none"/></g><g transform="translate(540,0)"><path class="background" aria-hidden="true" d="M0,0h160v160h-160Z"/><g><g class="mark-arc role-mark child_marks" role="graphics-object" aria-roledescription="arc mark container"><path aria-label="percent mitochondria reads: 6.38220110558; species (common name): dog; species sets to show (click to select/deselect): Crits-Christoph Table S3; sample: Q61; species: Canis lupus; common_name: dog; species_set: Crits-Christoph Table S3; mitochondria_aligned_reads: 1397; total pre-processed reads: 206952411; reads aligning to SARS2: 1" role="graphics-symbol" aria-roledescription="arc mark" transform="translate(80,80)" d="M31.228,-73.654A80,80,0,0,0,0,-80L0,0Z" fill="#e49444" opacity="1"/><path aria-label="percent mitochondria reads: 76.7006258851; species (common name): raccoon dog; species sets to show (click to select/deselect): Crits-Christoph Table S3; sample: Q61; species: Nyctereutes procyonoides; common_name: raccoon dog; species_set: Crits-Christoph Table S3; mitochondria_aligned_reads: 16789; total pre-processed reads: 206952411; reads aligning to SARS2: 1" role="graphics-symbol" aria-roledescription="arc mark" transform="translate(80,80)" d="M0,-80A80,80,0,1,0,79.544,-8.532L0,0Z" fill="#85b6b2" opacity="1"/><path aria-label="percent mitochondria reads: 16.9171730093; species (common name): other; species sets to show (click to select/deselect): Crits-Christoph Table S3; sample: Q61; species: other; common_name: other; species_set: Crits-Christoph Table S3; mitochondria_aligned_reads: 3703; total pre-processed reads: 206952411; reads aligning to SARS2: 1" role="graphics-symbol" aria-roledescription="arc mark" transform="translate(80,80)" d="M79.544,-8.532A80,80,0,0,0,31.228,-73.654L0,0Z" fill="#d1615d" opacity="1"/></g></g><path class="foreground" aria-hidden="true" d="" display="none"/></g></g><g class="mark-group role-legend" role="graphics-symbol" aria-roledescription="legend" aria-label="Symbol legend titled 'species (common name)' for fill color with 5 values: chicken, dog, other, raccoon dog, spot-billed duck"><g transform="translate(-147,0)"><path class="background" aria-hidden="true" d="M0,0h129v89h-129Z" pointer-events="none"/><g><g class="mark-group role-legend-entry"><g transform="translate(0,16)"><path class="background" aria-hidden="true" d="M0,0h0v0h0Z" pointer-events="none"/><g><g class="mark-group role-scope" role="graphics-object" aria-roledescription="group mark container"><g transform="translate(0,0)"><path class="background" aria-hidden="true" d="M0,0h86.482421875v12.090169943749475h-86.482421875Z" pointer-events="none" opacity="1"/><g><g class="mark-symbol role-legend-symbol" pointer-events="none"><path transform="translate(6.5,6.5)" d="M-5.59,-5.59h11.18v11.18h-11.18Z" fill="#5778a4" stroke-width="1.5" opacity="1"/></g><g class="mark-text role-legend-label" pointer-events="none"><text text-anchor="start" transform="translate(17,9.5)" font-family="sans-serif" font-size="10px" fill="#000" opacity="1">chicken</text></g></g><path class="foreground" aria-hidden="true" d="" pointer-events="none" display="none"/></g><g transform="translate(0,15)"><path class="background" aria-hidden="true" d="M0,0h86.482421875v12.090169943749473h-86.482421875Z" pointer-events="none" opacity="1"/><g><g class="mark-symbol role-legend-symbol" pointer-events="none"><path transform="translate(6.5,6.5)" d="M-5.59,-5.59h11.18v11.18h-11.18Z" fill="#e49444" stroke-width="1.5" opacity="1"/></g><g class="mark-text role-legend-label" pointer-events="none"><text text-anchor="start" transform="translate(17,9.5)" font-family="sans-serif" font-size="10px" fill="#000" opacity="1">dog</text></g></g><path class="foreground" aria-hidden="true" d="" pointer-events="none" display="none"/></g><g transform="translate(0,30)"><path class="background" aria-hidden="true" d="M0,0h86.482421875v12.090169943749473h-86.482421875Z" pointer-events="none" opacity="1"/><g><g class="mark-symbol role-legend-symbol" pointer-events="none"><path transform="translate(6.5,6.5)" d="M-5.59,-5.59h11.18v11.18h-11.18Z" fill="#d1615d" stroke-width="1.5" opacity="1"/></g><g class="mark-text role-legend-label" pointer-events="none"><text text-anchor="start" transform="translate(17,9.5)" font-family="sans-serif" font-size="10px" fill="#000" opacity="1">other</text></g></g><path class="foreground" aria-hidden="true" d="" pointer-events="none" display="none"/></g><g transform="translate(0,45)"><path class="background" aria-hidden="true" d="M0,0h86.482421875v12.090169943749473h-86.482421875Z" pointer-events="none" opacity="1"/><g><g class="mark-symbol role-legend-symbol" pointer-events="none"><path transform="translate(6.5,6.5)" d="M-5.59,-5.59h11.18v11.18h-11.18Z" fill="#85b6b2" stroke-width="1.5" opacity="1"/></g><g class="mark-text role-legend-label" pointer-events="none"><text text-anchor="start" transform="translate(17,9.5)" font-family="sans-serif" font-size="10px" fill="#000" opacity="1">raccoon dog</text></g></g><path class="foreground" aria-hidden="true" d="" pointer-events="none" display="none"/></g><g transform="translate(0,60)"><path class="background" aria-hidden="true" d="M0,0h86.482421875v12.090169943749473h-86.482421875Z" pointer-events="none" opacity="1"/><g><g class="mark-symbol role-legend-symbol" pointer-events="none"><path transform="translate(6.5,6.5)" d="M-5.59,-5.59h11.18v11.18h-11.18Z" fill="#6a9f58" stroke-width="1.5" opacity="1"/></g><g class="mark-text role-legend-label" pointer-events="none"><text text-anchor="start" transform="translate(17,9.5)" font-family="sans-serif" font-size="10px" fill="#000" opacity="1">spot-billed duck</text></g></g><path class="foreground" aria-hidden="true" d="" pointer-events="none" display="none"/></g></g></g><path class="foreground" aria-hidden="true" d="" pointer-events="none" display="none"/></g></g><g class="mark-text role-legend-title" pointer-events="none"><text text-anchor="start" transform="translate(0,9)" font-family="sans-serif" font-size="11px" font-weight="bold" fill="#000" opacity="1">species (common name)</text></g></g><path class="foreground" aria-hidden="true" d="" pointer-events="none" display="none"/></g></g><g class="mark-group role-legend" role="graphics-symbol" aria-roledescription="legend" aria-label="Symbol legend titled 'species sets to show (click to select/deselect)' for opacity with 4 values: chordates, mammals, Crits-Christoph Figure 1, Crits-Christoph Table S3"><g transform="translate(0,178)"><path class="background" aria-hidden="true" d="M0,0h401v29h-401Z" pointer-events="none"/><g><g class="mark-group role-legend-entry"><g transform="translate(0,16)"><path class="background" aria-hidden="true" d="M0,0h0v0h0Z" pointer-events="none"/><g><g class="mark-group role-scope species_set_legend_entries" role="graphics-object" aria-roledescription="group mark container"><g transform="translate(0,0.25)"><path class="background" aria-hidden="true" d="M0,0h59.916015625v12.5h-59.916015625Z" opacity="1"/><g><g class="mark-symbol role-legend-symbol species_set_legend_symbols"><path transform="translate(6,6)" d="M5,0A5,5,0,1,1,-5,0A5,5,0,1,1,5,0" fill="black" fill-opacity="1" stroke-width="1.5" opacity="1"/></g><g class="mark-text role-legend-label species_set_legend_labels"><text text-anchor="start" transform="translate(16,9)" font-family="sans-serif" font-size="10px" fill="#000" opacity="1">chordates</text></g></g><path class="foreground" aria-hidden="true" d="" display="none"/></g><g transform="translate(71,0.25)"><path class="background" aria-hidden="true" d="M0,0h59.3349609375v12.5h-59.3349609375Z" opacity="1"/><g><g class="mark-symbol role-legend-symbol species_set_legend_symbols"><path transform="translate(6,6)" d="M5,0A5,5,0,1,1,-5,0A5,5,0,1,1,5,0" fill="black" fill-opacity="1" stroke-width="1.5" opacity="1"/></g><g class="mark-text role-legend-label species_set_legend_labels"><text text-anchor="start" transform="translate(16,9)" font-family="sans-serif" font-size="10px" fill="#000" opacity="1">mammals</text></g></g><path class="foreground" aria-hidden="true" d="" display="none"/></g><g transform="translate(142,0.25)"><path class="background" aria-hidden="true" d="M0,0h122.142578125v12.5h-122.142578125Z" opacity="1"/><g><g class="mark-symbol role-legend-symbol species_set_legend_symbols"><path transform="translate(6,6)" d="M5,0A5,5,0,1,1,-5,0A5,5,0,1,1,5,0" fill="black" fill-opacity="1" stroke-width="1.5" opacity="1"/></g><g class="mark-text role-legend-label species_set_legend_labels"><text text-anchor="start" transform="translate(16,9)" font-family="sans-serif" font-size="10px" fill="#000" opacity="1">Crits-Christoph Figure 1</text></g></g><path class="foreground" aria-hidden="true" d="" display="none"/></g><g transform="translate(276,0.25)"><path class="background" aria-hidden="true" d="M0,0h124.3740234375v12.5h-124.3740234375Z" opacity="1"/><g><g class="mark-symbol role-legend-symbol species_set_legend_symbols"><path transform="translate(6,6)" d="M5,0A5,5,0,1,1,-5,0A5,5,0,1,1,5,0" fill="black" fill-opacity="1" stroke-width="1.5" opacity="1"/></g><g class="mark-text role-legend-label species_set_legend_labels"><text text-anchor="start" transform="translate(16,9)" font-family="sans-serif" font-size="10px" fill="#000" opacity="1">Crits-Christoph Table S3</text></g></g><path class="foreground" aria-hidden="true" d="" display="none"/></g></g></g><path class="foreground" aria-hidden="true" d="" pointer-events="none" display="none"/></g></g><g class="mark-text role-legend-title" pointer-events="none"><text text-anchor="start" transform="translate(0,9)" font-family="sans-serif" font-size="11px" font-weight="bold" fill="#000" opacity="1">species sets to show (click to select/deselect)</text></g></g><path class="foreground" aria-hidden="true" d="" pointer-events="none" display="none"/></g></g></g><path class="foreground" aria-hidden="true" d="" display="none"/></g></g></g></svg>