<svg xmlns="http://www.w3.org/2000/svg" xmlns:xlink="http://www.w3.org/1999/xlink" version="1.1" class="marks" width="620" height="342" viewBox="0 0 620 342"><rect width="620" height="342" fill="white"/><g fill="none" stroke-miterlimit="10" transform="translate(59,27)"><g class="mark-group role-frame root" role="graphics-object" aria-roledescription="group mark container"><g transform="translate(0,0)"><path class="background" aria-hidden="true" d="M0.5,0.5h200v200h-200Z" stroke="#ddd"/><g><g class="mark-group role-axis" role="graphics-symbol" aria-roledescription="axis" aria-label="X-axis titled '% species mitochondria reads' for a linear scale with values from 0 to 100"><g transform="translate(0.5,200.5)"><path class="background" aria-hidden="true" d="M0,0h0v0h0Z" pointer-events="none"/><g><g class="mark-rule role-axis-tick" pointer-events="none"><line transform="translate(0,0)" x2="0" y2="5" stroke="#888" stroke-width="1" opacity="1"/><line transform="translate(40,0)" x2="0" y2="5" stroke="#888" stroke-width="1" opacity="1"/><line transform="translate(80,0)" x2="0" y2="5" stroke="#888" stroke-width="1" opacity="1"/><line transform="translate(120,0)" x2="0" y2="5" stroke="#888" stroke-width="1" opacity="1"/><line transform="translate(160,0)" x2="0" y2="5" stroke="#888" stroke-width="1" opacity="1"/><line transform="translate(200,0)" x2="0" y2="5" stroke="#888" stroke-width="1" opacity="1"/></g><g class="mark-text role-axis-label" pointer-events="none"><text text-anchor="start" transform="translate(0,15)" font-family="sans-serif" font-size="10px" fill="#000" opacity="1">0</text><text text-anchor="middle" transform="translate(40,15)" font-family="sans-serif" font-size="10px" fill="#000" opacity="1">20</text><text text-anchor="middle" transform="translate(80,15)" font-family="sans-serif" font-size="10px" fill="#000" opacity="1">40</text><text text-anchor="middle" transform="translate(120,15)" font-family="sans-serif" font-size="10px" fill="#000" opacity="1">60</text><text text-anchor="middle" transform="translate(160,15)" font-family="sans-serif" font-size="10px" fill="#000" opacity="1">80</text><text text-anchor="end" transform="translate(200,15)" font-family="sans-serif" font-size="10px" fill="#000" opacity="1">100</text></g><g class="mark-rule role-axis-domain" pointer-events="none"><line transform="translate(0,0)" x2="200" y2="0" stroke="#888" stroke-width="1" opacity="1"/></g><g class="mark-text role-axis-title" pointer-events="none"><text text-anchor="middle" transform="translate(100,30)" font-family="sans-serif" font-size="11px" font-weight="bold" fill="#000" opacity="1">% species mitochondria reads</text></g></g><path class="foreground" aria-hidden="true" d="" pointer-events="none" display="none"/></g></g><g class="mark-group role-axis" role="graphics-symbol" aria-roledescription="axis" aria-label="Y-axis titled '% SARS2 reads' for a linear scale with values from 0.0000 to 0.0028"><g transform="translate(0.5,0.5)"><path class="background" aria-hidden="true" d="M0,0h0v0h0Z" pointer-events="none"/><g><g class="mark-rule role-axis-tick" pointer-events="none"><line transform="translate(0,200)" x2="-5" y2="0" stroke="#888" stroke-width="1" opacity="1"/><line transform="translate(0,164)" x2="-5" y2="0" stroke="#888" stroke-width="1" opacity="1"/><line transform="translate(0,129)" x2="-5" y2="0" stroke="#888" stroke-width="1" opacity="1"/><line transform="translate(0,93)" x2="-5" y2="0" stroke="#888" stroke-width="1" opacity="1"/><line transform="translate(0,57)" x2="-5" y2="0" stroke="#888" stroke-width="1" opacity="1"/><line transform="translate(0,21)" x2="-5" y2="0" stroke="#888" stroke-width="1" opacity="1"/></g><g class="mark-text role-axis-label" pointer-events="none"><text text-anchor="end" transform="translate(-7,203)" font-family="sans-serif" font-size="10px" fill="#000" opacity="1">0.0000</text><text text-anchor="end" transform="translate(-7,167.28571428571428)" font-family="sans-serif" font-size="10px" fill="#000" opacity="1">0.0005</text><text text-anchor="end" transform="translate(-7,131.57142857142856)" font-family="sans-serif" font-size="10px" fill="#000" opacity="1">0.0010</text><text text-anchor="end" transform="translate(-7,95.85714285714286)" font-family="sans-serif" font-size="10px" fill="#000" opacity="1">0.0015</text><text text-anchor="end" transform="translate(-7,60.14285714285714)" font-family="sans-serif" font-size="10px" fill="#000" opacity="1">0.0020</text><text text-anchor="end" transform="translate(-7,24.42857142857142)" font-family="sans-serif" font-size="10px" fill="#000" opacity="1">0.0025</text></g><g class="mark-rule role-axis-domain" pointer-events="none"><line transform="translate(0,200)" x2="0" y2="-200" stroke="#888" stroke-width="1" opacity="1"/></g><g class="mark-text role-axis-title" pointer-events="none"><text text-anchor="middle" transform="translate(-41.5859375,100) rotate(-90) translate(0,-2)" font-family="sans-serif" font-size="11px" font-weight="bold" fill="#000" opacity="1">% SARS2 reads</text></g></g><path class="foreground" aria-hidden="true" d="" pointer-events="none" display="none"/></g></g><g class="mark-symbol role-mark view_2_marks" role="graphics-object" aria-roledescription="symbol mark container"><path aria-label="% species mitochondria reads: 4.53074433657; % SARS2 reads: 0.00000544943554361; Collection date (click to select/deselect): 2020-02-03; species (common name): human; sample: 8-25-M1; Sample name: Env_0719; Collection date: 2020-02-03; description: RNA sequencing of total nucleic acids from environmental swabs for metagenomics; Isolation source: West Wing  of HSM; species_mitochondrial_reads: 14; total_reads: 4.48e+8; preprocessed_reads: 4.4e+8; SARS2_aligned_reads: 24; top_species: Oriental rat snake (33%), Amur hedgehog (30%), other (13%), Mayalan field rat (9%), chicken (8%), human (5%), sand cat (3%)" role="graphics-symbol" aria-roledescription="circle" transform="translate(9.06148867313916,199.6107546040281)" d="M3.536,0A3.536,3.536,0,1,1,-3.536,0A3.536,3.536,0,1,1,3.536,0" fill="black" stroke-width="2" opacity="0.5"/><path aria-label="% species mitochondria reads: 13.1721890277; % SARS2 reads: 0.0000445607238428; Collection date (click to select/deselect): 2020-01-01; species (common name): human; sample: A101; Sample name: Env_0101; Collection date: 2020-01-01; description: RNA sequencing of total nucleic acids from environmental swabs for metagenomics; Isolation source: West Wing  of HSM; species_mitochondrial_reads: 2.43e+3; total_reads: 1.52e+8; preprocessed_reads: 1.5e+8; SARS2_aligned_reads: 67; top_species: Largemouth bass (49%), carp (15%), human (13%), other (13%), goat (5%), sheep (3%), pig (3%)" role="graphics-symbol" aria-roledescription="circle" transform="translate(26.344378055404672,196.81709115408557)" d="M3.536,0A3.536,3.536,0,1,1,-3.536,0A3.536,3.536,0,1,1,3.536,0" fill="black" stroke-width="2" opacity="0.5"/><path aria-label="% species mitochondria reads: 0.031051614684; % SARS2 reads: 0.00000178517508314; Collection date (click to select/deselect): 2020-01-01; species (common name): human; sample: A14; Sample name: Env_0014; Collection date: 2020-01-01; description: RNA sequencing of total nucleic acids from environmental swabs for metagenomics; Isolation source: West Wing  of HSM; species_mitochondrial_reads: 18; total_reads: 2.25e+8; preprocessed_reads: 2.24e+8; SARS2_aligned_reads: 4; top_species: carp (99%), other (1%), human (0%)" role="graphics-symbol" aria-roledescription="circle" transform="translate(0.06210322936792713,199.87248749406115)" d="M3.536,0A3.536,3.536,0,1,1,-3.536,0A3.536,3.536,0,1,1,3.536,0" fill="black" stroke-width="2" opacity="0.5"/><path aria-label="% species mitochondria reads: 58.2389937107; % SARS2 reads: 0.000163701792564; Collection date (click to select/deselect): 2020-01-01; species (common name): human; sample: A15; Sample name: Env_0015; Collection date: 2020-01-01; description: RNA sequencing of total nucleic acids from environmental swabs for metagenomics; Isolation source: West Wing  of HSM; species_mitochondrial_reads: 463; total_reads: 1.25e+8; preprocessed_reads: 1.22e+8; SARS2_aligned_reads: 200; top_species: human (58%), other (13%), catfish (13%), snakehead fish (9%), chicken (7%)" role="graphics-symbol" aria-roledescription="circle" transform="translate(116.47798742138365,188.30701481685037)" d="M3.536,0A3.536,3.536,0,1,1,-3.536,0A3.536,3.536,0,1,1,3.536,0" fill="black" stroke-width="2" opacity="0.5"/><path aria-label="% species mitochondria reads: 44.2262739598; % SARS2 reads: 0.0000724455243315; Collection date (click to select/deselect): 2020-01-01; species (common name): human; sample: A18; Sample name: Env_0018; Collection date: 2020-01-01; description: RNA sequencing of total nucleic acids from environmental swabs for metagenomics; Isolation source: West Wing  of HSM; species_mitochondrial_reads: 1.89e+3; total_reads: 3.13e+8; preprocessed_reads: 3.12e+8; SARS2_aligned_reads: 226; top_species: human (44%), other (14%), carp (12%), sheep (10%), chicken (8%), yellow croaker (fish) (7%), cow (4%)" role="graphics-symbol" aria-roledescription="circle" transform="translate(88.4525479195886,194.8253196906047)" d="M3.536,0A3.536,3.536,0,1,1,-3.536,0A3.536,3.536,0,1,1,3.536,0" fill="black" stroke-width="2" opacity="0.5"/><path aria-label="% species mitochondria reads: 3.13429421185; % SARS2 reads: 0.0000284902358393; Collection date (click to select/deselect): 2020-01-01; species (common name): human; sample: A2; Sample name: Env_0002; Collection date: 2020-01-01; description: RNA sequencing of total nucleic acids from environmental swabs for metagenomics; Isolation source: West Wing  of HSM; species_mitochondrial_reads: 137; total_reads: 2.32e+8; preprocessed_reads: 2.32e+8; SARS2_aligned_reads: 66; top_species: yellow croaker (fish) (47%), chicken (19%), sand cat (16%), other (9%), sheep (7%), human (3%)" role="graphics-symbol" aria-roledescription="circle" transform="translate(6.26858842370167,197.96498315433405)" d="M3.536,0A3.536,3.536,0,1,1,-3.536,0A3.536,3.536,0,1,1,3.536,0" fill="black" stroke-width="2" opacity="0.5"/><path aria-label="% species mitochondria reads: 0.00589600913881; % SARS2 reads: 0.0000193720041265; Collection date (click to select/deselect): 2020-01-01; species (common name): human; sample: A33; Sample name: Env_0033; Collection date: 2020-01-01; description: RNA sequencing of total nucleic acids from environmental swabs for metagenomics; Isolation source: West Wing  of HSM; species_mitochondrial_reads: 16; total_reads: 1.81e+8; preprocessed_reads: 1.81e+8; SARS2_aligned_reads: 35; top_species: chicken (94%), other (5%), pig (0%), sheep (0%)" role="graphics-symbol" aria-roledescription="circle" transform="translate(0.011792018277628331,198.61628541953712)" d="M3.536,0A3.536,3.536,0,1,1,-3.536,0A3.536,3.536,0,1,1,3.536,0" fill="black" stroke-width="2" opacity="0.5"/><path aria-label="% species mitochondria reads: 0.865771812081; % SARS2 reads: 0.0000704380015836; Collection date (click to select/deselect): 2020-01-01; species (common name): human; sample: A55; Sample name: Env_0055; Collection date: 2020-01-01; description: RNA sequencing of total nucleic acids from environmental swabs for metagenomics; Isolation source: West Wing  of HSM; species_mitochondrial_reads: 1.81e+3; total_reads: 2.52e+8; preprocessed_reads: 2.5e+8; SARS2_aligned_reads: 176; top_species: chicken (55%), spot-billed duck (35%), other (6%), sheep (3%), human (1%), pig (0%)" role="graphics-symbol" aria-roledescription="circle" transform="translate(1.7315436241610738,194.96871417259956)" d="M3.536,0A3.536,3.536,0,1,1,-3.536,0A3.536,3.536,0,1,1,3.536,0" fill="black" stroke-width="2" opacity="0.5"/><path aria-label="% species mitochondria reads: 1.85381651684; % SARS2 reads: 0.0000745696481787; Collection date (click to select/deselect): 2020-01-01; species (common name): human; sample: A61; Sample name: Env_0061; Collection date: 2020-01-01; description: RNA sequencing of total nucleic acids from environmental swabs for metagenomics; Isolation source: West Wing  of HSM; species_mitochondrial_reads: 332; total_reads: 4.5e+8; preprocessed_reads: 4.48e+8; SARS2_aligned_reads: 334; top_species: sheep (46%), pig (25%), other (15%), chicken (10%), goat (4%)" role="graphics-symbol" aria-roledescription="circle" transform="translate(3.707633033670222,194.67359655866724)" d="M3.536,0A3.536,3.536,0,1,1,-3.536,0A3.536,3.536,0,1,1,3.536,0" fill="black" stroke-width="2" opacity="0.5"/><path aria-label="% species mitochondria reads: 13.612746796; % SARS2 reads: 0.0000281200103205; Collection date (click to select/deselect): 2020-01-01; species (common name): human; sample: A63; Sample name: Env_0063; Collection date: 2020-01-01; description: RNA sequencing of total nucleic acids from environmental swabs for metagenomics; Isolation source: West Wing  of HSM; species_mitochondrial_reads: 393; total_reads: 2.32e+8; preprocessed_reads: 2.31e+8; SARS2_aligned_reads: 65; top_species: sheep (70%), human (14%), other (9%), chicken (7%)" role="graphics-symbol" aria-roledescription="circle" transform="translate(27.22549359196398,197.99142783425168)" d="M3.536,0A3.536,3.536,0,1,1,-3.536,0A3.536,3.536,0,1,1,3.536,0" fill="black" stroke-width="2" opacity="0.5"/><path aria-label="% species mitochondria reads: 6.38484818901; % SARS2 reads: 0.0000589190807684; Collection date (click to select/deselect): 2020-01-01; species (common name): human; sample: A87; Sample name: Env_0087; Collection date: 2020-01-01; description: RNA sequencing of total nucleic acids from environmental swabs for metagenomics; Isolation source: West Wing  of HSM; species_mitochondrial_reads: 654; total_reads: 2.35e+8; preprocessed_reads: 2.31e+8; SARS2_aligned_reads: 136; top_species: chicken (21%), other (20%), spot-billed duck (13%), Largemouth bass (11%), dog (10%), carp (9%), human (6%), goat (5%), sheep (4%)" role="graphics-symbol" aria-roledescription="circle" transform="translate(12.769696378014253,195.79149423082742)" d="M3.536,0A3.536,3.536,0,1,1,-3.536,0A3.536,3.536,0,1,1,3.536,0" fill="black" stroke-width="2" opacity="0.5"/><path aria-label="% species mitochondria reads: 3.50754121361; % SARS2 reads: 0.0000090891516713; Collection date (click to select/deselect): 2020-01-01; species (common name): human; sample: A88; Sample name: Env_0088; Collection date: 2020-01-01; description: RNA sequencing of total nucleic acids from environmental swabs for metagenomics; Isolation source: West Wing  of HSM; species_mitochondrial_reads: 200; total_reads: 1.99e+8; preprocessed_reads: 1.98e+8; SARS2_aligned_reads: 18; top_species: snakehead fish (88%), other (9%), human (4%), cow (0%)" role="graphics-symbol" aria-roledescription="circle" transform="translate(7.015082427218519,199.35077488062143)" d="M3.536,0A3.536,3.536,0,1,1,-3.536,0A3.536,3.536,0,1,1,3.536,0" fill="black" stroke-width="2" opacity="0.5"/><path aria-label="% species mitochondria reads: 0.128246232767; % SARS2 reads: 0.00000835567571389; Collection date (click to select/deselect): 2020-01-01; species (common name): human; sample: A90; Sample name: Env_0090; Collection date: 2020-01-01; description: RNA sequencing of total nucleic acids from environmental swabs for metagenomics; Isolation source: West Wing  of HSM; species_mitochondrial_reads: 36; total_reads: 2.64e+8; preprocessed_reads: 2.63e+8; SARS2_aligned_reads: 22; top_species: snakehead fish (90%), carp (9%), other (1%), human (0%)" role="graphics-symbol" aria-roledescription="circle" transform="translate(0.25649246553382493,199.40316602043674)" d="M3.536,0A3.536,3.536,0,1,1,-3.536,0A3.536,3.536,0,1,1,3.536,0" fill="black" stroke-width="2" opacity="0.5"/><path aria-label="% species mitochondria reads: 0.907143757087; % SARS2 reads: 0.00000107543943625; Collection date (click to select/deselect): 2020-01-01; species (common name): human; sample: A96; Sample name: Env_0096; Collection date: 2020-01-01; description: RNA sequencing of total nucleic acids from environmental swabs for metagenomics; Isolation source: West Wing  of HSM; species_mitochondrial_reads: 144; total_reads: 3.73e+8; preprocessed_reads: 3.72e+8; SARS2_aligned_reads: 4; top_species: swamp eel (54%), carp (39%), other (6%), human (1%), sheep (0%)" role="graphics-symbol" aria-roledescription="circle" transform="translate(1.8142875141741213,199.92318289741078)" d="M3.536,0A3.536,3.536,0,1,1,-3.536,0A3.536,3.536,0,1,1,3.536,0" fill="black" stroke-width="2" opacity="0.5"/><path aria-label="% species mitochondria reads: 32.2601143825; % SARS2 reads: 0.000191284463583; Collection date (click to select/deselect): 2020-01-01; species (common name): human; sample: B17; Sample name: Env_0138; Collection date: 2020-01-01; description: RNA sequencing of total nucleic acids from environmental swabs for metagenomics; Isolation source: West Wing  of HSM; species_mitochondrial_reads: 1.52e+3; total_reads: 2.13e+8; preprocessed_reads: 2.12e+8; SARS2_aligned_reads: 406; top_species: human (32%), sheep (24%), Largemouth bass (17%), other (10%), chicken (7%), cow (6%), pig (4%)" role="graphics-symbol" aria-roledescription="circle" transform="translate(64.52022876509214,186.33682402979883)" d="M3.536,0A3.536,3.536,0,1,1,-3.536,0A3.536,3.536,0,1,1,3.536,0" fill="black" stroke-width="2" opacity="0.5"/><path aria-label="% species mitochondria reads: 0.116099071207; % SARS2 reads: 0.000638434531941; Collection date (click to select/deselect): 2020-01-01; species (common name): human; sample: B5; Sample name: Env_0126; Collection date: 2020-01-01; description: RNA sequencing of total nucleic acids from environmental swabs for metagenomics; Isolation source: West Wing  of HSM; species_mitochondrial_reads: 480; total_reads: 2.29e+8; preprocessed_reads: 2.29e+8; SARS2_aligned_reads: 1.46e+3; top_species: catfish (73%), Largemouth bass (21%), cow (2%), sheep (2%), other (1%)" role="graphics-symbol" aria-roledescription="circle" transform="translate(0.23219814241486067,154.39753343279867)" d="M3.536,0A3.536,3.536,0,1,1,-3.536,0A3.536,3.536,0,1,1,3.536,0" fill="black" stroke-width="2" opacity="0.5"/><path aria-label="% species mitochondria reads: 99.9526021424; % SARS2 reads: 0.00000241871067754; Collection date (click to select/deselect): 2020-02-09; species (common name): human; sample: CSSQ-1-1; Sample name: Env_0788; Collection date: 2020-02-09; description: RNA sequencing of total nucleic acids from environmental swabs for metagenomics; Isolation source: Sewerage well in the surrounding areas; species_mitochondrial_reads: 4.22e+4; total_reads: 4.15e+8; preprocessed_reads: 4.13e+8; SARS2_aligned_reads: 10; top_species: human (100%), other (0%)" role="graphics-symbol" aria-roledescription="circle" transform="translate(199.9052042847663,199.82723495160434)" d="M3.536,0A3.536,3.536,0,1,1,-3.536,0A3.536,3.536,0,1,1,3.536,0" fill="black" stroke-width="2" opacity="0.5"/><path aria-label="% species mitochondria reads: 42.3444399839; % SARS2 reads: 0.00016928257577; Collection date (click to select/deselect): 2020-01-01; species (common name): human; sample: D32; Sample name: Env_0213; Collection date: 2020-01-01; description: RNA sequencing of total nucleic acids from environmental swabs for metagenomics; Isolation source: West Wing  of HSM; species_mitochondrial_reads: 5.27e+3; total_reads: 1.97e+8; preprocessed_reads: 1.93e+8; SARS2_aligned_reads: 326; top_species: human (42%), cow (16%), chicken (16%), sheep (9%), pig (8%), spot-billed duck (6%), other (3%)" role="graphics-symbol" aria-roledescription="circle" transform="translate(84.68887996788438,187.9083874449686)" d="M3.536,0A3.536,3.536,0,1,1,-3.536,0A3.536,3.536,0,1,1,3.536,0" fill="black" stroke-width="2" opacity="0.5"/><path aria-label="% species mitochondria reads: 0.0548955024899; % SARS2 reads: 0.00000306466926561; Collection date (click to select/deselect): 2020-01-01; species (common name): human; sample: E48; Sample name: Env_0262; Collection date: 2020-01-01; description: RNA sequencing of total nucleic acids from environmental swabs for metagenomics; Isolation source: East Wing  of HSM; species_mitochondrial_reads: 28; total_reads: 3.27e+8; preprocessed_reads: 3.26e+8; SARS2_aligned_reads: 10; top_species: cow (96%), other (4%)" role="graphics-symbol" aria-roledescription="circle" transform="translate(0.10979100497980629,199.78109505245624)" d="M3.536,0A3.536,3.536,0,1,1,-3.536,0A3.536,3.536,0,1,1,3.536,0" fill="black" stroke-width="2" opacity="0.5"/><path aria-label="% species mitochondria reads: 13.8947368421; % SARS2 reads: 0.0000209184397301; Collection date (click to select/deselect): 2020-01-01; species (common name): human; sample: E61; Sample name: Env_0275; Collection date: 2020-01-01; description: RNA sequencing of total nucleic acids from environmental swabs for metagenomics; Isolation source: East Wing  of HSM; species_mitochondrial_reads: 66; total_reads: 2.73e+8; preprocessed_reads: 2.72e+8; SARS2_aligned_reads: 57; top_species: carp (35%), pig (19%), cow (18%), human (14%), other (10%), sheep (5%)" role="graphics-symbol" aria-roledescription="circle" transform="translate(27.789473684210524,198.50582573356195)" d="M3.536,0A3.536,3.536,0,1,1,-3.536,0A3.536,3.536,0,1,1,3.536,0" fill="black" stroke-width="2" opacity="0.5"/><path aria-label="% species mitochondria reads: 12.2335789557; % SARS2 reads: 0.0000533596104288; Collection date (click to select/deselect): 2020-01-01; species (common name): human; sample: E7; Sample name: Env_0221; Collection date: 2020-01-01; description: RNA sequencing of total nucleic acids from environmental swabs for metagenomics; Isolation source: West Wing  of HSM; species_mitochondrial_reads: 3.09e+3; total_reads: 2.37e+8; preprocessed_reads: 2.36e+8; SARS2_aligned_reads: 126; top_species: Largemouth bass (42%), carp (17%), chicken (12%), human (12%), other (7%), spot-billed duck (5%), pig (2%), sheep (2%)" role="graphics-symbol" aria-roledescription="circle" transform="translate(24.467157911417477,196.18859925508798)" d="M3.536,0A3.536,3.536,0,1,1,-3.536,0A3.536,3.536,0,1,1,3.536,0" fill="black" stroke-width="2" opacity="0.5"/><path aria-label="% species mitochondria reads: 0.670731707317; % SARS2 reads: 0.00278185526138; Collection date (click to select/deselect): 2020-01-01; species (common name): human; sample: F100; Sample name: Env_0400; Collection date: 2020-01-01; description: RNA sequencing of total nucleic acids from environmental swabs for metagenomics; Isolation source: West Wing  of HSM; species_mitochondrial_reads: 11; total_reads: 2.6e+8; preprocessed_reads: 2.59e+8; SARS2_aligned_reads: 7.2e+3; top_species: catfish (51%), Largemouth bass (37%), sheep (7%), other (2%), cow (2%), human (1%)" role="graphics-symbol" aria-roledescription="circle" transform="translate(1.3414634146341464,1.296052758834687)" d="M3.536,0A3.536,3.536,0,1,1,-3.536,0A3.536,3.536,0,1,1,3.536,0" fill="black" stroke-width="2" opacity="0.5"/><path aria-label="% species mitochondria reads: 90.5040017305; % SARS2 reads: 0.0000650604770069; Collection date (click to select/deselect): 2020-01-01; species (common name): human; sample: F46; Sample name: Env_0346; Collection date: 2020-01-01; description: RNA sequencing of total nucleic acids from environmental swabs for metagenomics; Isolation source: West Wing  of HSM; species_mitochondrial_reads: 4.18e+3; total_reads: 3.72e+8; preprocessed_reads: 3.7e+8; SARS2_aligned_reads: 241; top_species: human (91%), other (9%)" role="graphics-symbol" aria-roledescription="circle" transform="translate(181.0080034609561,195.352823070936)" d="M3.536,0A3.536,3.536,0,1,1,-3.536,0A3.536,3.536,0,1,1,3.536,0" fill="black" stroke-width="2" opacity="0.5"/><path aria-label="% species mitochondria reads: 76.6494845361; % SARS2 reads: 0.0000825532484963; Collection date (click to select/deselect): 2020-01-01; species (common name): human; sample: F98; Sample name: Env_0398; Collection date: 2020-01-01; description: RNA sequencing of total nucleic acids from environmental swabs for metagenomics; Isolation source: West Wing  of HSM; species_mitochondrial_reads: 1.49e+3; total_reads: 4.01e+8; preprocessed_reads: 4e+8; SARS2_aligned_reads: 330; top_species: human (77%), other (12%), Largemouth bass (6%), pig (5%)" role="graphics-symbol" aria-roledescription="circle" transform="translate(153.29896907216497,194.1033393931182)" d="M3.536,0A3.536,3.536,0,1,1,-3.536,0A3.536,3.536,0,1,1,3.536,0" fill="black" stroke-width="2" opacity="0.5"/><path aria-label="% species mitochondria reads: 6.77756149354; % SARS2 reads: 0.00000550329358913; Collection date (click to select/deselect): 2020-01-12; species (common name): human; sample: Q37; Sample name: Env_0552; Collection date: 2020-01-12; description: RNA sequencing of total nucleic acids from environmental swabs for metagenomics; Isolation source: West Wing  of HSM; species_mitochondrial_reads: 383; total_reads: 1.07e+8; preprocessed_reads: 9.09e+7; SARS2_aligned_reads: 5; top_species: Oriental rat snake (44%), Chinese cobra (30%), other (10%), spotted dove (7%), human (7%), Amur hedgehog (2%)" role="graphics-symbol" aria-roledescription="circle" transform="translate(13.555122987081933,199.60690760077614)" d="M3.536,0A3.536,3.536,0,1,1,-3.536,0A3.536,3.536,0,1,1,3.536,0" fill="black" stroke-width="2" opacity="0.5"/><path aria-label="% species mitochondria reads: 0.0388953714508; % SARS2 reads: 4.8320287508e-7; Collection date (click to select/deselect): 2020-01-12; species (common name): human; sample: Q61; Sample name: Env_0576; Collection date: 2020-01-12; description: RNA sequencing of total nucleic acids from environmental swabs for metagenomics; Isolation source: West Wing  of HSM; species_mitochondrial_reads: 12; total_reads: 2.13e+8; preprocessed_reads: 2.07e+8; SARS2_aligned_reads: 1; top_species: spot-billed duck (54%), raccoon dog (32%), other (6%), chicken (5%), dog (3%)" role="graphics-symbol" aria-roledescription="circle" transform="translate(0.07779074290159471,199.96548550892282)" d="M3.536,0A3.536,3.536,0,1,1,-3.536,0A3.536,3.536,0,1,1,3.536,0" fill="black" stroke-width="2" opacity="0.5"/><path aria-label="% species mitochondria reads: 2.18340611354; % SARS2 reads: 0.00000415266671217; Collection date (click to select/deselect): 2020-01-12; species (common name): human; sample: Q64; Sample name: Env_0579; Collection date: 2020-01-12; description: RNA sequencing of total nucleic acids from environmental swabs for metagenomics; Isolation source: West Wing  of HSM; species_mitochondrial_reads: 35; total_reads: 1.2e+8; preprocessed_reads: 1.2e+8; SARS2_aligned_reads: 5; top_species: chicken (28%), spot-billed duck (21%), other (15%), dog (9%), rabbit (9%), raccoon dog (7%), Himalayan marmot (6%), hoary bamboo rat (5%)" role="graphics-symbol" aria-roledescription="circle" transform="translate(4.366812227074235,199.7033809491308)" d="M3.536,0A3.536,3.536,0,1,1,-3.536,0A3.536,3.536,0,1,1,3.536,0" fill="black" stroke-width="2" opacity="0.5"/><path aria-label="% species mitochondria reads: 7.1930773391; % SARS2 reads: 0.00000689085101022; Collection date (click to select/deselect): 2020-01-12; species (common name): human; sample: Q68; Sample name: Env_0583; Collection date: 2020-01-12; description: RNA sequencing of total nucleic acids from environmental swabs for metagenomics; Isolation source: West Wing  of HSM; species_mitochondrial_reads: 133; total_reads: 1.1e+8; preprocessed_reads: 8.71e+7; SARS2_aligned_reads: 6; top_species: chicken (24%), dog (13%), spot-billed duck (11%), Chinese salamander (11%), other (10%), rabbit (10%), hoary bamboo rat (9%), human (7%), spotted dove (6%)" role="graphics-symbol" aria-roledescription="circle" transform="translate(14.386154678204436,199.50779635641265)" d="M3.536,0A3.536,3.536,0,1,1,-3.536,0A3.536,3.536,0,1,1,3.536,0" fill="black" stroke-width="2" opacity="0.5"/><path aria-label="% species mitochondria reads: 1.10146862483; % SARS2 reads: 0.00000187304567585; Collection date (click to select/deselect): 2020-01-12; species (common name): human; sample: Q69; Sample name: Env_0584; Collection date: 2020-01-12; description: RNA sequencing of total nucleic acids from environmental swabs for metagenomics; Isolation source: West Wing  of HSM; species_mitochondrial_reads: 33; total_reads: 1.07e+8; preprocessed_reads: 1.07e+8; SARS2_aligned_reads: 2; top_species: dog (89%), other (11%)" role="graphics-symbol" aria-roledescription="circle" transform="translate(2.202937249666222,199.86621102315368)" d="M3.536,0A3.536,3.536,0,1,1,-3.536,0A3.536,3.536,0,1,1,3.536,0" fill="black" stroke-width="2" opacity="0.5"/><path aria-label="% species mitochondria reads: 0.322268772156; % SARS2 reads: 0.00000137454252132; Collection date (click to select/deselect): 2020-01-12; species (common name): human; sample: Q70; Sample name: Env_0585; Collection date: 2020-01-12; description: RNA sequencing of total nucleic acids from environmental swabs for metagenomics; Isolation source: West Wing  of HSM; species_mitochondrial_reads: 10; total_reads: 1.49e+8; preprocessed_reads: 1.46e+8; SARS2_aligned_reads: 2; top_species: Malayan porcupine (85%), other (10%), chicken (5%)" role="graphics-symbol" aria-roledescription="circle" transform="translate(0.6445375443119562,199.90181839133416)" d="M3.536,0A3.536,3.536,0,1,1,-3.536,0A3.536,3.536,0,1,1,3.536,0" fill="black" stroke-width="2" opacity="0.5"/><path aria-label="% species mitochondria reads: 12.6500461681; % SARS2 reads: 0.0000229033695225; Collection date (click to select/deselect): 2020-02-22; species (common name): human; sample: RLC-3; Sample name: Env_0868; Collection date: 2020-02-22; description: RNA sequencing of total nucleic acids from environmental swabs for metagenomics; Isolation source: Warehouses related to west wing  of HSM; species_mitochondrial_reads: 274; total_reads: 1.23e+8; preprocessed_reads: 1.22e+8; SARS2_aligned_reads: 28; top_species: Oriental rat snake (41%), spotted dove (18%), human (13%), chicken (9%), quail (7%), Chinese cobra (7%), other (5%), pig (1%)" role="graphics-symbol" aria-roledescription="circle" transform="translate(25.30009233610342,198.36404503411023)" d="M3.536,0A3.536,3.536,0,1,1,-3.536,0A3.536,3.536,0,1,1,3.536,0" fill="black" stroke-width="2" opacity="0.5"/><path aria-label="% species mitochondria reads: 6.02798708288; % SARS2 reads: 0.00000391008106484; Collection date (click to select/deselect): 2020-02-22; species (common name): human; sample: SJ-D; Sample name: Env_0862; Collection date: 2020-02-22; description: RNA sequencing of total nucleic acids from environmental swabs for metagenomics; Isolation source: Warehouses related to west wing  of HSM; species_mitochondrial_reads: 56; total_reads: 1.54e+8; preprocessed_reads: 1.53e+8; SARS2_aligned_reads: 6; top_species: Oriental rat snake (58%), chicken (18%), quail (9%), Chinese cobra (6%), human (6%), other (2%), Amur hedgehog (1%)" role="graphics-symbol" aria-roledescription="circle" transform="translate(12.055974165769644,199.72070849536834)" d="M3.536,0A3.536,3.536,0,1,1,-3.536,0A3.536,3.536,0,1,1,3.536,0" fill="black" stroke-width="2" opacity="0.5"/><path aria-label="% species mitochondria reads: 11.575562701; % SARS2 reads: 0.00000187414162557; Collection date (click to select/deselect): 2020-02-15; species (common name): human; sample: WWS-2#-2; Sample name: Env_0820; Collection date: 2020-02-15; description: RNA sequencing of total nucleic acids from environmental swabs for metagenomics; Isolation source: West Wing  of HSM (Sewers or sewerage wells); species_mitochondrial_reads: 36; total_reads: 2.14e+8; preprocessed_reads: 2.13e+8; SARS2_aligned_reads: 4; top_species: yellow croaker (fish) (43%), chicken (13%), human (12%), spot-billed duck (10%), Largemouth bass (8%), carp (7%), cow (4%), other (3%), brown rat (1%)" role="graphics-symbol" aria-roledescription="circle" transform="translate(23.15112540192926,199.86613274103104)" d="M3.536,0A3.536,3.536,0,1,1,-3.536,0A3.536,3.536,0,1,1,3.536,0" fill="black" stroke-width="2" opacity="0.5"/></g><g class="mark-text role-mark layer_1_marks" role="graphics-object" aria-roledescription="text mark container" pointer-events="none"><text aria-label="label: r = −0.09" role="graphics-symbol" aria-roledescription="text mark" text-anchor="start" transform="translate(6,12)" font-family="sans-serif" font-size="12px" font-weight="500" fill="orange">r = −0.09</text></g><g class="mark-group role-legend" role="graphics-symbol" aria-roledescription="legend" aria-label="Symbol legend titled 'Collection date (click to select/deselect)' for fill color with 14 values: 2020-01-01, 2020-01-12, 2020-01-23, 2020-01-27, 2020-01-29, ending with 2020-03-02"><g transform="translate(0,250)"><path class="background" aria-hidden="true" d="M0,0h536v40h-536Z" pointer-events="none"/><g><g class="mark-group role-legend-entry"><g transform="translate(0,16)"><path class="background" aria-hidden="true" d="M0,0h0v0h0Z" pointer-events="none"/><g><g class="mark-group role-scope Collection_date_legend_entries" role="graphics-object" aria-roledescription="group mark container"><g transform="translate(0,0)"><path class="background" aria-hidden="true" d="M0,0h67.15234375v11h-67.15234375Z" opacity="1"/><g><g class="mark-symbol role-legend-symbol Collection_date_legend_symbols"><path transform="translate(6,6)" d="M5,0A5,5,0,1,1,-5,0A5,5,0,1,1,5,0" fill="black" stroke-width="1.5" opacity="0.5"/></g><g class="mark-text role-legend-label Collection_date_legend_labels"><text text-anchor="start" transform="translate(16,9)" font-family="sans-serif" font-size="10px" fill="#000" opacity="1">2020-01-01</text></g></g><path class="foreground" aria-hidden="true" d="" display="none"/></g><g transform="translate(78,0)"><path class="background" aria-hidden="true" d="M0,0h67.15234375v11h-67.15234375Z" opacity="1"/><g><g class="mark-symbol role-legend-symbol Collection_date_legend_symbols"><path transform="translate(6,6)" d="M5,0A5,5,0,1,1,-5,0A5,5,0,1,1,5,0" fill="black" stroke-width="1.5" opacity="0.5"/></g><g class="mark-text role-legend-label Collection_date_legend_labels"><text text-anchor="start" transform="translate(16,9)" font-family="sans-serif" font-size="10px" fill="#000" opacity="1">2020-01-12</text></g></g><path class="foreground" aria-hidden="true" d="" display="none"/></g><g transform="translate(156,0)"><path class="background" aria-hidden="true" d="M0,0h67.15234375v11h-67.15234375Z" opacity="1"/><g><g class="mark-symbol role-legend-symbol Collection_date_legend_symbols"><path transform="translate(6,6)" d="M5,0A5,5,0,1,1,-5,0A5,5,0,1,1,5,0" fill="black" stroke-width="1.5" opacity="0.5"/></g><g class="mark-text role-legend-label Collection_date_legend_labels"><text text-anchor="start" transform="translate(16,9)" font-family="sans-serif" font-size="10px" fill="#000" opacity="1">2020-01-23</text></g></g><path class="foreground" aria-hidden="true" d="" display="none"/></g><g transform="translate(234,0)"><path class="background" aria-hidden="true" d="M0,0h67.15234375v11h-67.15234375Z" opacity="1"/><g><g class="mark-symbol role-legend-symbol Collection_date_legend_symbols"><path transform="translate(6,6)" d="M5,0A5,5,0,1,1,-5,0A5,5,0,1,1,5,0" fill="black" stroke-width="1.5" opacity="0.5"/></g><g class="mark-text role-legend-label Collection_date_legend_labels"><text text-anchor="start" transform="translate(16,9)" font-family="sans-serif" font-size="10px" fill="#000" opacity="1">2020-01-27</text></g></g><path class="foreground" aria-hidden="true" d="" display="none"/></g><g transform="translate(312,0)"><path class="background" aria-hidden="true" d="M0,0h67.15234375v11h-67.15234375Z" opacity="1"/><g><g class="mark-symbol role-legend-symbol Collection_date_legend_symbols"><path transform="translate(6,6)" d="M5,0A5,5,0,1,1,-5,0A5,5,0,1,1,5,0" fill="black" stroke-width="1.5" opacity="0.5"/></g><g class="mark-text role-legend-label Collection_date_legend_labels"><text text-anchor="start" transform="translate(16,9)" font-family="sans-serif" font-size="10px" fill="#000" opacity="1">2020-01-29</text></g></g><path class="foreground" aria-hidden="true" d="" display="none"/></g><g transform="translate(390,0)"><path class="background" aria-hidden="true" d="M0,0h67.15234375v11h-67.15234375Z" opacity="1"/><g><g class="mark-symbol role-legend-symbol Collection_date_legend_symbols"><path transform="translate(6,6)" d="M5,0A5,5,0,1,1,-5,0A5,5,0,1,1,5,0" fill="black" stroke-width="1.5" opacity="0.5"/></g><g class="mark-text role-legend-label Collection_date_legend_labels"><text text-anchor="start" transform="translate(16,9)" font-family="sans-serif" font-size="10px" fill="#000" opacity="1">2020-02-03</text></g></g><path class="foreground" aria-hidden="true" d="" display="none"/></g><g transform="translate(468,0)"><path class="background" aria-hidden="true" d="M0,0h67.15234375v11h-67.15234375Z" opacity="1"/><g><g class="mark-symbol role-legend-symbol Collection_date_legend_symbols"><path transform="translate(6,6)" d="M5,0A5,5,0,1,1,-5,0A5,5,0,1,1,5,0" fill="black" stroke-width="1.5" opacity="0.5"/></g><g class="mark-text role-legend-label Collection_date_legend_labels"><text text-anchor="start" transform="translate(16,9)" font-family="sans-serif" font-size="10px" fill="#000" opacity="1">2020-02-05</text></g></g><path class="foreground" aria-hidden="true" d="" display="none"/></g><g transform="translate(0,13)"><path class="background" aria-hidden="true" d="M0,0h67.15234375v11h-67.15234375Z" opacity="1"/><g><g class="mark-symbol role-legend-symbol Collection_date_legend_symbols"><path transform="translate(6,6)" d="M5,0A5,5,0,1,1,-5,0A5,5,0,1,1,5,0" fill="black" stroke-width="1.5" opacity="0.5"/></g><g class="mark-text role-legend-label Collection_date_legend_labels"><text text-anchor="start" transform="translate(16,9)" font-family="sans-serif" font-size="10px" fill="#000" opacity="1">2020-02-09</text></g></g><path class="foreground" aria-hidden="true" d="" display="none"/></g><g transform="translate(78,13)"><path class="background" aria-hidden="true" d="M0,0h67.15234375v11h-67.15234375Z" opacity="1"/><g><g class="mark-symbol role-legend-symbol Collection_date_legend_symbols"><path transform="translate(6,6)" d="M5,0A5,5,0,1,1,-5,0A5,5,0,1,1,5,0" fill="black" stroke-width="1.5" opacity="0.5"/></g><g class="mark-text role-legend-label Collection_date_legend_labels"><text text-anchor="start" transform="translate(16,9)" font-family="sans-serif" font-size="10px" fill="#000" opacity="1">2020-02-15</text></g></g><path class="foreground" aria-hidden="true" d="" display="none"/></g><g transform="translate(156,13)"><path class="background" aria-hidden="true" d="M0,0h67.15234375v11h-67.15234375Z" opacity="1"/><g><g class="mark-symbol role-legend-symbol Collection_date_legend_symbols"><path transform="translate(6,6)" d="M5,0A5,5,0,1,1,-5,0A5,5,0,1,1,5,0" fill="black" stroke-width="1.5" opacity="0.5"/></g><g class="mark-text role-legend-label Collection_date_legend_labels"><text text-anchor="start" transform="translate(16,9)" font-family="sans-serif" font-size="10px" fill="#000" opacity="1">2020-02-20</text></g></g><path class="foreground" aria-hidden="true" d="" display="none"/></g><g transform="translate(234,13)"><path class="background" aria-hidden="true" d="M0,0h67.15234375v11h-67.15234375Z" opacity="1"/><g><g class="mark-symbol role-legend-symbol Collection_date_legend_symbols"><path transform="translate(6,6)" d="M5,0A5,5,0,1,1,-5,0A5,5,0,1,1,5,0" fill="black" stroke-width="1.5" opacity="0.5"/></g><g class="mark-text role-legend-label Collection_date_legend_labels"><text text-anchor="start" transform="translate(16,9)" font-family="sans-serif" font-size="10px" fill="#000" opacity="1">2020-02-22</text></g></g><path class="foreground" aria-hidden="true" d="" display="none"/></g><g transform="translate(312,13)"><path class="background" aria-hidden="true" d="M0,0h67.15234375v11h-67.15234375Z" opacity="1"/><g><g class="mark-symbol role-legend-symbol Collection_date_legend_symbols"><path transform="translate(6,6)" d="M5,0A5,5,0,1,1,-5,0A5,5,0,1,1,5,0" fill="black" stroke-width="1.5" opacity="0.5"/></g><g class="mark-text role-legend-label Collection_date_legend_labels"><text text-anchor="start" transform="translate(16,9)" font-family="sans-serif" font-size="10px" fill="#000" opacity="1">2020-02-25</text></g></g><path class="foreground" aria-hidden="true" d="" display="none"/></g><g transform="translate(390,13)"><path class="background" aria-hidden="true" d="M0,0h67.15234375v11h-67.15234375Z" opacity="1"/><g><g class="mark-symbol role-legend-symbol Collection_date_legend_symbols"><path transform="translate(6,6)" d="M5,0A5,5,0,1,1,-5,0A5,5,0,1,1,5,0" fill="black" stroke-width="1.5" opacity="0.5"/></g><g class="mark-text role-legend-label Collection_date_legend_labels"><text text-anchor="start" transform="translate(16,9)" font-family="sans-serif" font-size="10px" fill="#000" opacity="1">2020-02-29</text></g></g><path class="foreground" aria-hidden="true" d="" display="none"/></g><g transform="translate(468,13)"><path class="background" aria-hidden="true" d="M0,0h67.15234375v11h-67.15234375Z" opacity="1"/><g><g class="mark-symbol role-legend-symbol Collection_date_legend_symbols"><path transform="translate(6,6)" d="M5,0A5,5,0,1,1,-5,0A5,5,0,1,1,5,0" fill="black" stroke-width="1.5" opacity="0.5"/></g><g class="mark-text role-legend-label Collection_date_legend_labels"><text text-anchor="start" transform="translate(16,9)" font-family="sans-serif" font-size="10px" fill="#000" opacity="1">2020-03-02</text></g></g><path class="foreground" aria-hidden="true" d="" display="none"/></g></g></g><path class="foreground" aria-hidden="true" d="" pointer-events="none" display="none"/></g></g><g class="mark-text role-legend-title" pointer-events="none"><text text-anchor="start" transform="translate(0,9)" font-family="sans-serif" font-size="11px" font-weight="bold" fill="#000" opacity="1">Collection date (click to select/deselect)</text></g></g><path class="foreground" aria-hidden="true" d="" pointer-events="none" display="none"/></g></g></g><path class="foreground" aria-hidden="true" d="" display="none"/></g></g></g></svg>