<svg xmlns="http://www.w3.org/2000/svg" xmlns:xlink="http://www.w3.org/1999/xlink" version="1.1" class="marks" width="620" height="342" viewBox="0 0 620 342"><rect width="620" height="342" fill="white"/><g fill="none" stroke-miterlimit="10" transform="translate(59,27)"><g class="mark-group role-frame root" role="graphics-object" aria-roledescription="group mark container"><g transform="translate(0,0)"><path class="background" aria-hidden="true" d="M0.5,0.5h200v200h-200Z" stroke="#ddd"/><g><g class="mark-group role-axis" role="graphics-symbol" aria-roledescription="axis" aria-label="X-axis titled '% species mitochondria reads' for a linear scale with values from −8 to −2"><g transform="translate(0.5,200.5)"><path class="background" aria-hidden="true" d="M0,0h0v0h0Z" pointer-events="none"/><g><g class="mark-rule role-axis-tick" pointer-events="none"><line transform="translate(100,0)" x2="0" y2="5" stroke="#888" stroke-width="1" opacity="1"/><line transform="translate(133,0)" x2="0" y2="5" stroke="#888" stroke-width="1" opacity="1"/><line transform="translate(167,0)" x2="0" y2="5" stroke="#888" stroke-width="1" opacity="1"/><line transform="translate(200,0)" x2="0" y2="5" stroke="#888" stroke-width="1" opacity="1"/><line transform="translate(0,0)" x2="0" y2="5" stroke="#888" stroke-width="1" opacity="1"/><line transform="translate(33,0)" x2="0" y2="5" stroke="#888" stroke-width="1" opacity="1"/><line transform="translate(67,0)" x2="0" y2="5" stroke="#888" stroke-width="1" opacity="1"/></g><g class="mark-text role-axis-label" pointer-events="none"><text text-anchor="middle" transform="translate(100,15)" font-family="sans-serif" font-size="10px" fill="#000" opacity="1">−5</text><text text-anchor="middle" transform="translate(133.33333333333331,15)" font-family="sans-serif" font-size="10px" fill="#000" opacity="1">−4</text><text text-anchor="middle" transform="translate(166.66666666666669,15)" font-family="sans-serif" font-size="10px" fill="#000" opacity="1">−3</text><text text-anchor="end" transform="translate(200,15)" font-family="sans-serif" font-size="10px" fill="#000" opacity="1">−2</text><text text-anchor="start" transform="translate(0,15)" font-family="sans-serif" font-size="10px" fill="#000" opacity="1">−8</text><text text-anchor="middle" transform="translate(33.33333333333333,15)" font-family="sans-serif" font-size="10px" fill="#000" opacity="1">−7</text><text text-anchor="middle" transform="translate(66.66666666666666,15)" font-family="sans-serif" font-size="10px" fill="#000" opacity="1">−6</text></g><g class="mark-rule role-axis-domain" pointer-events="none"><line transform="translate(0,0)" x2="200" y2="0" stroke="#888" stroke-width="1" opacity="1"/></g><g class="mark-text role-axis-title" pointer-events="none"><text text-anchor="middle" transform="translate(100,30)" font-family="sans-serif" font-size="11px" font-weight="bold" fill="#000" opacity="1">% species mitochondria reads</text></g></g><path class="foreground" aria-hidden="true" d="" pointer-events="none" display="none"/></g></g><g class="mark-group role-axis" role="graphics-symbol" aria-roledescription="axis" aria-label="Y-axis titled '% SARS2 reads' for a linear scale with values from −7 to −3"><g transform="translate(0.5,0.5)"><path class="background" aria-hidden="true" d="M0,0h0v0h0Z" pointer-events="none"/><g><g class="mark-rule role-axis-tick" pointer-events="none"><line transform="translate(0,175)" x2="-5" y2="0" stroke="#888" stroke-width="1" opacity="1"/><line transform="translate(0,125)" x2="-5" y2="0" stroke="#888" stroke-width="1" opacity="1"/><line transform="translate(0,75)" x2="-5" y2="0" stroke="#888" stroke-width="1" opacity="1"/><line transform="translate(0,25)" x2="-5" y2="0" stroke="#888" stroke-width="1" opacity="1"/></g><g class="mark-text role-axis-label" pointer-events="none"><text text-anchor="end" transform="translate(-7,178)" font-family="sans-serif" font-size="10px" fill="#000" opacity="1">−6</text><text text-anchor="end" transform="translate(-7,128)" font-family="sans-serif" font-size="10px" fill="#000" opacity="1">−5</text><text text-anchor="end" transform="translate(-7,78)" font-family="sans-serif" font-size="10px" fill="#000" opacity="1">−4</text><text text-anchor="end" transform="translate(-7,28)" font-family="sans-serif" font-size="10px" fill="#000" opacity="1">−3</text></g><g class="mark-rule role-axis-domain" pointer-events="none"><line transform="translate(0,200)" x2="0" y2="-200" stroke="#888" stroke-width="1" opacity="1"/></g><g class="mark-text role-axis-title" pointer-events="none"><text text-anchor="middle" transform="translate(-22.4013671875,100) rotate(-90) translate(0,-2)" font-family="sans-serif" font-size="11px" font-weight="bold" fill="#000" opacity="1">% SARS2 reads</text></g></g><path class="foreground" aria-hidden="true" d="" pointer-events="none" display="none"/></g></g><g class="mark-symbol role-mark view_2_marks" role="graphics-object" aria-roledescription="symbol mark container"><path aria-label="% species mitochondria reads: −6.04179973031; % SARS2 reads: −5.26364847992; Collection date (click to select/deselect): 2020-02-03; species (common name): raccoon dog; sample: 8-25-M1; Sample name: Env_0719; Collection date: 2020-02-03; description: RNA sequencing of total nucleic acids from environmental swabs for metagenomics; Isolation source: West Wing  of HSM; species_mitochondrial_reads: 4; total_reads: 4.48e+8; preprocessed_reads: 4.4e+8; SARS2_aligned_reads: 24; top_species: Oriental rat snake (33%), Amur hedgehog (30%), other (13%), Mayalan field rat (9%), chicken (8%), human (5%), sand cat (3%)" role="graphics-symbol" aria-roledescription="circle" transform="translate(65.27334232308473,138.18242399619072)" d="M3.536,0A3.536,3.536,0,1,1,-3.536,0A3.536,3.536,0,1,1,3.536,0" fill="black" stroke-width="2" opacity="0.5"/><path aria-label="% species mitochondria reads: −7.60845387822; % SARS2 reads: −4.35104776311; Collection date (click to select/deselect): 2020-01-01; species (common name): raccoon dog; sample: A101; Sample name: Env_0101; Collection date: 2020-01-01; description: RNA sequencing of total nucleic acids from environmental swabs for metagenomics; Isolation source: West Wing  of HSM; species_mitochondrial_reads: 0; total_reads: 1.52e+8; preprocessed_reads: 1.5e+8; SARS2_aligned_reads: 67; top_species: Largemouth bass (49%), carp (15%), human (13%), other (13%), goat (5%), sheep (3%), pig (3%)" role="graphics-symbol" aria-roledescription="circle" transform="translate(13.051537392674343,92.5523881556511)" d="M3.536,0A3.536,3.536,0,1,1,-3.536,0A3.536,3.536,0,1,1,3.536,0" fill="black" stroke-width="2" opacity="0.5"/><path aria-label="% species mitochondria reads: −7.60845387822; % SARS2 reads: −5.74831918352; Collection date (click to select/deselect): 2020-01-01; species (common name): raccoon dog; sample: A14; Sample name: Env_0014; Collection date: 2020-01-01; description: RNA sequencing of total nucleic acids from environmental swabs for metagenomics; Isolation source: West Wing  of HSM; species_mitochondrial_reads: 0; total_reads: 2.25e+8; preprocessed_reads: 2.24e+8; SARS2_aligned_reads: 4; top_species: carp (99%), other (1%), human (0%)" role="graphics-symbol" aria-roledescription="circle" transform="translate(13.051537392674343,162.41595917606588)" d="M3.536,0A3.536,3.536,0,1,1,-3.536,0A3.536,3.536,0,1,1,3.536,0" fill="black" stroke-width="2" opacity="0.5"/><path aria-label="% species mitochondria reads: −7.60845387822; % SARS2 reads: −3.78594656496; Collection date (click to select/deselect): 2020-01-01; species (common name): raccoon dog; sample: A15; Sample name: Env_0015; Collection date: 2020-01-01; description: RNA sequencing of total nucleic acids from environmental swabs for metagenomics; Isolation source: West Wing  of HSM; species_mitochondrial_reads: 0; total_reads: 1.25e+8; preprocessed_reads: 1.22e+8; SARS2_aligned_reads: 200; top_species: human (58%), other (13%), catfish (13%), snakehead fish (9%), chicken (7%)" role="graphics-symbol" aria-roledescription="circle" transform="translate(13.051537392674343,64.29732824796358)" d="M3.536,0A3.536,3.536,0,1,1,-3.536,0A3.536,3.536,0,1,1,3.536,0" fill="black" stroke-width="2" opacity="0.5"/><path aria-label="% species mitochondria reads: −7.60845387822; % SARS2 reads: −4.13998843998; Collection date (click to select/deselect): 2020-01-01; species (common name): raccoon dog; sample: A18; Sample name: Env_0018; Collection date: 2020-01-01; description: RNA sequencing of total nucleic acids from environmental swabs for metagenomics; Isolation source: West Wing  of HSM; species_mitochondrial_reads: 0; total_reads: 3.13e+8; preprocessed_reads: 3.12e+8; SARS2_aligned_reads: 226; top_species: human (44%), other (14%), carp (12%), sheep (10%), chicken (8%), yellow croaker (fish) (7%), cow (4%)" role="graphics-symbol" aria-roledescription="circle" transform="translate(13.051537392674343,81.99942199905274)" d="M3.536,0A3.536,3.536,0,1,1,-3.536,0A3.536,3.536,0,1,1,3.536,0" fill="black" stroke-width="2" opacity="0.5"/><path aria-label="% species mitochondria reads: −7.60845387822; % SARS2 reads: −4.5453039557; Collection date (click to select/deselect): 2020-01-01; species (common name): raccoon dog; sample: A2; Sample name: Env_0002; Collection date: 2020-01-01; description: RNA sequencing of total nucleic acids from environmental swabs for metagenomics; Isolation source: West Wing  of HSM; species_mitochondrial_reads: 0; total_reads: 2.32e+8; preprocessed_reads: 2.32e+8; SARS2_aligned_reads: 66; top_species: yellow croaker (fish) (47%), chicken (19%), sand cat (16%), other (9%), sheep (7%), human (3%)" role="graphics-symbol" aria-roledescription="circle" transform="translate(13.051537392674343,102.26519778496757)" d="M3.536,0A3.536,3.536,0,1,1,-3.536,0A3.536,3.536,0,1,1,3.536,0" fill="black" stroke-width="2" opacity="0.5"/><path aria-label="% species mitochondria reads: −5.47874224108; % SARS2 reads: −4.71282544712; Collection date (click to select/deselect): 2020-01-01; species (common name): raccoon dog; sample: A33; Sample name: Env_0033; Collection date: 2020-01-01; description: RNA sequencing of total nucleic acids from environmental swabs for metagenomics; Isolation source: West Wing  of HSM; species_mitochondrial_reads: 6; total_reads: 1.81e+8; preprocessed_reads: 1.81e+8; SARS2_aligned_reads: 35; top_species: chicken (94%), other (5%), pig (0%), sheep (0%)" role="graphics-symbol" aria-roledescription="circle" transform="translate(84.04192529726879,110.64127235576522)" d="M3.536,0A3.536,3.536,0,1,1,-3.536,0A3.536,3.536,0,1,1,3.536,0" fill="black" stroke-width="2" opacity="0.5"/><path aria-label="% species mitochondria reads: −5.61955439145; % SARS2 reads: −4.15219297402; Collection date (click to select/deselect): 2020-01-01; species (common name): raccoon dog; sample: A55; Sample name: Env_0055; Collection date: 2020-01-01; description: RNA sequencing of total nucleic acids from environmental swabs for metagenomics; Isolation source: West Wing  of HSM; species_mitochondrial_reads: 6; total_reads: 2.52e+8; preprocessed_reads: 2.5e+8; SARS2_aligned_reads: 176; top_species: chicken (55%), spot-billed duck (35%), other (6%), sheep (3%), human (1%), pig (0%)" role="graphics-symbol" aria-roledescription="circle" transform="translate(79.34818695161266,82.60964870105569)" d="M3.536,0A3.536,3.536,0,1,1,-3.536,0A3.536,3.536,0,1,1,3.536,0" fill="black" stroke-width="2" opacity="0.5"/><path aria-label="% species mitochondria reads: −6.35015437706; % SARS2 reads: −4.12743790592; Collection date (click to select/deselect): 2020-01-01; species (common name): raccoon dog; sample: A61; Sample name: Env_0061; Collection date: 2020-01-01; description: RNA sequencing of total nucleic acids from environmental swabs for metagenomics; Isolation source: West Wing  of HSM; species_mitochondrial_reads: 2; total_reads: 4.5e+8; preprocessed_reads: 4.48e+8; SARS2_aligned_reads: 334; top_species: sheep (46%), pig (25%), other (15%), chicken (10%), goat (4%)" role="graphics-symbol" aria-roledescription="circle" transform="translate(54.994854097879795,81.37189529580114)" d="M3.536,0A3.536,3.536,0,1,1,-3.536,0A3.536,3.536,0,1,1,3.536,0" fill="black" stroke-width="2" opacity="0.5"/><path aria-label="% species mitochondria reads: −7.60845387822; % SARS2 reads: −4.55098452426; Collection date (click to select/deselect): 2020-01-01; species (common name): raccoon dog; sample: A63; Sample name: Env_0063; Collection date: 2020-01-01; description: RNA sequencing of total nucleic acids from environmental swabs for metagenomics; Isolation source: West Wing  of HSM; species_mitochondrial_reads: 0; total_reads: 2.32e+8; preprocessed_reads: 2.31e+8; SARS2_aligned_reads: 65; top_species: sheep (70%), human (14%), other (9%), chicken (7%)" role="graphics-symbol" aria-roledescription="circle" transform="translate(13.051537392674343,102.54922621297142)" d="M3.536,0A3.536,3.536,0,1,1,-3.536,0A3.536,3.536,0,1,1,3.536,0" fill="black" stroke-width="2" opacity="0.5"/><path aria-label="% species mitochondria reads: −5.18719168678; % SARS2 reads: −4.22974403746; Collection date (click to select/deselect): 2020-01-01; species (common name): raccoon dog; sample: A87; Sample name: Env_0087; Collection date: 2020-01-01; description: RNA sequencing of total nucleic acids from environmental swabs for metagenomics; Isolation source: West Wing  of HSM; species_mitochondrial_reads: 15; total_reads: 2.35e+8; preprocessed_reads: 2.31e+8; SARS2_aligned_reads: 136; top_species: chicken (21%), other (20%), spot-billed duck (13%), Largemouth bass (11%), dog (10%), carp (9%), human (6%), goat (5%), sheep (4%)" role="graphics-symbol" aria-roledescription="circle" transform="translate(93.76027710742262,86.4872018731393)" d="M3.536,0A3.536,3.536,0,1,1,-3.536,0A3.536,3.536,0,1,1,3.536,0" fill="black" stroke-width="2" opacity="0.5"/><path aria-label="% species mitochondria reads: −7.60845387822; % SARS2 reads: −5.04147664941; Collection date (click to select/deselect): 2020-01-01; species (common name): raccoon dog; sample: A88; Sample name: Env_0088; Collection date: 2020-01-01; description: RNA sequencing of total nucleic acids from environmental swabs for metagenomics; Isolation source: West Wing  of HSM; species_mitochondrial_reads: 0; total_reads: 1.99e+8; preprocessed_reads: 1.98e+8; SARS2_aligned_reads: 18; top_species: snakehead fish (88%), other (9%), human (4%), cow (0%)" role="graphics-symbol" aria-roledescription="circle" transform="translate(13.051537392674343,127.07383247072772)" d="M3.536,0A3.536,3.536,0,1,1,-3.536,0A3.536,3.536,0,1,1,3.536,0" fill="black" stroke-width="2" opacity="0.5"/><path aria-label="% species mitochondria reads: −7.60845387822; % SARS2 reads: −5.07801842346; Collection date (click to select/deselect): 2020-01-01; species (common name): raccoon dog; sample: A90; Sample name: Env_0090; Collection date: 2020-01-01; description: RNA sequencing of total nucleic acids from environmental swabs for metagenomics; Isolation source: West Wing  of HSM; species_mitochondrial_reads: 0; total_reads: 2.64e+8; preprocessed_reads: 2.63e+8; SARS2_aligned_reads: 22; top_species: snakehead fish (90%), carp (9%), other (1%), human (0%)" role="graphics-symbol" aria-roledescription="circle" transform="translate(13.051537392674343,128.90092117275537)" d="M3.536,0A3.536,3.536,0,1,1,-3.536,0A3.536,3.536,0,1,1,3.536,0" fill="black" stroke-width="2" opacity="0.5"/><path aria-label="% species mitochondria reads: −6.2694440377; % SARS2 reads: −5.96841404203; Collection date (click to select/deselect): 2020-01-01; species (common name): raccoon dog; sample: A96; Sample name: Env_0096; Collection date: 2020-01-01; description: RNA sequencing of total nucleic acids from environmental swabs for metagenomics; Isolation source: West Wing  of HSM; species_mitochondrial_reads: 2; total_reads: 3.73e+8; preprocessed_reads: 3.72e+8; SARS2_aligned_reads: 4; top_species: swamp eel (54%), carp (39%), other (6%), human (1%), sheep (0%)" role="graphics-symbol" aria-roledescription="circle" transform="translate(57.685198743376716,173.42070210173586)" d="M3.536,0A3.536,3.536,0,1,1,-3.536,0A3.536,3.536,0,1,1,3.536,0" fill="black" stroke-width="2" opacity="0.5"/><path aria-label="% species mitochondria reads: −7.60845387822; % SARS2 reads: −3.7183203026; Collection date (click to select/deselect): 2020-01-01; species (common name): raccoon dog; sample: B17; Sample name: Env_0138; Collection date: 2020-01-01; description: RNA sequencing of total nucleic acids from environmental swabs for metagenomics; Isolation source: West Wing  of HSM; species_mitochondrial_reads: 0; total_reads: 2.13e+8; preprocessed_reads: 2.12e+8; SARS2_aligned_reads: 406; top_species: human (32%), sheep (24%), Largemouth bass (17%), other (10%), chicken (7%), cow (6%), pig (4%)" role="graphics-symbol" aria-roledescription="circle" transform="translate(13.051537392674343,60.916015130172156)" d="M3.536,0A3.536,3.536,0,1,1,-3.536,0A3.536,3.536,0,1,1,3.536,0" fill="black" stroke-width="2" opacity="0.5"/><path aria-label="% species mitochondria reads: −7.60845387822; % SARS2 reads: −3.1948836307; Collection date (click to select/deselect): 2020-01-01; species (common name): raccoon dog; sample: B5; Sample name: Env_0126; Collection date: 2020-01-01; description: RNA sequencing of total nucleic acids from environmental swabs for metagenomics; Isolation source: West Wing  of HSM; species_mitochondrial_reads: 0; total_reads: 2.29e+8; preprocessed_reads: 2.29e+8; SARS2_aligned_reads: 1.46e+3; top_species: catfish (73%), Largemouth bass (21%), cow (2%), sheep (2%), other (1%)" role="graphics-symbol" aria-roledescription="circle" transform="translate(13.051537392674343,34.74418153510974)" d="M3.536,0A3.536,3.536,0,1,1,-3.536,0A3.536,3.536,0,1,1,3.536,0" fill="black" stroke-width="2" opacity="0.5"/><path aria-label="% species mitochondria reads: −7.60845387822; % SARS2 reads: −5.61641607817; Collection date (click to select/deselect): 2020-02-09; species (common name): raccoon dog; sample: CSSQ-1-1; Sample name: Env_0788; Collection date: 2020-02-09; description: RNA sequencing of total nucleic acids from environmental swabs for metagenomics; Isolation source: Sewerage well in the surrounding areas; species_mitochondrial_reads: 0; total_reads: 4.15e+8; preprocessed_reads: 4.13e+8; SARS2_aligned_reads: 10; top_species: human (100%), other (0%)" role="graphics-symbol" aria-roledescription="circle" transform="translate(13.051537392674343,155.82080390855086)" d="M3.536,0A3.536,3.536,0,1,1,-3.536,0A3.536,3.536,0,1,1,3.536,0" fill="black" stroke-width="2" opacity="0.5"/><path aria-label="% species mitochondria reads: −7.60845387822; % SARS2 reads: −3.77138774146; Collection date (click to select/deselect): 2020-01-01; species (common name): raccoon dog; sample: D32; Sample name: Env_0213; Collection date: 2020-01-01; description: RNA sequencing of total nucleic acids from environmental swabs for metagenomics; Isolation source: West Wing  of HSM; species_mitochondrial_reads: 0; total_reads: 1.97e+8; preprocessed_reads: 1.93e+8; SARS2_aligned_reads: 326; top_species: human (42%), cow (16%), chicken (16%), sheep (9%), pig (8%), spot-billed duck (6%), other (3%)" role="graphics-symbol" aria-roledescription="circle" transform="translate(13.051537392674343,63.56938707275286)" d="M3.536,0A3.536,3.536,0,1,1,-3.536,0A3.536,3.536,0,1,1,3.536,0" fill="black" stroke-width="2" opacity="0.5"/><path aria-label="% species mitochondria reads: −7.60845387822; % SARS2 reads: −5.51361638701; Collection date (click to select/deselect): 2020-01-01; species (common name): raccoon dog; sample: E48; Sample name: Env_0262; Collection date: 2020-01-01; description: RNA sequencing of total nucleic acids from environmental swabs for metagenomics; Isolation source: East Wing  of HSM; species_mitochondrial_reads: 0; total_reads: 3.27e+8; preprocessed_reads: 3.26e+8; SARS2_aligned_reads: 10; top_species: cow (96%), other (4%)" role="graphics-symbol" aria-roledescription="circle" transform="translate(13.051537392674343,150.68081935042196)" d="M3.536,0A3.536,3.536,0,1,1,-3.536,0A3.536,3.536,0,1,1,3.536,0" fill="black" stroke-width="2" opacity="0.5"/><path aria-label="% species mitochondria reads: −7.60845387822; % SARS2 reads: −4.67947071186; Collection date (click to select/deselect): 2020-01-01; species (common name): raccoon dog; sample: E61; Sample name: Env_0275; Collection date: 2020-01-01; description: RNA sequencing of total nucleic acids from environmental swabs for metagenomics; Isolation source: East Wing  of HSM; species_mitochondrial_reads: 0; total_reads: 2.73e+8; preprocessed_reads: 2.72e+8; SARS2_aligned_reads: 57; top_species: carp (35%), pig (19%), cow (18%), human (14%), other (10%), sheep (5%)" role="graphics-symbol" aria-roledescription="circle" transform="translate(13.051537392674343,108.97353559316389)" d="M3.536,0A3.536,3.536,0,1,1,-3.536,0A3.536,3.536,0,1,1,3.536,0" fill="black" stroke-width="2" opacity="0.5"/><path aria-label="% species mitochondria reads: −7.60845387822; % SARS2 reads: −4.2727873498; Collection date (click to select/deselect): 2020-01-01; species (common name): raccoon dog; sample: E7; Sample name: Env_0221; Collection date: 2020-01-01; description: RNA sequencing of total nucleic acids from environmental swabs for metagenomics; Isolation source: West Wing  of HSM; species_mitochondrial_reads: 0; total_reads: 2.37e+8; preprocessed_reads: 2.36e+8; SARS2_aligned_reads: 126; top_species: Largemouth bass (42%), carp (17%), chicken (12%), human (12%), other (7%), spot-billed duck (5%), pig (2%), sheep (2%)" role="graphics-symbol" aria-roledescription="circle" transform="translate(13.051537392674343,88.63936749023304)" d="M3.536,0A3.536,3.536,0,1,1,-3.536,0A3.536,3.536,0,1,1,3.536,0" fill="black" stroke-width="2" opacity="0.5"/><path aria-label="% species mitochondria reads: −7.60845387822; % SARS2 reads: −2.55566546989; Collection date (click to select/deselect): 2020-01-01; species (common name): raccoon dog; sample: F100; Sample name: Env_0400; Collection date: 2020-01-01; description: RNA sequencing of total nucleic acids from environmental swabs for metagenomics; Isolation source: West Wing  of HSM; species_mitochondrial_reads: 0; total_reads: 2.6e+8; preprocessed_reads: 2.59e+8; SARS2_aligned_reads: 7.2e+3; top_species: catfish (51%), Largemouth bass (37%), sheep (7%), other (2%), cow (2%), human (1%)" role="graphics-symbol" aria-roledescription="circle" transform="translate(13.051537392674343,2.7832734947116133)" d="M3.536,0A3.536,3.536,0,1,1,-3.536,0A3.536,3.536,0,1,1,3.536,0" fill="black" stroke-width="2" opacity="0.5"/><path aria-label="% species mitochondria reads: −7.60845387822; % SARS2 reads: −4.18668275691; Collection date (click to select/deselect): 2020-01-01; species (common name): raccoon dog; sample: F46; Sample name: Env_0346; Collection date: 2020-01-01; description: RNA sequencing of total nucleic acids from environmental swabs for metagenomics; Isolation source: West Wing  of HSM; species_mitochondrial_reads: 0; total_reads: 3.72e+8; preprocessed_reads: 3.7e+8; SARS2_aligned_reads: 241; top_species: human (91%), other (9%)" role="graphics-symbol" aria-roledescription="circle" transform="translate(13.051537392674343,84.33413784528186)" d="M3.536,0A3.536,3.536,0,1,1,-3.536,0A3.536,3.536,0,1,1,3.536,0" fill="black" stroke-width="2" opacity="0.5"/><path aria-label="% species mitochondria reads: −7.60845387822; % SARS2 reads: −4.08326583244; Collection date (click to select/deselect): 2020-01-01; species (common name): raccoon dog; sample: F98; Sample name: Env_0398; Collection date: 2020-01-01; description: RNA sequencing of total nucleic acids from environmental swabs for metagenomics; Isolation source: West Wing  of HSM; species_mitochondrial_reads: 0; total_reads: 4.01e+8; preprocessed_reads: 4e+8; SARS2_aligned_reads: 330; top_species: human (77%), other (12%), Largemouth bass (6%), pig (5%)" role="graphics-symbol" aria-roledescription="circle" transform="translate(13.051537392674343,79.16329162201032)" d="M3.536,0A3.536,3.536,0,1,1,-3.536,0A3.536,3.536,0,1,1,3.536,0" fill="black" stroke-width="2" opacity="0.5"/><path aria-label="% species mitochondria reads: −5.25937731787; % SARS2 reads: −5.25937731787; Collection date (click to select/deselect): 2020-01-12; species (common name): raccoon dog; sample: Q37; Sample name: Env_0552; Collection date: 2020-01-12; description: RNA sequencing of total nucleic acids from environmental swabs for metagenomics; Isolation source: West Wing  of HSM; species_mitochondrial_reads: 5; total_reads: 1.07e+8; preprocessed_reads: 9.09e+7; SARS2_aligned_reads: 5; top_species: Oriental rat snake (44%), Chinese cobra (30%), other (10%), spotted dove (7%), human (7%), Amur hedgehog (2%)" role="graphics-symbol" aria-roledescription="circle" transform="translate(91.3540894042011,137.96886589369834)" d="M3.536,0A3.536,3.536,0,1,1,-3.536,0A3.536,3.536,0,1,1,3.536,0" fill="black" stroke-width="2" opacity="0.5"/><path aria-label="% species mitochondria reads: −2.31547980106; % SARS2 reads: −6.31587049031; Collection date (click to select/deselect): 2020-01-12; species (common name): raccoon dog; sample: Q61; Sample name: Env_0576; Collection date: 2020-01-12; description: RNA sequencing of total nucleic acids from environmental swabs for metagenomics; Isolation source: West Wing  of HSM; species_mitochondrial_reads: 1e+4; total_reads: 2.13e+8; preprocessed_reads: 2.07e+8; SARS2_aligned_reads: 1; top_species: spot-billed duck (54%), raccoon dog (32%), other (6%), chicken (5%), dog (3%)" role="graphics-symbol" aria-roledescription="circle" transform="translate(189.48400663145623,190.79352451531116)" d="M3.536,0A3.536,3.536,0,1,1,-3.536,0A3.536,3.536,0,1,1,3.536,0" fill="black" stroke-width="2" opacity="0.5"/><path aria-label="% species mitochondria reads: −4.03531994897; % SARS2 reads: −5.38167292342; Collection date (click to select/deselect): 2020-01-12; species (common name): raccoon dog; sample: Q64; Sample name: Env_0579; Collection date: 2020-01-12; description: RNA sequencing of total nucleic acids from environmental swabs for metagenomics; Isolation source: West Wing  of HSM; species_mitochondrial_reads: 111; total_reads: 1.2e+8; preprocessed_reads: 1.2e+8; SARS2_aligned_reads: 5; top_species: chicken (28%), spot-billed duck (21%), other (15%), dog (9%), rabbit (9%), raccoon dog (7%), Himalayan marmot (6%), hoary bamboo rat (5%)" role="graphics-symbol" aria-roledescription="circle" transform="translate(132.15600170092694,144.08364617114154)" d="M3.536,0A3.536,3.536,0,1,1,-3.536,0A3.536,3.536,0,1,1,3.536,0" fill="black" stroke-width="2" opacity="0.5"/><path aria-label="% species mitochondria reads: −4.61765909568; % SARS2 reads: −5.16172714003; Collection date (click to select/deselect): 2020-01-12; species (common name): raccoon dog; sample: Q68; Sample name: Env_0583; Collection date: 2020-01-12; description: RNA sequencing of total nucleic acids from environmental swabs for metagenomics; Isolation source: West Wing  of HSM; species_mitochondrial_reads: 21; total_reads: 1.1e+8; preprocessed_reads: 8.71e+7; SARS2_aligned_reads: 6; top_species: chicken (24%), dog (13%), spot-billed duck (11%), Chinese salamander (11%), other (10%), rabbit (10%), hoary bamboo rat (9%), human (7%), spotted dove (6%)" role="graphics-symbol" aria-roledescription="circle" transform="translate(112.74469681053691,133.08635700170842)" d="M3.536,0A3.536,3.536,0,1,1,-3.536,0A3.536,3.536,0,1,1,3.536,0" fill="black" stroke-width="2" opacity="0.5"/><path aria-label="% species mitochondria reads: −4.66675379149; % SARS2 reads: −5.72745163185; Collection date (click to select/deselect): 2020-01-12; species (common name): raccoon dog; sample: Q69; Sample name: Env_0584; Collection date: 2020-01-12; description: RNA sequencing of total nucleic acids from environmental swabs for metagenomics; Isolation source: West Wing  of HSM; species_mitochondrial_reads: 23; total_reads: 1.07e+8; preprocessed_reads: 1.07e+8; SARS2_aligned_reads: 2; top_species: dog (89%), other (11%)" role="graphics-symbol" aria-roledescription="circle" transform="translate(111.10820695022532,161.3725815923426)" d="M3.536,0A3.536,3.536,0,1,1,-3.536,0A3.536,3.536,0,1,1,3.536,0" fill="black" stroke-width="2" opacity="0.5"/><path aria-label="% species mitochondria reads: −5.01674378075; % SARS2 reads: −5.86184182076; Collection date (click to select/deselect): 2020-01-12; species (common name): raccoon dog; sample: Q70; Sample name: Env_0585; Collection date: 2020-01-12; description: RNA sequencing of total nucleic acids from environmental swabs for metagenomics; Isolation source: West Wing  of HSM; species_mitochondrial_reads: 14; total_reads: 1.49e+8; preprocessed_reads: 1.46e+8; SARS2_aligned_reads: 2; top_species: Malayan porcupine (85%), other (10%), chicken (5%)" role="graphics-symbol" aria-roledescription="circle" transform="translate(99.4418739751192,168.092091038034)" d="M3.536,0A3.536,3.536,0,1,1,-3.536,0A3.536,3.536,0,1,1,3.536,0" fill="black" stroke-width="2" opacity="0.5"/><path aria-label="% species mitochondria reads: −7.60845387822; % SARS2 reads: −4.64010061996; Collection date (click to select/deselect): 2020-02-22; species (common name): raccoon dog; sample: RLC-3; Sample name: Env_0868; Collection date: 2020-02-22; description: RNA sequencing of total nucleic acids from environmental swabs for metagenomics; Isolation source: Warehouses related to west wing  of HSM; species_mitochondrial_reads: 0; total_reads: 1.23e+8; preprocessed_reads: 1.22e+8; SARS2_aligned_reads: 28; top_species: Oriental rat snake (41%), spotted dove (18%), human (13%), chicken (9%), quail (7%), Chinese cobra (7%), other (5%), pig (1%)" role="graphics-symbol" aria-roledescription="circle" transform="translate(13.051537392674343,107.00503099794037)" d="M3.536,0A3.536,3.536,0,1,1,-3.536,0A3.536,3.536,0,1,1,3.536,0" fill="black" stroke-width="2" opacity="0.5"/><path aria-label="% species mitochondria reads: −7.60845387822; % SARS2 reads: −5.4078142386; Collection date (click to select/deselect): 2020-02-22; species (common name): raccoon dog; sample: SJ-D; Sample name: Env_0862; Collection date: 2020-02-22; description: RNA sequencing of total nucleic acids from environmental swabs for metagenomics; Isolation source: Warehouses related to west wing  of HSM; species_mitochondrial_reads: 0; total_reads: 1.54e+8; preprocessed_reads: 1.53e+8; SARS2_aligned_reads: 6; top_species: Oriental rat snake (58%), chicken (18%), quail (9%), Chinese cobra (6%), human (6%), other (2%), Amur hedgehog (1%)" role="graphics-symbol" aria-roledescription="circle" transform="translate(13.051537392674343,145.39071193008928)" d="M3.536,0A3.536,3.536,0,1,1,-3.536,0A3.536,3.536,0,1,1,3.536,0" fill="black" stroke-width="2" opacity="0.5"/><path aria-label="% species mitochondria reads: −7.60845387822; % SARS2 reads: −5.72719759334; Collection date (click to select/deselect): 2020-02-15; species (common name): raccoon dog; sample: WWS-2#-2; Sample name: Env_0820; Collection date: 2020-02-15; description: RNA sequencing of total nucleic acids from environmental swabs for metagenomics; Isolation source: West Wing  of HSM (Sewers or sewerage wells); species_mitochondrial_reads: 0; total_reads: 2.14e+8; preprocessed_reads: 2.13e+8; SARS2_aligned_reads: 4; top_species: yellow croaker (fish) (43%), chicken (13%), human (12%), spot-billed duck (10%), Largemouth bass (8%), carp (7%), cow (4%), other (3%), brown rat (1%)" role="graphics-symbol" aria-roledescription="circle" transform="translate(13.051537392674343,161.35987966714248)" d="M3.536,0A3.536,3.536,0,1,1,-3.536,0A3.536,3.536,0,1,1,3.536,0" fill="black" stroke-width="2" opacity="0.5"/></g><g class="mark-text role-mark layer_1_marks" role="graphics-object" aria-roledescription="text mark container" pointer-events="none"><text aria-label="label: r = −0.46" role="graphics-symbol" aria-roledescription="text mark" text-anchor="start" transform="translate(6,12)" font-family="sans-serif" font-size="12px" font-weight="500" fill="orange">r = −0.46</text></g><g class="mark-group role-legend" role="graphics-symbol" aria-roledescription="legend" aria-label="Symbol legend titled 'Collection date (click to select/deselect)' for fill color with 14 values: 2020-01-01, 2020-01-12, 2020-01-23, 2020-01-27, 2020-01-29, ending with 2020-03-02"><g transform="translate(0,250)"><path class="background" aria-hidden="true" d="M0,0h536v40h-536Z" pointer-events="none"/><g><g class="mark-group role-legend-entry"><g transform="translate(0,16)"><path class="background" aria-hidden="true" d="M0,0h0v0h0Z" pointer-events="none"/><g><g class="mark-group role-scope Collection_date_legend_entries" role="graphics-object" aria-roledescription="group mark container"><g transform="translate(0,0)"><path class="background" aria-hidden="true" d="M0,0h67.15234375v11h-67.15234375Z" opacity="1"/><g><g class="mark-symbol role-legend-symbol Collection_date_legend_symbols"><path transform="translate(6,6)" d="M5,0A5,5,0,1,1,-5,0A5,5,0,1,1,5,0" fill="black" stroke-width="1.5" opacity="0.5"/></g><g class="mark-text role-legend-label Collection_date_legend_labels"><text text-anchor="start" transform="translate(16,9)" font-family="sans-serif" font-size="10px" fill="#000" opacity="1">2020-01-01</text></g></g><path class="foreground" aria-hidden="true" d="" display="none"/></g><g transform="translate(78,0)"><path class="background" aria-hidden="true" d="M0,0h67.15234375v11h-67.15234375Z" opacity="1"/><g><g class="mark-symbol role-legend-symbol Collection_date_legend_symbols"><path transform="translate(6,6)" d="M5,0A5,5,0,1,1,-5,0A5,5,0,1,1,5,0" fill="black" stroke-width="1.5" opacity="0.5"/></g><g class="mark-text role-legend-label Collection_date_legend_labels"><text text-anchor="start" transform="translate(16,9)" font-family="sans-serif" font-size="10px" fill="#000" opacity="1">2020-01-12</text></g></g><path class="foreground" aria-hidden="true" d="" display="none"/></g><g transform="translate(156,0)"><path class="background" aria-hidden="true" d="M0,0h67.15234375v11h-67.15234375Z" opacity="1"/><g><g class="mark-symbol role-legend-symbol Collection_date_legend_symbols"><path transform="translate(6,6)" d="M5,0A5,5,0,1,1,-5,0A5,5,0,1,1,5,0" fill="black" stroke-width="1.5" opacity="0.5"/></g><g class="mark-text role-legend-label Collection_date_legend_labels"><text text-anchor="start" transform="translate(16,9)" font-family="sans-serif" font-size="10px" fill="#000" opacity="1">2020-01-23</text></g></g><path class="foreground" aria-hidden="true" d="" display="none"/></g><g transform="translate(234,0)"><path class="background" aria-hidden="true" d="M0,0h67.15234375v11h-67.15234375Z" opacity="1"/><g><g class="mark-symbol role-legend-symbol Collection_date_legend_symbols"><path transform="translate(6,6)" d="M5,0A5,5,0,1,1,-5,0A5,5,0,1,1,5,0" fill="black" stroke-width="1.5" opacity="0.5"/></g><g class="mark-text role-legend-label Collection_date_legend_labels"><text text-anchor="start" transform="translate(16,9)" font-family="sans-serif" font-size="10px" fill="#000" opacity="1">2020-01-27</text></g></g><path class="foreground" aria-hidden="true" d="" display="none"/></g><g transform="translate(312,0)"><path class="background" aria-hidden="true" d="M0,0h67.15234375v11h-67.15234375Z" opacity="1"/><g><g class="mark-symbol role-legend-symbol Collection_date_legend_symbols"><path transform="translate(6,6)" d="M5,0A5,5,0,1,1,-5,0A5,5,0,1,1,5,0" fill="black" stroke-width="1.5" opacity="0.5"/></g><g class="mark-text role-legend-label Collection_date_legend_labels"><text text-anchor="start" transform="translate(16,9)" font-family="sans-serif" font-size="10px" fill="#000" opacity="1">2020-01-29</text></g></g><path class="foreground" aria-hidden="true" d="" display="none"/></g><g transform="translate(390,0)"><path class="background" aria-hidden="true" d="M0,0h67.15234375v11h-67.15234375Z" opacity="1"/><g><g class="mark-symbol role-legend-symbol Collection_date_legend_symbols"><path transform="translate(6,6)" d="M5,0A5,5,0,1,1,-5,0A5,5,0,1,1,5,0" fill="black" stroke-width="1.5" opacity="0.5"/></g><g class="mark-text role-legend-label Collection_date_legend_labels"><text text-anchor="start" transform="translate(16,9)" font-family="sans-serif" font-size="10px" fill="#000" opacity="1">2020-02-03</text></g></g><path class="foreground" aria-hidden="true" d="" display="none"/></g><g transform="translate(468,0)"><path class="background" aria-hidden="true" d="M0,0h67.15234375v11h-67.15234375Z" opacity="1"/><g><g class="mark-symbol role-legend-symbol Collection_date_legend_symbols"><path transform="translate(6,6)" d="M5,0A5,5,0,1,1,-5,0A5,5,0,1,1,5,0" fill="black" stroke-width="1.5" opacity="0.5"/></g><g class="mark-text role-legend-label Collection_date_legend_labels"><text text-anchor="start" transform="translate(16,9)" font-family="sans-serif" font-size="10px" fill="#000" opacity="1">2020-02-05</text></g></g><path class="foreground" aria-hidden="true" d="" display="none"/></g><g transform="translate(0,13)"><path class="background" aria-hidden="true" d="M0,0h67.15234375v11h-67.15234375Z" opacity="1"/><g><g class="mark-symbol role-legend-symbol Collection_date_legend_symbols"><path transform="translate(6,6)" d="M5,0A5,5,0,1,1,-5,0A5,5,0,1,1,5,0" fill="black" stroke-width="1.5" opacity="0.5"/></g><g class="mark-text role-legend-label Collection_date_legend_labels"><text text-anchor="start" transform="translate(16,9)" font-family="sans-serif" font-size="10px" fill="#000" opacity="1">2020-02-09</text></g></g><path class="foreground" aria-hidden="true" d="" display="none"/></g><g transform="translate(78,13)"><path class="background" aria-hidden="true" d="M0,0h67.15234375v11h-67.15234375Z" opacity="1"/><g><g class="mark-symbol role-legend-symbol Collection_date_legend_symbols"><path transform="translate(6,6)" d="M5,0A5,5,0,1,1,-5,0A5,5,0,1,1,5,0" fill="black" stroke-width="1.5" opacity="0.5"/></g><g class="mark-text role-legend-label Collection_date_legend_labels"><text text-anchor="start" transform="translate(16,9)" font-family="sans-serif" font-size="10px" fill="#000" opacity="1">2020-02-15</text></g></g><path class="foreground" aria-hidden="true" d="" display="none"/></g><g transform="translate(156,13)"><path class="background" aria-hidden="true" d="M0,0h67.15234375v11h-67.15234375Z" opacity="1"/><g><g class="mark-symbol role-legend-symbol Collection_date_legend_symbols"><path transform="translate(6,6)" d="M5,0A5,5,0,1,1,-5,0A5,5,0,1,1,5,0" fill="black" stroke-width="1.5" opacity="0.5"/></g><g class="mark-text role-legend-label Collection_date_legend_labels"><text text-anchor="start" transform="translate(16,9)" font-family="sans-serif" font-size="10px" fill="#000" opacity="1">2020-02-20</text></g></g><path class="foreground" aria-hidden="true" d="" display="none"/></g><g transform="translate(234,13)"><path class="background" aria-hidden="true" d="M0,0h67.15234375v11h-67.15234375Z" opacity="1"/><g><g class="mark-symbol role-legend-symbol Collection_date_legend_symbols"><path transform="translate(6,6)" d="M5,0A5,5,0,1,1,-5,0A5,5,0,1,1,5,0" fill="black" stroke-width="1.5" opacity="0.5"/></g><g class="mark-text role-legend-label Collection_date_legend_labels"><text text-anchor="start" transform="translate(16,9)" font-family="sans-serif" font-size="10px" fill="#000" opacity="1">2020-02-22</text></g></g><path class="foreground" aria-hidden="true" d="" display="none"/></g><g transform="translate(312,13)"><path class="background" aria-hidden="true" d="M0,0h67.15234375v11h-67.15234375Z" opacity="1"/><g><g class="mark-symbol role-legend-symbol Collection_date_legend_symbols"><path transform="translate(6,6)" d="M5,0A5,5,0,1,1,-5,0A5,5,0,1,1,5,0" fill="black" stroke-width="1.5" opacity="0.5"/></g><g class="mark-text role-legend-label Collection_date_legend_labels"><text text-anchor="start" transform="translate(16,9)" font-family="sans-serif" font-size="10px" fill="#000" opacity="1">2020-02-25</text></g></g><path class="foreground" aria-hidden="true" d="" display="none"/></g><g transform="translate(390,13)"><path class="background" aria-hidden="true" d="M0,0h67.15234375v11h-67.15234375Z" opacity="1"/><g><g class="mark-symbol role-legend-symbol Collection_date_legend_symbols"><path transform="translate(6,6)" d="M5,0A5,5,0,1,1,-5,0A5,5,0,1,1,5,0" fill="black" stroke-width="1.5" opacity="0.5"/></g><g class="mark-text role-legend-label Collection_date_legend_labels"><text text-anchor="start" transform="translate(16,9)" font-family="sans-serif" font-size="10px" fill="#000" opacity="1">2020-02-29</text></g></g><path class="foreground" aria-hidden="true" d="" display="none"/></g><g transform="translate(468,13)"><path class="background" aria-hidden="true" d="M0,0h67.15234375v11h-67.15234375Z" opacity="1"/><g><g class="mark-symbol role-legend-symbol Collection_date_legend_symbols"><path transform="translate(6,6)" d="M5,0A5,5,0,1,1,-5,0A5,5,0,1,1,5,0" fill="black" stroke-width="1.5" opacity="0.5"/></g><g class="mark-text role-legend-label Collection_date_legend_labels"><text text-anchor="start" transform="translate(16,9)" font-family="sans-serif" font-size="10px" fill="#000" opacity="1">2020-03-02</text></g></g><path class="foreground" aria-hidden="true" d="" display="none"/></g></g></g><path class="foreground" aria-hidden="true" d="" pointer-events="none" display="none"/></g></g><g class="mark-text role-legend-title" pointer-events="none"><text text-anchor="start" transform="translate(0,9)" font-family="sans-serif" font-size="11px" font-weight="bold" fill="#000" opacity="1">Collection date (click to select/deselect)</text></g></g><path class="foreground" aria-hidden="true" d="" pointer-events="none" display="none"/></g></g></g><path class="foreground" aria-hidden="true" d="" display="none"/></g></g></g></svg>